<?xml version="1.0" encoding="utf-8"?>
<!-- Generator: Adobe Illustrator 23.1.0, SVG Export Plug-In . SVG Version: 6.00 Build 0)  -->
<svg version="1.1" id="Capa_1" xmlns="http://www.w3.org/2000/svg" xmlns:xlink="http://www.w3.org/1999/xlink" x="0px" y="0px"
	 viewBox="0 0 1200 1200" enable-background="new 0 0 1200 1200" xml:space="preserve">
<g>
	<g>
		<g>
			<path fill="#FF9453" d="M769.974,885.155c-15.26,80.472-89.773,167.145-89.773,167.145s13.336,37.016,2.298,76.41
				c-4.784,17.078-24.695,24.641-39.768,15.26c-31.296-19.483-79.67-59.706-82.878-123.448c0,0,58.45-38.886,82.557-94.183
				c4.143-9.434,7.269-19.35,8.927-29.639c11.359-70.53-0.989-88.864-0.989-88.864l73.363-43.831c0,0,21.996,14.566,36.428,43.483
				C769.84,826.919,776.094,852.817,769.974,885.155z"/>
		</g>
		<g>
			<path fill="#0D0000" d="M656.87,1150c-5.277,0-10.505-1.475-15.17-4.378c-29.88-18.602-80.497-59.58-83.789-125.002
				c-0.034-0.684,0.293-1.336,0.863-1.717c0.582-0.388,58.259-39.226,81.854-93.34c4.289-9.773,7.243-19.586,8.79-29.173
				c11.015-68.424-0.574-87.299-0.692-87.481c-0.289-0.443-0.388-0.992-0.266-1.506c0.118-0.515,0.437-0.966,0.89-1.238l73.36-43.83
				c0.643-0.388,1.449-0.367,2.076,0.047c0.916,0.606,22.596,15.187,37.093,44.237c12.003,24.031,15.368,50.577,10.007,78.896
				c0,0.002,0,0.002,0,0.002c-14.375,75.801-81.733,157.939-89.489,167.197c2.144,6.496,12.144,40.237,1.977,76.52
				c-2.43,8.672-8.65,15.522-17.064,18.79C663.912,1149.346,660.38,1150,656.87,1150z M561.857,1021.51
				c3.707,63.025,52.833,102.71,81.904,120.808c6.714,4.178,14.79,4.933,22.139,2.078c7.262-2.819,12.63-8.729,14.725-16.21
				c10.745-38.353-2.125-74.86-2.258-75.225c-0.236-0.66-0.103-1.397,0.357-1.929c0.741-0.861,74.349-87.211,89.337-166.239v0.002
				c5.197-27.466,1.947-53.183-9.665-76.436c-12.296-24.632-30.382-38.825-34.774-42.03l-70.703,42.241
				c2.776,6.135,9.92,28.953,0.338,88.441c-1.593,9.91-4.646,20.042-9.064,30.112C621.8,978.482,569.469,1016.216,561.857,1021.51z
				 M769.974,885.155h0.038H769.974z"/>
		</g>
	</g>
	<g>
		<g>
			<path fill="#0D0000" d="M490.118,453.718c0,0,23.177-189.681-50.913-181.448c-74.09,8.232-76.834,107.934-76.834,107.934
				l79.593,107.506L490.118,453.718z"/>
		</g>
	</g>
	<g>
		<g>
			<path fill="#FF9453" d="M450.462,462.216c0,0-77.114-245.742-173.157-175.311s9.147,150.01,9.147,150.01
				s-53.967,5.488-53.967,64.943s167.389,25.611,167.389,25.611L450.462,462.216z"/>
		</g>
		<g>
			<path fill="#0D0000" d="M308.314,539.074c-27.059,0-53.126-3.561-67.114-15.003c-7.076-5.787-10.661-13.262-10.661-22.213
				c0-50.39,38.249-63.196,51.366-66.102c-11.41-9.549-47.282-42.798-46.982-83.158c0.182-24.704,14.056-47.334,41.229-67.262
				c17.368-12.731,35.355-16.172,53.48-10.229C400.335,298.3,450.229,454.974,452.32,461.632c0.19,0.608,0.068,1.272-0.319,1.776
				l-50.586,65.253c-0.289,0.369-0.696,0.624-1.156,0.717C397.19,529.996,351.494,539.074,308.314,539.074z M312.5,276.189
				c-11.494,0-22.888,4.104-34.044,12.286c-26.124,19.157-39.461,40.735-39.64,64.137c-0.346,45.003,48.32,82.379,48.811,82.75
				c0.639,0.483,0.912,1.308,0.7,2.078c-0.217,0.77-0.882,1.329-1.677,1.412c-2.133,0.221-52.217,6.06-52.217,63.006
				c0,7.836,3.019,14.117,9.235,19.2c33.492,27.396,145.136,6.574,155.116,4.64l49.51-63.865
				c-4.369-13.433-53.871-161.378-119.879-183.029C323.1,277.06,317.789,276.189,312.5,276.189z"/>
		</g>
	</g>
	<g>
		<g>
			<path fill="#FF9453" d="M758.978,723.974c0,0,96.043-9.147,124.398-110.678s28.355-101.531,28.355-101.531
				s67.687-45.735,53.967-136.289c-13.72-90.555-51.223-53.967-51.223-53.967L767.211,579.453L758.978,723.974z"/>
		</g>
		<g>
			<path fill="#0D0000" d="M758.978,725.92c-0.502,0-0.985-0.194-1.35-0.544c-0.411-0.393-0.627-0.947-0.593-1.513l8.231-144.521
				c0.015-0.3,0.103-0.593,0.251-0.855l147.268-257.942c0.091-0.158,0.201-0.3,0.331-0.428c0.471-0.458,11.688-11.191,24.702-6.828
				c14.281,4.791,24.307,25.614,29.804,61.897c13.052,86.135-47.461,132.866-54.202,137.767l-28.169,100.866
				C856.865,715.462,760.138,725.819,759.164,725.91C759.1,725.916,759.039,725.92,758.978,725.92z M769.126,580.02l-8.072,141.71
				c14.577-2.23,95.203-18.569,120.449-108.957l28.356-101.53c0.122-0.445,0.403-0.831,0.783-1.089
				c0.665-0.452,66.502-46.159,53.134-134.387c-6.551-43.218-18.391-55.82-27.169-58.78c-9.935-3.348-19.174,4.473-20.584,5.747
				L769.126,580.02z"/>
		</g>
	</g>
	<g>
		<g>
			<path fill="#FF9453" d="M769.781,729.27c-25.795,54.324-73.359,101.513-136.6,128.725
				c-126.657,54.497-268.252,8.214-316.264-103.37c-0.695-1.61-1.363-3.219-2.003-4.839
				c-44.161-110.614,19.583-242.165,144.412-295.875c126.658-54.497,268.252-8.214,316.264,103.369
				C799.627,613.15,795.648,674.791,769.781,729.27z"/>
		</g>
		<g>
			<path fill="#0D0000" d="M524.126,882.729c-91.215,0-174.369-46.862-208.995-127.334c-0.703-1.627-1.38-3.256-2.026-4.893
				c-21.584-54.065-18.429-114.742,8.893-170.845c27.325-56.109,75.824-101.401,136.558-127.534
				c127.437-54.831,270.462-8.005,318.821,104.387c23.478,54.573,21.406,116.223-5.836,173.594l0,0
				c-27.12,57.116-75.984,103.17-137.592,129.68C597.756,875.355,560.306,882.729,524.126,882.729z M568.404,433.065
				c-35.675,0-72.612,7.273-108.313,22.635c-122.578,52.742-186.893,184.346-143.368,293.364c0.631,1.606,1.293,3.198,1.981,4.789
				c47.51,110.419,188.228,156.342,313.707,102.353c60.738-26.133,108.898-71.511,135.608-127.772l0,0
				c26.759-56.346,28.812-116.858,5.783-170.385C739.808,479.047,658.098,433.065,568.404,433.065z"/>
		</g>
	</g>
	<g>
		<g>
			<circle fill="#FF9453" cx="708.213" cy="376.848" r="230.96"/>
		</g>
		<g>
			<path fill="#0D0000" d="M708.213,609.754c-128.426,0-232.906-104.48-232.906-232.906s104.48-232.906,232.906-232.906
				s232.906,104.48,232.906,232.906S836.639,609.754,708.213,609.754z M708.213,147.836c-126.277,0-229.012,102.735-229.012,229.012
				s102.735,229.012,229.012,229.012s229.012-102.735,229.012-229.012S834.49,147.836,708.213,147.836z"/>
		</g>
	</g>
	<g>
		<g>
			<path fill="#FF9453" d="M814.85,351.778c0.119,1.465,0.195,2.925,0.22,4.364c0.658,27.808-14.152,50.918-34.357,52.553
				c-20.578,1.665-39.206-19.54-42.563-47.846c-0.109-0.941-0.203-1.892-0.28-2.843c-2.404-29.716,12.881-55.198,34.137-56.917
				C793.263,299.369,812.446,322.062,814.85,351.778z"/>
		</g>
		<g>
			<path fill="#0D0000" d="M778.456,410.734c-20.569,0-38.868-21.233-42.237-49.655c-0.114-0.966-0.209-1.937-0.289-2.91
				c-2.487-30.743,13.627-57.217,35.922-59.021c10.931-0.869,21.622,4.173,30.135,14.241c8.349,9.882,13.608,23.459,14.801,38.231
				c0,0.002,0,0.002,0,0.002c0.122,1.508,0.205,3.009,0.228,4.49c0.684,28.873-15.193,52.829-36.146,54.525
				C780.064,410.702,779.258,410.734,778.456,410.734z M774.281,302.944c-0.703,0-1.411,0.029-2.118,0.086
				c-20.151,1.631-34.667,26.223-32.355,54.818c0.08,0.926,0.167,1.855,0.278,2.776c3.251,27.439,21.018,47.681,40.473,46.132
				c18.896-1.528,33.199-23.74,32.565-50.567c-0.023-1.412-0.099-2.831-0.213-4.254c-1.129-13.969-6.068-26.766-13.896-36.032
				C791.9,307.485,783.189,302.944,774.281,302.944z"/>
		</g>
	</g>
	<g>
		<g>
			<path fill="#FFFFFF" d="M814.85,351.778c0.119,1.465,0.195,2.925,0.22,4.364c-8.869,4.584-19.134,7.88-30.265,9.414
				c-1.928,0.272-3.885,0.489-5.863,0.649c-1.415,0.115-2.816,0.203-4.212,0.257c-13.263,0.532-25.778-1.539-36.58-5.614
				c-0.109-0.941-0.203-1.892-0.28-2.843c-2.404-29.716,12.881-55.198,34.137-56.917
				C793.263,299.369,812.446,322.062,814.85,351.778z"/>
		</g>
		<g>
			<path fill="#0D0000" d="M770.685,368.1c-11.619,0-22.98-1.983-33.082-5.796l-0.886-0.333l-0.11-0.941
				c-0.114-0.958-0.205-1.926-0.289-2.895c-2.468-30.525,13.486-56.81,35.564-58.595c10.809-0.89,21.379,4.135,29.804,14.102
				c8.3,9.819,13.524,23.32,14.714,38.011l0,0c0.118,1.5,0.201,2.994,0.224,4.466l0.015,0.964l-0.855,0.443
				c-9.342,4.825-19.691,8.047-30.766,9.572c-1.954,0.276-3.943,0.498-5.95,0.66c-1.437,0.116-2.859,0.205-4.277,0.26
				C773.422,368.071,772.049,368.1,770.685,368.1z M739.591,359.724c10.688,3.888,22.786,5.68,35.078,5.186
				c1.372-0.055,2.756-0.141,4.148-0.253c1.947-0.158,3.874-0.373,5.771-0.641c10.387-1.431,20.105-4.397,28.903-8.815
				c-0.038-1.091-0.103-2.194-0.194-3.298l0,0c-1.137-14.05-6.102-26.926-13.988-36.254c-7.76-9.182-17.417-13.767-27.177-13.011
				c-20.368,1.65-35.043,26.43-32.713,55.242C739.47,358.494,739.527,359.11,739.591,359.724z"/>
		</g>
	</g>
	<g>
		<g>
			<path fill="#0D0000" d="M784.693,360.05c0.156,1.929,0.189,3.784,0.112,5.507c-1.928,0.272-3.885,0.489-5.863,0.649
				c-1.415,0.115-2.816,0.203-4.212,0.257c-0.363-1.712-0.64-3.581-0.798-5.543c-0.703-8.683,1.136-15.922,4.108-16.162
				C781.011,344.518,783.99,351.367,784.693,360.05z"/>
		</g>
	</g>
	<g>
		<g>
			<path fill="#FF9453" d="M746.535,358.413c0.11,1.615,0.173,3.224,0.18,4.81c0.332,30.636-16.306,55.879-38.582,57.393
				c-22.687,1.543-42.904-22.075-46.2-53.297c-0.107-1.038-0.197-2.086-0.268-3.135c-2.228-32.762,14.967-60.61,38.402-62.203
				S744.307,325.651,746.535,358.413z"/>
		</g>
		<g>
			<path fill="#0D0000" d="M706.038,422.634c-22.732,0-42.724-23.666-46.043-55.111c-0.11-1.066-0.198-2.135-0.274-3.207
				c-1.103-16.248,2.399-31.855,9.862-43.946c7.593-12.298,18.371-19.518,30.348-20.333c24.481-1.654,46.248,24.464,48.545,58.244
				c0.114,1.656,0.179,3.308,0.186,4.933c0.342,31.709-17.402,57.782-40.397,59.344
				C707.521,422.608,706.776,422.632,706.038,422.634z M702.164,303.855c-0.654,0-1.308,0.023-1.966,0.068
				c-10.691,0.726-20.387,7.294-27.302,18.493c-7.041,11.406-10.338,26.192-9.288,41.636c0.068,1.025,0.156,2.051,0.259,3.068
				c3.209,30.371,22.588,53.031,44.134,51.552c20.938-1.422,37.089-25.768,36.77-55.428c-0.008-1.557-0.072-3.125-0.179-4.699
				c0,0,0,0,0-0.002C742.504,327.84,723.684,303.855,702.164,303.855z"/>
		</g>
	</g>
	<g>
		<g>
			<path fill="#FFFFFF" d="M746.535,358.413c0.11,1.615,0.173,3.224,0.18,4.81c-9.833,4.923-21.184,8.408-33.466,9.94
				c-2.127,0.273-4.285,0.484-6.466,0.632c-1.56,0.106-3.105,0.183-4.642,0.224c-14.614,0.398-28.368-2.059-40.208-6.7
				c-0.107-1.038-0.197-2.086-0.268-3.135c-2.228-32.762,14.967-60.61,38.402-62.203S744.307,325.651,746.535,358.413z"/>
		</g>
		<g>
			<path fill="#0D0000" d="M699.115,375.616c-13.288,0-26.28-2.352-37.751-6.849l-0.882-0.346l-0.099-0.945
				c-0.106-1.055-0.198-2.12-0.27-3.186c-1.099-16.166,2.384-31.692,9.805-43.714c7.524-12.187,18.193-19.343,30.04-20.147
				c24.291-1.671,45.845,24.314,48.126,57.877l0,0c0.114,1.65,0.179,3.293,0.186,4.91l0.004,0.966l-0.863,0.433
				c-10.342,5.175-21.771,8.57-33.967,10.093c-2.156,0.276-4.346,0.489-6.555,0.639c-1.585,0.108-3.152,0.188-4.707,0.228
				C701.16,375.601,700.138,375.616,699.115,375.616z M663.387,366.212c11.756,4.46,25.105,6.602,38.712,6.252
				c1.517-0.04,3.038-0.116,4.578-0.221c2.148-0.146,4.277-0.355,6.376-0.624c11.509-1.435,22.299-4.581,32.097-9.357
				c-0.023-1.239-0.084-2.49-0.167-3.745l0,0c-2.163-31.855-22.451-56.529-44.811-54.987c-10.821,0.736-20.626,7.37-27.607,18.679
				c-7.083,11.475-10.406,26.342-9.349,41.866C663.265,364.79,663.322,365.503,663.387,366.212z"/>
		</g>
	</g>
	<g>
		<g>
			<path fill="#0D0000" d="M713.203,367.097c0.145,2.126,0.155,4.17,0.046,6.066c-2.127,0.273-4.285,0.484-6.466,0.632
				c-1.56,0.106-3.105,0.183-4.642,0.224c-0.376-1.89-0.654-3.953-0.801-6.116c-0.651-9.573,1.477-17.52,4.753-17.742
				C709.369,349.938,712.552,357.524,713.203,367.097z"/>
		</g>
	</g>
	<g>
		<g>
			<path fill="#FF9453" d="M668.424,250.163c0,0,15.55-16.464,36.588-2.744c21.038,13.72,29.27,10.976,34.758,1.829
				c5.488-9.147-10.976-34.758-38.417-34.758"/>
		</g>
		<g>
			<path fill="#0D0000" d="M727.919,258.855c-6.072,0.002-13.813-3.182-23.972-9.805c-19.36-12.627-33.515,1.833-34.112,2.454
				c-0.73,0.772-1.966,0.814-2.749,0.07c-0.779-0.74-0.814-1.968-0.076-2.747c0.167-0.175,16.93-17.472,39.066-3.04
				c11.072,7.22,19.052,10.138,24.386,8.901c3.026-0.696,5.384-2.682,7.638-6.443c1.547-2.578,0.76-7.266-2.053-12.233
				c-5.114-9.03-17.269-19.577-34.694-19.577c-1.076,0-1.947-0.871-1.947-1.947c0-1.076,0.871-1.947,1.947-1.947
				c19.102,0,32.454,11.61,38.081,21.552c3.559,6.279,4.304,12.319,2.004,16.155c-2.806,4.677-6.019,7.294-10.102,8.233
				C730.257,258.732,729.121,258.855,727.919,258.855z"/>
		</g>
	</g>
	<g>
		<g>
			<path fill="#0D0000" d="M710.974,461.8c-4.278-14.622-0.455-31.693,16.905-33.272c20.123-1.829,26.526,30.185,42.076,21.038
				c15.55-9.147,16.464-32.014,30.185-27.441c13.72,4.573,15.642,28.151,7.318,42.99C786.419,502.618,723.629,505.051,710.974,461.8
				z"/>
		</g>
	</g>
	<g>
		<g>
			<path fill="#FF9453" d="M767.209,472.992c-23.903,0-42.632-18.244-42.632-21.598h2.943h-1.471l1.426-0.306
				c0.924,2.287,17.505,18.957,39.735,18.957c22.428,0,30.527-26.128,30.607-26.392l2.821,0.848
				C800.55,444.787,791.801,472.992,767.209,472.992z"/>
		</g>
	</g>
	<g>
		<g>
			<path fill="#0D0000" d="M580.479,128.559c-40.454,0-78.219-5.11-80.219-22.331c-3.224-27.787,91.409-46.216,141.9-52.079
				c50.495-5.859,146.827-9.604,150.055,18.179l0,0c3.224,27.787-91.409,46.216-141.9,52.079
				C631.119,126.635,605.292,128.559,580.479,128.559z M710.833,61.138c-18.946,0-41.488,1.207-67.372,4.213
				c-87.208,10.125-132.942,31.456-131.999,39.577s50.343,18.398,137.554,8.279c87.208-10.125,132.942-31.456,131.999-39.577l0,0
				C780.353,67.919,755.716,61.138,710.833,61.138z"/>
		</g>
	</g>
	<g>
		<g>
			<path fill="#FF9453" d="M557.746,772.453c0,0,53.967,50.308,25.611,127.142s-116.166,150.01-116.166,150.01
				s7.039,38.713-10.354,75.743c-7.538,16.048-28.436,20.202-41.733,8.474c-27.659-24.397-68.72-72.051-61.335-135.44
				c0,0,87.811-39.332,110.678-107.019s13.72-87.81,13.72-87.81"/>
		</g>
		<g>
			<path fill="#0D0000" d="M432.743,1142.489c-6.916,0-13.589-2.498-18.927-7.207c-26.401-23.287-69.562-72.07-61.981-137.126
				c0.08-0.681,0.513-1.27,1.141-1.549c0.871-0.392,87.299-39.781,109.628-105.868c22.181-65.663,13.87-86.196,13.782-86.398
				c-0.426-0.979,0.015-2.127,0.992-2.561c0.973-0.428,2.118-0.006,2.559,0.966c0.388,0.852,9.205,21.603-13.646,89.24
				c-21.539,63.755-100.785,103.001-110.708,107.699c-6.779,62.76,35.123,110.022,60.81,132.678
				c5.924,5.228,13.756,7.302,21.489,5.703c7.627-1.582,13.893-6.519,17.193-13.545c16.911-36.005,10.266-74.186,10.197-74.568
				c-0.125-0.69,0.133-1.395,0.669-1.844c0.874-0.728,87.744-73.735,115.59-149.189c27.588-74.754-24.584-124.549-25.113-125.044
				c-0.787-0.734-0.829-1.966-0.099-2.751c0.738-0.787,1.966-0.829,2.753-0.097c0.551,0.511,54.586,52.084,26.109,129.241
				c-26.709,72.374-106.712,142.255-115.894,150.107c1.042,6.762,5.33,41.691-10.691,75.798
				c-3.825,8.146-11.087,13.87-19.923,15.703C436.694,1142.288,434.709,1142.489,432.743,1142.489z"/>
		</g>
	</g>
	<g>
		<g>
			<g>
				<path fill="none" d="M656.146,720.785c1.473-0.468,3.012-0.789,4.64-0.789c1.627,0,3.165,0.321,4.637,0.788
					c-0.468-1.473-0.79-3.012-0.79-4.641h0.001c0-0.002-0.001-0.003-0.001-0.005c0-1.627,0.322-3.164,0.79-4.636
					c-1.472,0.468-3.01,0.789-4.637,0.789c-1.628,0-3.166-0.321-4.639-0.789c0.469,1.472,0.79,3.01,0.79,4.636
					c0,0.002-0.001,0.003-0.001,0.005h0.001C656.936,717.773,656.614,719.312,656.146,720.785z"/>
			</g>
		</g>
		<g>
			<g>
				<path fill="none" d="M579.964,716.145L579.964,716.145c0.001,1.629-0.321,3.168-0.789,4.641c1.473-0.468,3.012-0.789,4.64-0.789
					c1.627,0,3.165,0.321,4.637,0.788c-0.468-1.473-0.79-3.012-0.79-4.641h0.001c0-0.002-0.001-0.003-0.001-0.005
					c0-1.627,0.322-3.164,0.79-4.636c-1.472,0.468-3.01,0.789-4.637,0.789c-1.628,0-3.166-0.321-4.639-0.789
					c0.469,1.472,0.79,3.01,0.79,4.636C579.965,716.141,579.964,716.143,579.964,716.145z"/>
			</g>
		</g>
		<g>
			<g>
				<path fill="none" d="M607.696,701.54c-0.469-1.474-0.79-3.013-0.79-4.642c0-1.627,0.321-3.164,0.788-4.636
					c-1.472,0.468-3.011,0.789-4.638,0.789c-1.626,0-3.164-0.321-4.636-0.788c0.468,1.472,0.789,3.009,0.789,4.635
					c0,1.629-0.322,3.168-0.791,4.641c1.472-0.468,3.01-0.789,4.638-0.789C604.683,700.751,606.222,701.072,607.696,701.54z"/>
			</g>
		</g>
		<g>
			<g>
				<path fill="none" d="M618.451,716.145L618.451,716.145c0,1.628-0.321,3.168-0.789,4.641c1.472-0.467,3.01-0.788,4.638-0.788
					c1.628,0,3.166,0.321,4.639,0.789c-0.469-1.473-0.79-3.013-0.79-4.642l0,0c0-0.002,0-0.003,0-0.005
					c0-1.627,0.321-3.165,0.789-4.637c-1.472,0.468-3.011,0.79-4.638,0.79s-3.165-0.321-4.637-0.789
					c0.468,1.472,0.789,3.009,0.789,4.636C618.452,716.141,618.451,716.143,618.451,716.145z"/>
			</g>
		</g>
		<g>
			<g>
				<path fill="none" d="M569.209,701.54c-0.469-1.473-0.79-3.012-0.79-4.641c0-1.627,0.321-3.164,0.788-4.636
					c-1.472,0.468-3.009,0.789-4.635,0.789c-1.628,0-3.166-0.321-4.638-0.789c0.468,1.472,0.788,3.009,0.788,4.636
					c0,1.629-0.322,3.168-0.79,4.642c1.473-0.468,3.011-0.79,4.64-0.79C566.199,700.751,567.737,701.072,569.209,701.54z"/>
			</g>
		</g>
		<g>
			<g>
				<path fill="none" d="M452.218,739.55c0.533,0.109,1.026,0.314,1.537,0.477c-0.469-1.474-0.791-3.013-0.791-4.642
					c0-1.627,0.321-3.164,0.789-4.636c-0.511,0.162-1.003,0.368-1.535,0.476c-1.003,0.205-2.04,0.313-3.103,0.313
					c-1.626,0-3.164-0.321-4.636-0.788c0.468,1.472,0.789,3.009,0.789,4.635c0,1.629-0.322,3.168-0.791,4.641
					c1.472-0.468,3.01-0.789,4.638-0.789C450.177,739.238,451.215,739.345,452.218,739.55z"/>
			</g>
		</g>
		<g>
			<g>
				<path fill="none" d="M464.511,716.145c0,1.628-0.321,3.167-0.79,4.64c1.472-0.467,3.01-0.788,4.637-0.788
					c1.628,0,3.167,0.321,4.639,0.789c-0.468-1.473-0.79-3.013-0.79-4.642h0c0-0.002,0-0.003,0-0.005
					c0-1.627,0.321-3.165,0.789-4.637c-1.473,0.468-3.011,0.79-4.639,0.79c-1.627,0-3.165-0.321-4.637-0.789
					c0.468,1.472,0.789,3.009,0.789,4.636C464.511,716.141,464.51,716.143,464.511,716.145L464.511,716.145z"/>
			</g>
		</g>
		<g>
			<g>
				<path fill="none" d="M540.691,720.785c1.472-0.467,3.01-0.788,4.637-0.788c1.628,0,3.167,0.321,4.639,0.789
					c-0.468-1.473-0.79-3.013-0.79-4.642h0c0-0.002,0-0.003,0-0.005c0-1.627,0.321-3.165,0.789-4.637
					c-1.473,0.468-3.011,0.79-4.639,0.79c-1.627,0-3.165-0.321-4.637-0.789c0.468,1.472,0.789,3.009,0.789,4.636
					c0,0.002,0,0.003,0,0.005h0C541.481,717.773,541.16,719.312,540.691,720.785z"/>
			</g>
		</g>
		<g>
			<g>
				<path fill="none" d="M502.204,720.785c1.473-0.468,3.012-0.789,4.64-0.789c1.627,0,3.165,0.321,4.637,0.788
					c-0.468-1.473-0.79-3.012-0.79-4.641h0c0-0.002,0-0.003,0-0.005c0-1.627,0.321-3.164,0.789-4.636
					c-1.472,0.468-3.01,0.789-4.636,0.789c-1.628,0-3.167-0.321-4.639-0.789c0.468,1.472,0.789,3.01,0.789,4.636
					c0,0.002,0,0.003,0,0.005h0C502.994,717.773,502.673,719.312,502.204,720.785z"/>
			</g>
		</g>
		<g>
			<g>
				<path fill="none" d="M761.637,740.027c-0.469-1.474-0.79-3.013-0.79-4.642c0-1.627,0.321-3.164,0.789-4.636
					c-1.473,0.468-3.011,0.789-4.639,0.789c-1.627,0-3.164-0.321-4.636-0.788c0.468,1.472,0.789,3.009,0.789,4.635
					c0,1.629-0.322,3.168-0.79,4.641c1.472-0.468,3.01-0.789,4.638-0.789C758.625,739.238,760.164,739.559,761.637,740.027z"/>
			</g>
		</g>
		<g>
			<g>
				<path fill="none" d="M680.026,808.512c-1.627,0-3.164-0.321-4.636-0.788c0.468,1.471,0.789,3.008,0.789,4.635
					c0,1.629-0.322,3.168-0.79,4.641c1.472-0.468,3.01-0.789,4.638-0.789c1.063,0,2.101,0.108,3.103,0.313
					c0.533,0.109,1.026,0.314,1.537,0.477c-0.469-1.474-0.79-3.013-0.79-4.642c0-1.627,0.321-3.164,0.788-4.636
					c-0.51,0.162-1.003,0.368-1.535,0.476C682.127,808.404,681.089,808.512,680.026,808.512z"/>
			</g>
		</g>
		<g>
			<g>
				<path fill="none" d="M664.633,793.118c0-0.002-0.001-0.003-0.001-0.005c0-1.627,0.322-3.164,0.79-4.636
					c-1.472,0.468-3.01,0.789-4.637,0.789c-1.628,0-3.166-0.321-4.639-0.789c0.469,1.472,0.79,3.01,0.79,4.636
					c0,0.002-0.001,0.003-0.001,0.005h0.001c0,1.629-0.322,3.168-0.79,4.641c1.473-0.468,3.012-0.789,4.64-0.789
					c1.627,0,3.165,0.321,4.637,0.788C664.954,796.285,664.632,794.746,664.633,793.118L664.633,793.118z"/>
			</g>
		</g>
		<g>
			<g>
				<path fill="none" d="M695.422,716.145c0,1.628-0.321,3.167-0.79,4.64c1.472-0.467,3.01-0.788,4.638-0.788
					c1.628,0,3.166,0.321,4.639,0.789c-0.469-1.473-0.79-3.013-0.79-4.642l0,0c0-0.002,0-0.003,0-0.005
					c0-1.627,0.321-3.165,0.789-4.637c-1.472,0.468-3.011,0.79-4.638,0.79s-3.165-0.321-4.637-0.789
					c0.468,1.472,0.789,3.009,0.789,4.636C695.422,716.141,695.422,716.143,695.422,716.145L695.422,716.145z"/>
			</g>
		</g>
		<g>
			<g>
				<path fill="none" d="M425.235,759.267c1.472-0.468,3.01-0.789,4.638-0.789c1.626,0,3.163,0.321,4.635,0.789
					c-0.467-1.472-0.788-3.009-0.788-4.636c0-1.629,0.322-3.168,0.79-4.641c-1.472,0.468-3.01,0.789-4.637,0.789
					c-1.629,0-3.167-0.321-4.64-0.789c0.469,1.474,0.79,3.013,0.79,4.642C426.024,756.258,425.703,757.795,425.235,759.267z"/>
			</g>
		</g>
		<g>
			<g>
				<path fill="none" d="M713.872,740.027c1.473-0.468,3.012-0.79,4.64-0.79c1.627,0,3.165,0.321,4.638,0.789
					c-0.469-1.473-0.791-3.013-0.791-4.642c0-1.627,0.321-3.164,0.789-4.636c-1.472,0.468-3.009,0.789-4.636,0.789
					c-1.628,0-3.166-0.321-4.639-0.789c0.468,1.472,0.789,3.009,0.789,4.636C714.663,737.014,714.341,738.554,713.872,740.027z"/>
			</g>
		</g>
		<g>
			<g>
				<path fill="none" d="M694.633,788.477c0.468,1.472,0.789,3.009,0.789,4.636c0,0.002,0,0.003,0,0.005l0,0
					c0,1.628-0.321,3.167-0.79,4.64c1.472-0.467,3.01-0.788,4.638-0.788c1.628,0,3.166,0.321,4.639,0.789
					c-0.469-1.473-0.79-3.013-0.79-4.642l0,0c0-0.002,0-0.003,0-0.005c0-1.627,0.321-3.165,0.789-4.637
					c-1.472,0.468-3.011,0.79-4.638,0.79S696.105,788.944,694.633,788.477z"/>
			</g>
		</g>
		<g>
			<g>
				<path fill="none" d="M733.117,759.267c1.472-0.468,3.011-0.789,4.638-0.789c1.627,0,3.164,0.321,4.636,0.789
					c-0.468-1.472-0.788-3.009-0.788-4.636c0-1.629,0.322-3.168,0.79-4.641c-1.472,0.468-3.01,0.789-4.638,0.789
					c-1.628,0-3.167-0.322-4.64-0.79c0.469,1.474,0.791,3.013,0.791,4.642C733.906,756.258,733.585,757.795,733.117,759.267z"/>
			</g>
		</g>
		<g>
			<g>
				<path fill="none" d="M713.874,769.236c0.468,1.472,0.788,3.009,0.788,4.636c0,1.629-0.322,3.168-0.79,4.642
					c1.473-0.468,3.012-0.79,4.64-0.79c1.627,0,3.165,0.321,4.638,0.789c-0.469-1.473-0.791-3.012-0.791-4.641
					c0-1.627,0.321-3.164,0.789-4.636c-1.472,0.468-3.009,0.789-4.636,0.789C716.885,770.025,715.347,769.704,713.874,769.236z"/>
			</g>
		</g>
		<g>
			<g>
				<path fill="none" d="M587.663,793.118c0-0.002-0.001-0.003-0.001-0.005c0-1.627,0.322-3.164,0.79-4.636
					c-1.472,0.468-3.01,0.789-4.637,0.789c-1.628,0-3.166-0.321-4.639-0.789c0.469,1.472,0.79,3.01,0.79,4.636
					c0,0.002-0.001,0.003-0.001,0.005h0.001c0,1.629-0.322,3.168-0.79,4.641c1.473-0.468,3.012-0.789,4.64-0.789
					c1.627,0,3.165,0.321,4.637,0.788C587.984,796.285,587.662,794.746,587.663,793.118L587.663,793.118z"/>
			</g>
		</g>
		<g>
			<g>
				<path fill="none" d="M510.691,793.113c0-1.627,0.321-3.164,0.789-4.636c-1.472,0.468-3.01,0.789-4.636,0.789
					c-1.628,0-3.167-0.321-4.639-0.789c0.468,1.472,0.789,3.01,0.789,4.636c0,0.002,0,0.003,0,0.005h0
					c0,1.629-0.322,3.168-0.79,4.641c1.473-0.468,3.012-0.789,4.64-0.789c1.627,0,3.165,0.321,4.637,0.788
					c-0.468-1.473-0.79-3.012-0.79-4.641h0C510.692,793.116,510.691,793.114,510.691,793.113z"/>
			</g>
		</g>
		<g>
			<g>
				<path fill="none" d="M472.207,793.113c0-1.627,0.321-3.165,0.789-4.637c-1.473,0.468-3.011,0.79-4.639,0.79
					c-1.627,0-3.165-0.321-4.637-0.789c0.468,1.472,0.789,3.009,0.789,4.636c0,0.002,0,0.003,0,0.005h0
					c0,1.628-0.321,3.167-0.79,4.64c1.472-0.467,3.01-0.788,4.637-0.788c1.628,0,3.167,0.321,4.639,0.789
					c-0.468-1.473-0.79-3.013-0.79-4.642h0C472.208,793.116,472.207,793.114,472.207,793.113z"/>
			</g>
		</g>
		<g>
			<g>
				<path fill="none" d="M449.114,808.512c-1.626,0-3.164-0.321-4.636-0.788c0.468,1.471,0.789,3.008,0.789,4.635
					c0,1.629-0.322,3.168-0.791,4.641c1.472-0.468,3.01-0.789,4.638-0.789c1.063,0,2.101,0.108,3.103,0.313
					c0.533,0.109,1.026,0.314,1.537,0.477c-0.469-1.474-0.791-3.013-0.791-4.642c0-1.627,0.321-3.164,0.789-4.636
					c-0.511,0.162-1.003,0.368-1.535,0.476C451.215,808.404,450.177,808.512,449.114,808.512z"/>
			</g>
		</g>
		<g>
			<g>
				<path fill="none" d="M415.267,740.027c-0.469-1.473-0.79-3.013-0.79-4.642c0-1.627,0.321-3.164,0.788-4.636
					c-1.472,0.468-3.009,0.789-4.636,0.789c-1.628,0-3.166-0.321-4.639-0.789c0.468,1.472,0.789,3.009,0.789,4.636
					c0,1.629-0.321,3.169-0.79,4.642c1.472-0.468,3.011-0.79,4.64-0.79C412.257,739.238,413.795,739.559,415.267,740.027z"/>
			</g>
		</g>
		<g>
			<g>
				<path fill="none" d="M549.178,793.113c0-1.627,0.321-3.165,0.789-4.637c-1.473,0.468-3.011,0.79-4.639,0.79
					c-1.627,0-3.165-0.321-4.637-0.789c0.468,1.472,0.789,3.009,0.789,4.636c0,0.002,0,0.003,0,0.005h0
					c0,1.628-0.321,3.168-0.79,4.641c1.472-0.467,3.01-0.788,4.637-0.788c1.628,0,3.167,0.321,4.639,0.789
					c-0.468-1.473-0.79-3.013-0.79-4.642h0C549.178,793.116,549.178,793.114,549.178,793.113z"/>
			</g>
		</g>
		<g>
			<g>
				<path fill="none" d="M646.178,807.723c-1.472,0.468-3.009,0.789-4.635,0.789c-1.628,0-3.166-0.321-4.638-0.789
					c0.468,1.472,0.788,3.009,0.788,4.636c0,1.629-0.322,3.169-0.79,4.642c1.473-0.468,3.011-0.79,4.64-0.79
					c1.627,0,3.164,0.321,4.637,0.789c-0.469-1.473-0.79-3.013-0.79-4.642C645.389,810.731,645.71,809.194,646.178,807.723z"/>
			</g>
		</g>
		<g>
			<g>
				<path fill="none" d="M665.421,836.24c-0.468-1.472-0.789-3.009-0.789-4.636c0-1.629,0.322-3.168,0.791-4.642
					c-1.472,0.468-3.01,0.789-4.638,0.789c-1.628,0-3.167-0.321-4.64-0.789c0.469,1.474,0.791,3.013,0.791,4.642
					c0,1.627-0.321,3.164-0.789,4.636c1.472-0.468,3.011-0.789,4.638-0.789C662.412,835.451,663.949,835.772,665.421,836.24z"/>
			</g>
		</g>
		<g>
			<g>
				<path fill="none" d="M598.42,807.723c0.468,1.471,0.789,3.008,0.789,4.635c0,1.629-0.322,3.168-0.791,4.641
					c1.472-0.468,3.01-0.789,4.638-0.789c1.628,0,3.167,0.321,4.64,0.79c-0.469-1.474-0.79-3.013-0.79-4.642
					c0-1.627,0.321-3.164,0.788-4.636c-1.472,0.468-3.01,0.789-4.638,0.789C601.429,808.512,599.891,808.19,598.42,807.723z"/>
			</g>
		</g>
		<g>
			<g>
				<path fill="none" d="M626.149,793.118c0-0.002,0-0.003,0-0.005c0-1.627,0.321-3.165,0.789-4.637
					c-1.472,0.468-3.011,0.79-4.638,0.79s-3.165-0.321-4.637-0.789c0.468,1.472,0.789,3.009,0.789,4.636c0,0.002,0,0.003,0,0.005h0
					c0,1.628-0.321,3.168-0.79,4.641c1.472-0.467,3.01-0.788,4.638-0.788c1.628,0,3.166,0.321,4.639,0.789
					C626.47,796.286,626.149,794.747,626.149,793.118L626.149,793.118z"/>
			</g>
		</g>
		<g>
			<g>
				<path fill="none" d="M511.481,749.99c-1.472,0.468-3.01,0.789-4.637,0.789c-1.629,0-3.167-0.321-4.64-0.789
					c0.469,1.474,0.79,3.013,0.79,4.642c0,1.627-0.321,3.164-0.788,4.636c1.472-0.468,3.01-0.789,4.639-0.789
					c1.626,0,3.163,0.321,4.635,0.789c-0.467-1.472-0.788-3.009-0.788-4.636C510.691,753.002,511.012,751.463,511.481,749.99z"/>
			</g>
		</g>
		<g>
			<g>
				<path fill="none" d="M433.721,793.118c0-0.002,0-0.003,0-0.005c0-1.627,0.321-3.164,0.789-4.636
					c-1.472,0.468-3.01,0.789-4.636,0.789c-1.628,0-3.167-0.321-4.639-0.789c0.468,1.472,0.789,3.01,0.789,4.636
					c0,0.002,0,0.003,0,0.005h0c0,1.629-0.322,3.168-0.79,4.641c1.473-0.468,3.012-0.789,4.64-0.789
					c1.627,0,3.165,0.321,4.637,0.788C434.042,796.285,433.721,794.746,433.721,793.118L433.721,793.118z"/>
			</g>
		</g>
		<g>
			<g>
				<path fill="none" d="M376.784,740.027c-0.469-1.474-0.791-3.013-0.791-4.642c0-1.627,0.321-3.164,0.789-4.636
					c-1.472,0.468-3.011,0.789-4.639,0.789c-1.627,0-3.164-0.321-4.636-0.788c0.468,1.472,0.788,3.009,0.788,4.635
					c0,1.629-0.322,3.168-0.79,4.641c1.472-0.468,3.01-0.789,4.638-0.789C373.772,739.238,375.311,739.559,376.784,740.027z"/>
			</g>
		</g>
		<g>
			<g>
				<path fill="none" d="M357.54,749.99c-1.472,0.468-3.01,0.789-4.637,0.789c-1.629,0-3.168-0.322-4.64-0.79
					c0.469,1.474,0.79,3.013,0.79,4.642c0,1.627-0.321,3.164-0.788,4.636c1.473-0.468,3.011-0.789,4.639-0.789
					c1.626,0,3.163,0.321,4.635,0.789c-0.467-1.472-0.788-3.009-0.788-4.636C356.75,753.002,357.072,751.463,357.54,749.99z"/>
			</g>
		</g>
		<g>
			<g>
				<path fill="none" d="M386.751,759.266c1.472-0.467,3.009-0.788,4.636-0.788c1.627,0,3.166,0.321,4.638,0.789
					c-0.468-1.472-0.788-3.009-0.788-4.636c0-1.629,0.322-3.169,0.79-4.642c-1.473,0.468-3.012,0.79-4.64,0.79
					s-3.166-0.321-4.638-0.789c0.469,1.473,0.791,3.012,0.791,4.641C387.54,756.258,387.219,757.795,386.751,759.266z"/>
			</g>
		</g>
		<g>
			<g>
				<path fill="none" d="M376.784,778.514c-0.469-1.474-0.791-3.013-0.791-4.642c0-1.627,0.321-3.164,0.789-4.636
					c-1.472,0.468-3.011,0.789-4.639,0.789c-1.627,0-3.164-0.321-4.636-0.788c0.468,1.472,0.788,3.009,0.788,4.635
					c0,1.629-0.322,3.168-0.79,4.641c1.472-0.468,3.01-0.789,4.638-0.789C373.772,777.724,375.311,778.045,376.784,778.514z"/>
			</g>
		</g>
		<g>
			<g>
				<path fill="none" d="M405.992,807.723c0.468,1.472,0.788,3.009,0.788,4.636c0,1.629-0.321,3.169-0.79,4.642
					c1.472-0.468,3.011-0.79,4.64-0.79c1.627,0,3.165,0.321,4.637,0.789c-0.469-1.473-0.79-3.013-0.79-4.642
					c0-1.627,0.32-3.164,0.788-4.635c-1.471,0.468-3.008,0.789-4.635,0.789C409.003,808.512,407.465,808.19,405.992,807.723z"/>
			</g>
		</g>
		<g>
			<g>
				<path fill="none" d="M386.749,826.963c0.469,1.474,0.791,3.012,0.791,4.641c0,1.627-0.321,3.164-0.789,4.635
					c1.472-0.467,3.009-0.788,4.636-0.788c1.627,0,3.166,0.321,4.638,0.789c-0.468-1.472-0.788-3.009-0.788-4.636
					c0-1.629,0.322-3.169,0.79-4.643c-1.473,0.468-3.012,0.79-4.64,0.79S388.221,827.431,386.749,826.963z"/>
			</g>
		</g>
		<g>
			<g>
				<path fill="none" d="M356.751,793.118c0-0.002,0-0.003,0-0.005c0-1.627,0.321-3.164,0.789-4.636
					c-1.472,0.468-3.01,0.789-4.636,0.789c-1.628,0-3.167-0.321-4.64-0.789c0.468,1.472,0.789,3.01,0.789,4.636
					c0,0.002,0,0.003,0,0.005l0,0c0,1.629-0.321,3.168-0.79,4.641c1.473-0.468,3.012-0.789,4.64-0.789
					c1.627,0,3.165,0.321,4.637,0.788C357.072,796.285,356.75,794.746,356.751,793.118L356.751,793.118z"/>
			</g>
		</g>
		<g>
			<g>
				<path fill="none" d="M376.782,807.722c-1.472,0.468-3.011,0.789-4.639,0.789c-1.627,0-3.164-0.321-4.636-0.788
					c0.468,1.471,0.788,3.008,0.788,4.635c0,1.629-0.322,3.168-0.79,4.641c1.472-0.468,3.01-0.789,4.638-0.789
					c1.628,0,3.167,0.321,4.64,0.79c-0.469-1.474-0.791-3.013-0.791-4.642C375.993,810.731,376.314,809.194,376.782,807.722z"/>
			</g>
		</g>
		<g>
			<g>
				<path fill="none" d="M472.998,749.989c-1.473,0.468-3.012,0.79-4.64,0.79c-1.627,0-3.166-0.321-4.638-0.789
					c0.469,1.473,0.79,3.012,0.79,4.641c0,1.627-0.321,3.164-0.788,4.635c1.472-0.467,3.009-0.788,4.636-0.788
					c1.627,0,3.166,0.321,4.638,0.789c-0.468-1.472-0.788-3.009-0.788-4.636C472.207,753.002,472.529,751.462,472.998,749.989z"/>
			</g>
		</g>
		<g>
			<g>
				<path fill="none" d="M395.237,793.113c0-1.627,0.321-3.165,0.789-4.637c-1.473,0.468-3.011,0.79-4.639,0.79
					c-1.627,0-3.165-0.321-4.637-0.789c0.469,1.472,0.79,3.009,0.79,4.636c0,0.002-0.001,0.003-0.001,0.005h0.001
					c0,1.628-0.322,3.168-0.79,4.641c1.472-0.467,3.01-0.788,4.638-0.788c1.628,0,3.167,0.321,4.639,0.789
					c-0.468-1.473-0.79-3.013-0.79-4.642h0C395.237,793.116,395.237,793.114,395.237,793.113z"/>
			</g>
		</g>
		<g>
			<g>
				<path fill="none" d="M405.99,778.514c1.472-0.468,3.011-0.79,4.64-0.79c1.627,0,3.165,0.321,4.637,0.789
					c-0.469-1.473-0.79-3.012-0.79-4.641c0-1.627,0.321-3.164,0.788-4.636c-1.471,0.467-3.008,0.789-4.635,0.789
					c-1.628,0-3.166-0.321-4.638-0.789c0.468,1.472,0.788,3.009,0.788,4.636C406.78,775.501,406.459,777.04,405.99,778.514z"/>
			</g>
		</g>
		<g>
			<g>
				<path fill="none" d="M588.453,749.99c-1.472,0.468-3.01,0.789-4.638,0.789c-1.628,0-3.167-0.321-4.64-0.789
					c0.469,1.474,0.791,3.013,0.791,4.642c0,1.627-0.321,3.164-0.789,4.636c1.472-0.468,3.011-0.789,4.638-0.789
					c1.626,0,3.164,0.321,4.636,0.789c-0.468-1.472-0.789-3.009-0.789-4.636C587.662,753.002,587.984,751.463,588.453,749.99z"/>
			</g>
		</g>
		<g>
			<g>
				<path fill="none" d="M549.968,749.989c-1.473,0.468-3.012,0.79-4.64,0.79s-3.166-0.321-4.638-0.789
					c0.469,1.473,0.79,3.012,0.79,4.641c0,1.627-0.321,3.164-0.788,4.635c1.472-0.467,3.009-0.788,4.636-0.788
					c1.627,0,3.166,0.321,4.638,0.789c-0.468-1.472-0.788-3.009-0.788-4.636C549.178,753.002,549.5,751.462,549.968,749.989z"/>
			</g>
		</g>
		<g>
			<g>
				<path fill="none" d="M569.209,740.027c-0.469-1.473-0.79-3.013-0.79-4.642c0-1.627,0.321-3.164,0.789-4.636
					c-1.472,0.468-3.009,0.789-4.636,0.789c-1.628,0-3.166-0.321-4.639-0.789c0.468,1.472,0.789,3.009,0.789,4.636
					c0,1.629-0.322,3.169-0.79,4.642c1.473-0.468,3.011-0.79,4.64-0.79C566.199,739.238,567.737,739.559,569.209,740.027z"/>
			</g>
		</g>
		<g>
			<g>
				<path fill="none" d="M675.389,740.026c1.472-0.468,3.01-0.789,4.638-0.789c1.063,0,2.101,0.108,3.103,0.313
					c0.533,0.109,1.026,0.314,1.537,0.477c-0.469-1.474-0.79-3.013-0.79-4.642c0-1.627,0.321-3.164,0.788-4.636
					c-0.51,0.162-1.003,0.368-1.535,0.476c-1.002,0.205-2.04,0.313-3.103,0.313c-1.627,0-3.164-0.321-4.636-0.788
					c0.468,1.472,0.789,3.009,0.789,4.635C676.179,737.014,675.857,738.553,675.389,740.026z"/>
			</g>
		</g>
		<g>
			<g>
				<path fill="none" d="M521.447,740.026c1.472-0.468,3.01-0.789,4.638-0.789c1.628,0,3.167,0.321,4.64,0.79
					c-0.469-1.474-0.79-3.013-0.79-4.642c0-1.627,0.321-3.164,0.789-4.636c-1.473,0.468-3.011,0.789-4.639,0.789
					c-1.626,0-3.164-0.321-4.636-0.788c0.468,1.472,0.789,3.009,0.789,4.635C522.238,737.014,521.916,738.553,521.447,740.026z"/>
			</g>
		</g>
		<g>
			<g>
				<path fill="none" d="M530.723,769.236c-1.472,0.468-3.011,0.789-4.638,0.789c-1.626,0-3.164-0.321-4.636-0.788
					c0.468,1.472,0.789,3.009,0.789,4.635c0,1.629-0.322,3.168-0.791,4.641c1.472-0.468,3.01-0.789,4.638-0.789
					c1.628,0,3.167,0.321,4.64,0.79c-0.469-1.474-0.79-3.013-0.79-4.642C529.935,772.245,530.256,770.708,530.723,769.236z"/>
			</g>
		</g>
		<g>
			<g>
				<path fill="none" d="M636.902,740.027c1.473-0.468,3.011-0.79,4.64-0.79c1.627,0,3.164,0.321,4.637,0.789
					c-0.469-1.473-0.79-3.013-0.79-4.642c0-1.627,0.321-3.164,0.789-4.636c-1.472,0.468-3.009,0.789-4.636,0.789
					c-1.628,0-3.166-0.321-4.639-0.789c0.468,1.472,0.789,3.009,0.789,4.636C637.692,737.014,637.371,738.554,636.902,740.027z"/>
			</g>
		</g>
		<g>
			<g>
				<path fill="none" d="M626.939,749.989c-1.473,0.468-3.012,0.79-4.639,0.79s-3.166-0.321-4.638-0.789
					c0.469,1.473,0.79,3.012,0.79,4.641c0,1.627-0.321,3.164-0.788,4.635c1.472-0.467,3.009-0.788,4.636-0.788
					s3.165,0.321,4.638,0.789c-0.468-1.472-0.788-3.009-0.788-4.636C626.149,753.002,626.47,751.462,626.939,749.989z"/>
			</g>
		</g>
		<g>
			<g>
				<path fill="none" d="M607.696,740.027c-0.469-1.474-0.79-3.013-0.79-4.642c0-1.627,0.321-3.164,0.789-4.636
					c-1.473,0.468-3.011,0.789-4.639,0.789c-1.626,0-3.164-0.321-4.636-0.788c0.468,1.472,0.789,3.009,0.789,4.635
					c0,1.629-0.322,3.168-0.791,4.641c1.472-0.468,3.01-0.789,4.638-0.789C604.683,739.238,606.222,739.559,607.696,740.027z"/>
			</g>
		</g>
		<g>
			<g>
				<path fill="none" d="M444.477,778.513c1.472-0.468,3.01-0.789,4.638-0.789c1.063,0,2.101,0.108,3.103,0.313
					c0.533,0.109,1.026,0.314,1.537,0.477c-0.469-1.474-0.791-3.013-0.791-4.642c0-1.627,0.321-3.164,0.789-4.636
					c-0.511,0.162-1.003,0.368-1.535,0.476c-1.003,0.205-2.04,0.313-3.103,0.313c-1.626,0-3.164-0.321-4.636-0.788
					c0.468,1.472,0.789,3.009,0.789,4.635C445.267,775.5,444.945,777.04,444.477,778.513z"/>
			</g>
		</g>
		<g>
			<g>
				<path fill="none" d="M482.96,740.027c1.473-0.468,3.012-0.79,4.641-0.79c1.627,0,3.165,0.321,4.637,0.789
					c-0.469-1.473-0.79-3.013-0.79-4.642c0-1.627,0.321-3.164,0.789-4.636c-1.472,0.468-3.009,0.789-4.636,0.789
					c-1.628,0-3.167-0.321-4.639-0.789c0.468,1.472,0.789,3.009,0.789,4.636C483.751,737.014,483.43,738.554,482.96,740.027z"/>
			</g>
		</g>
		<g>
			<g>
				<path fill="none" d="M598.42,769.236c0.468,1.472,0.789,3.009,0.789,4.635c0,1.629-0.322,3.168-0.791,4.641
					c1.472-0.468,3.01-0.789,4.638-0.789c1.628,0,3.167,0.321,4.64,0.79c-0.469-1.474-0.79-3.013-0.79-4.642
					c0-1.627,0.321-3.164,0.788-4.636c-1.472,0.468-3.011,0.789-4.638,0.789C601.429,770.025,599.891,769.704,598.42,769.236z"/>
			</g>
		</g>
		<g>
			<g>
				<path fill="none" d="M656.147,759.267c1.472-0.468,3.011-0.789,4.638-0.789c1.626,0,3.164,0.321,4.636,0.789
					c-0.468-1.472-0.789-3.009-0.789-4.636c0-1.629,0.322-3.168,0.791-4.641c-1.472,0.468-3.01,0.789-4.638,0.789
					c-1.628,0-3.167-0.321-4.64-0.789c0.469,1.474,0.791,3.013,0.791,4.642C656.936,756.258,656.615,757.795,656.147,759.267z"/>
			</g>
		</g>
		<g>
			<g>
				<path fill="none" d="M680.026,770.025c-1.627,0-3.164-0.321-4.636-0.788c0.467,1.472,0.788,3.009,0.788,4.635
					c0,1.629-0.322,3.168-0.79,4.641c1.472-0.468,3.01-0.789,4.638-0.789c1.063,0,2.101,0.108,3.103,0.313
					c0.533,0.109,1.026,0.314,1.537,0.477c-0.469-1.474-0.79-3.013-0.79-4.642c0-1.627,0.321-3.164,0.788-4.636
					c-0.51,0.162-1.003,0.368-1.535,0.476C682.127,769.917,681.089,770.025,680.026,770.025z"/>
			</g>
		</g>
		<g>
			<g>
				<path fill="none" d="M694.634,759.266c1.471-0.467,3.008-0.788,4.636-0.788s3.165,0.321,4.638,0.789
					c-0.468-1.472-0.788-3.009-0.788-4.636c0-1.629,0.321-3.169,0.79-4.642c-1.473,0.468-3.012,0.79-4.639,0.79
					c-1.627,0-3.166-0.321-4.638-0.789c0.469,1.473,0.79,3.012,0.79,4.641C695.422,756.258,695.101,757.795,694.634,759.266z"/>
			</g>
		</g>
		<g>
			<g>
				<path fill="none" d="M646.178,769.236c-1.472,0.467-3.009,0.789-4.635,0.789c-1.628,0-3.166-0.321-4.638-0.789
					c0.468,1.472,0.788,3.009,0.788,4.636c0,1.629-0.322,3.168-0.79,4.642c1.473-0.468,3.011-0.79,4.64-0.79
					c1.627,0,3.164,0.321,4.637,0.789c-0.469-1.473-0.79-3.012-0.79-4.641C645.389,772.245,645.71,770.708,646.178,769.236z"/>
			</g>
		</g>
		<g>
			<g>
				<path fill="none" d="M569.207,769.236c-1.472,0.468-3.009,0.789-4.635,0.789c-1.628,0-3.166-0.321-4.638-0.789
					c0.468,1.472,0.788,3.009,0.788,4.636c0,1.629-0.322,3.168-0.79,4.642c1.473-0.468,3.011-0.79,4.64-0.79
					c1.627,0,3.165,0.321,4.637,0.789c-0.469-1.473-0.79-3.012-0.79-4.641C568.419,772.245,568.74,770.708,569.207,769.236z"/>
			</g>
		</g>
		<g>
			<g>
				<path fill="none" d="M492.236,769.236c-1.472,0.468-3.009,0.789-4.635,0.789c-1.628,0-3.166-0.321-4.639-0.789
					c0.468,1.472,0.788,3.009,0.788,4.636c0,1.629-0.321,3.168-0.79,4.642c1.473-0.468,3.012-0.79,4.641-0.79
					c1.627,0,3.165,0.321,4.637,0.789c-0.469-1.473-0.79-3.012-0.79-4.641C491.448,772.245,491.769,770.708,492.236,769.236z"/>
			</g>
		</g>
		<g>
			<g>
				<path fill="#0D0000" d="M760.847,735.385c0,1.629,0.321,3.169,0.79,4.642c0.758,0.241,1.489,0.524,2.19,0.874
					c2.085-3.841,4.093-7.711,5.954-11.631c-0.997-0.469-2.004-0.869-3.002-1.329c-1.505,1.249-3.236,2.201-5.143,2.808
					C761.168,732.221,760.847,733.758,760.847,735.385z"/>
			</g>
		</g>
		<g>
			<g>
				<path fill="#0D0000" d="M756.997,739.238v13.4c2.385-3.868,4.678-7.774,6.83-11.736c-0.701-0.35-1.432-0.633-2.19-0.874
					C760.164,739.559,758.625,739.238,756.997,739.238z"/>
			</g>
		</g>
		<g>
			<g>
				<path fill="#0D0000" d="M756.997,731.538c1.628,0,3.166-0.321,4.639-0.789c1.908-0.606,3.638-1.559,5.143-2.808
					c-3.254-1.496-6.515-2.933-9.782-4.328V731.538z"/>
			</g>
		</g>
		<g>
			<g>
				<path fill="#0D0000" d="M694.633,711.503c1.471,0.468,3.009,0.789,4.637,0.789s3.166-0.322,4.638-0.79
					c0.645-2.029,1.679-3.863,3.045-5.43c-7.536-2.094-15.08-3.974-22.627-5.626c0.089,0.375,0.224,0.729,0.339,1.093
					c0.451,0.143,0.922,0.238,1.353,0.42C690.134,703.701,693.267,707.209,694.633,711.503z"/>
			</g>
		</g>
		<g>
			<g>
				<path fill="#0D0000" d="M703.119,716.139c0,0.002,0,0.003,0,0.005h30.786c0-0.002,0.001-0.003,0.001-0.005
					c0-0.553-0.106-1.076-0.163-1.614c-8.904-3.155-17.839-5.965-26.79-8.453c-1.366,1.567-2.401,3.401-3.045,5.43
					C703.441,712.975,703.119,714.512,703.119,716.139z"/>
			</g>
		</g>
		<g>
			<g>
				<path fill="#0D0000" d="M695.422,716.145c0-0.002,0-0.003,0-0.005c0-1.627-0.321-3.164-0.789-4.636
					c-1.366-4.295-4.499-7.803-8.614-9.543c-0.431-0.182-0.902-0.277-1.353-0.42c-0.511-0.163-1.004-0.368-1.537-0.477
					c-1.002-0.205-2.04-0.313-3.103-0.313v15.394H695.422z"/>
			</g>
		</g>
		<g>
			<g>
				<path fill="#0D0000" d="M713.874,769.236c-4.749-1.509-8.46-5.219-9.967-9.968c-1.472-0.468-3.01-0.789-4.638-0.789
					s-3.164,0.321-4.636,0.788c-1.509,4.749-5.221,8.46-9.97,9.969c-0.467,1.472-0.788,3.009-0.788,4.636
					c0,1.629,0.322,3.168,0.79,4.642c0.451,0.143,0.922,0.238,1.353,0.42c4.115,1.74,7.248,5.248,8.614,9.543
					c1.471,0.468,3.009,0.789,4.637,0.789s3.166-0.322,4.638-0.79c1.365-4.295,4.496-7.802,8.611-9.542
					c0.432-0.182,0.903-0.277,1.354-0.42c0.469-1.474,0.79-3.013,0.79-4.642C714.663,772.245,714.342,770.708,713.874,769.236z"/>
			</g>
		</g>
		<g>
			<g>
				<path fill="#0D0000" d="M742.813,760.624c-0.183-0.432-0.278-0.905-0.421-1.357c-1.471-0.468-3.009-0.789-4.636-0.789
					c-1.628,0-3.166,0.321-4.638,0.789c-1.508,4.749-5.221,8.461-9.969,9.969c-0.468,1.472-0.789,3.009-0.789,4.636
					c0,1.629,0.322,3.168,0.791,4.641c0.451,0.143,0.922,0.238,1.354,0.42c3.389,1.433,6.104,4.077,7.738,7.353
					c5.489-6.3,10.606-12.824,15.387-19.517C745.549,765.16,743.851,763.079,742.813,760.624z"/>
			</g>
		</g>
		<g>
			<g>
				<path fill="#0D0000" d="M694.632,720.785c-1.509,4.746-5.22,8.456-9.968,9.964c-0.468,1.472-0.788,3.009-0.788,4.636
					c0,1.629,0.322,3.169,0.79,4.642c4.746,1.509,8.456,5.217,9.966,9.963c1.472,0.468,3.01,0.789,4.638,0.789
					c1.628,0,3.166-0.322,4.639-0.79c1.508-4.745,5.217-8.453,9.963-9.962c0.469-1.474,0.79-3.013,0.79-4.642
					c0-1.627-0.321-3.164-0.789-4.636c-4.747-1.508-8.456-5.217-9.965-9.963c-1.473-0.468-3.012-0.789-4.639-0.789
					C697.643,719.997,696.105,720.318,694.632,720.785z"/>
			</g>
		</g>
		<g>
			<g>
				<path fill="#0D0000" d="M723.149,730.749c-0.468,1.472-0.789,3.009-0.789,4.636c0,1.629,0.322,3.168,0.791,4.642
					c4.745,1.508,8.456,5.217,9.965,9.963c1.473,0.468,3.012,0.79,4.64,0.79c1.627,0,3.165-0.321,4.638-0.789
					c0.143-0.45,0.237-0.921,0.419-1.351c1.74-4.115,5.249-7.247,9.546-8.612c0.469-1.473,0.79-3.013,0.79-4.641
					c0-1.627-0.321-3.164-0.789-4.635c-4.298-1.365-7.807-4.497-9.548-8.613c-0.182-0.431-0.277-0.902-0.419-1.352
					c-1.472-0.467-3.01-0.788-4.638-0.788c-1.628,0-3.167,0.321-4.64,0.789C731.606,725.532,727.895,729.241,723.149,730.749z"/>
			</g>
		</g>
		<g>
			<g>
				<path fill="#0D0000" d="M724.504,778.933c-0.432-0.182-0.903-0.277-1.354-0.42c-1.472-0.468-3.01-0.789-4.638-0.789
					c-1.629,0-3.168,0.321-4.64,0.79c-0.451,0.143-0.922,0.238-1.354,0.42c-4.115,1.74-7.245,5.248-8.611,9.542
					c-0.468,1.472-0.789,3.01-0.789,4.637c0,0.002,0,0.003,0,0.005h22.903c2.108-2.255,4.205-4.518,6.22-6.831
					C730.608,783.01,727.893,780.366,724.504,778.933z"/>
			</g>
		</g>
		<g>
			<g>
				<path fill="#0D0000" d="M752.359,740.026c-4.298,1.365-7.806,4.497-9.546,8.612c-0.182,0.431-0.276,0.902-0.419,1.351
					c-0.469,1.473-0.79,3.012-0.79,4.641c0,1.627,0.321,3.164,0.788,4.636c0.143,0.451,0.238,0.925,0.421,1.357
					c1.038,2.455,2.736,4.537,4.816,6.146c3.304-4.625,6.414-9.344,9.368-14.132v-13.4
					C755.369,739.238,753.831,739.559,752.359,740.026z"/>
			</g>
		</g>
		<g>
			<g>
				<path fill="#0D0000" d="M713.872,740.027c-4.746,1.509-8.455,5.216-9.963,9.962c-0.469,1.474-0.79,3.013-0.79,4.642
					c0,1.627,0.32,3.164,0.788,4.636c1.508,4.749,5.218,8.459,9.967,9.968c1.472,0.468,3.01,0.789,4.638,0.789
					c1.626,0,3.164-0.321,4.636-0.789c4.748-1.508,8.461-5.22,9.969-9.969c0.468-1.472,0.789-3.009,0.789-4.636
					c0-1.629-0.322-3.168-0.791-4.642c-1.509-4.746-5.22-8.454-9.965-9.963c-1.472-0.468-3.01-0.789-4.638-0.789
					C716.884,739.238,715.345,739.559,713.872,740.027z"/>
			</g>
		</g>
		<g>
			<g>
				<path fill="#0D0000" d="M680.026,777.724v15.394h15.396c0-0.002,0-0.003,0-0.005c0-1.627-0.321-3.164-0.789-4.636
					c-1.366-4.295-4.499-7.803-8.614-9.543c-0.431-0.182-0.902-0.277-1.353-0.42c-0.511-0.163-1.004-0.368-1.537-0.477
					C682.127,777.832,681.089,777.724,680.026,777.724z"/>
			</g>
		</g>
		<g>
			<g>
				<path fill="#0D0000" d="M680.026,739.238v30.787c1.063,0,2.101-0.108,3.103-0.313c0.532-0.109,1.025-0.314,1.535-0.476
					c4.749-1.509,8.461-5.22,9.97-9.969c0.467-1.472,0.788-3.009,0.788-4.635c0-1.629-0.321-3.168-0.79-4.641
					c-1.51-4.745-5.22-8.454-9.966-9.963c-0.511-0.163-1.004-0.368-1.537-0.477C682.127,739.345,681.089,739.238,680.026,739.238z"
					/>
			</g>
		</g>
		<g>
			<g>
				<path fill="#0D0000" d="M752.361,730.75c1.472,0.467,3.009,0.788,4.636,0.788v-7.925c-5.072-2.167-10.159-4.201-15.259-6.132
					c0.1,1.145,0.319,2.245,0.656,3.304c0.143,0.45,0.237,0.921,0.419,1.352C744.553,726.253,748.063,729.385,752.361,730.75z"/>
			</g>
		</g>
		<g>
			<g>
				<path fill="#0D0000" d="M703.119,716.145c0,1.629,0.321,3.168,0.79,4.642c1.508,4.746,5.217,8.455,9.965,9.963
					c1.473,0.468,3.011,0.789,4.639,0.789c1.626,0,3.164-0.321,4.636-0.789c4.746-1.508,8.458-5.217,9.967-9.964
					c0.469-1.473,0.791-3.012,0.791-4.641h-0.001H703.119L703.119,716.145z"/>
			</g>
		</g>
		<g>
			<g>
				<path fill="#0D0000" d="M680.026,731.538c1.063,0,2.101-0.108,3.103-0.313c0.532-0.109,1.025-0.314,1.535-0.476
					c4.748-1.508,8.459-5.218,9.968-9.964c0.469-1.473,0.79-3.012,0.79-4.64l0,0h-15.396V731.538z"/>
			</g>
		</g>
		<g>
			<g>
				<path fill="#0D0000" d="M703.909,797.759c-1.473-0.468-3.012-0.789-4.639-0.789c-1.627,0-3.165,0.321-4.638,0.788
					c-1.509,4.747-5.22,8.456-9.968,9.964c-0.468,1.472-0.788,3.009-0.788,4.636c0,1.629,0.322,3.169,0.79,4.642
					c3.371,1.071,6.26,3.209,8.18,6.094c6.686-5.11,13.074-10.473,19.152-16.075C708.147,805.211,705.213,801.863,703.909,797.759z"
					/>
			</g>
		</g>
		<g>
			<g>
				<path fill="#0D0000" d="M684.666,817c-0.511-0.163-1.004-0.368-1.537-0.477c-1.002-0.205-2.04-0.313-3.103-0.313v16.13
					c4.391-2.973,8.656-6.065,12.82-9.247C690.926,820.209,688.037,818.072,684.666,817z"/>
			</g>
		</g>
		<g>
			<g>
				<path fill="#0D0000" d="M703.119,793.118c0,1.629,0.321,3.168,0.79,4.642c1.304,4.104,4.238,7.452,8.089,9.26
					c4.874-4.493,9.556-9.124,14.024-13.901H703.119L703.119,793.118z"/>
			</g>
		</g>
		<g>
			<g>
				<path fill="#0D0000" d="M695.422,793.118h-15.396v15.394c1.063,0,2.101-0.108,3.103-0.313c0.532-0.109,1.025-0.314,1.535-0.476
					c4.748-1.508,8.459-5.218,9.968-9.964C695.101,796.285,695.422,794.746,695.422,793.118L695.422,793.118z"/>
			</g>
		</g>
		<g>
			<g>
				<path fill="#0D0000" d="M606.905,696.899c0,1.629,0.322,3.168,0.79,4.642c0.451,0.143,0.922,0.238,1.353,0.42
					c4.116,1.74,7.248,5.248,8.614,9.543c1.472,0.468,3.01,0.789,4.637,0.789s3.166-0.322,4.638-0.79
					c1.365-4.295,4.496-7.802,8.611-9.542c0.432-0.182,0.903-0.277,1.354-0.42c0.469-1.474,0.79-3.013,0.79-4.642
					c0-1.454-0.266-2.832-0.642-4.165c-8.678-0.939-17.315-1.56-25.921-2.021c-1.064,0.659-2.219,1.163-3.435,1.549
					C607.227,693.734,606.905,695.272,606.905,696.899z"/>
			</g>
		</g>
		<g>
			<g>
				<path fill="#0D0000" d="M656.146,711.503c1.473,0.468,3.011,0.789,4.639,0.789c1.627,0,3.164-0.321,4.637-0.789
					c1.365-4.295,4.496-7.803,8.612-9.543c0.432-0.182,0.904-0.277,1.355-0.421c0.287-0.902,0.488-1.832,0.605-2.799
					c-10.115-2.004-20.217-3.63-30.295-4.913c-0.201,0.992-0.309,2.018-0.309,3.07c0,1.629,0.321,3.168,0.79,4.641
					c0.451,0.143,0.923,0.238,1.354,0.42C651.648,703.7,654.78,707.208,656.146,711.503z"/>
			</g>
		</g>
		<g>
			<g>
				<path fill="#0D0000" d="M665.422,711.503c-0.468,1.472-0.79,3.009-0.79,4.636c0,0.002,0.001,0.003,0.001,0.005h15.393v-15.394
					c-1.627,0-3.166,0.321-4.638,0.789c-0.451,0.143-0.923,0.238-1.355,0.421C669.918,703.701,666.787,707.208,665.422,711.503z"/>
			</g>
		</g>
		<g>
			<g>
				<path fill="#0D0000" d="M626.938,711.503c-0.468,1.472-0.789,3.01-0.789,4.637c0,0.002,0,0.003,0,0.005h30.786
					c0-0.002,0.001-0.003,0.001-0.005c0-1.627-0.321-3.164-0.79-4.636c-1.366-4.295-4.498-7.803-8.613-9.543
					c-0.432-0.182-0.904-0.277-1.354-0.42c-1.472-0.468-3.01-0.789-4.637-0.789c-1.629,0-3.168,0.321-4.64,0.79
					c-0.451,0.143-0.922,0.238-1.354,0.42C631.434,703.7,628.303,707.208,626.938,711.503z"/>
			</g>
		</g>
		<g>
			<g>
				<path fill="#0D0000" d="M603.055,716.145h15.396c0-0.002,0-0.003,0-0.005c0-1.627-0.321-3.164-0.789-4.636
					c-1.366-4.295-4.498-7.803-8.614-9.543c-0.431-0.182-0.902-0.277-1.353-0.42c-1.473-0.468-3.012-0.79-4.64-0.79V716.145z"/>
			</g>
		</g>
		<g>
			<g>
				<path fill="#0D0000" d="M607.694,692.263c1.216-0.386,2.371-0.89,3.435-1.549c-2.692-0.144-5.39-0.319-8.074-0.419v2.758
					C604.683,693.052,606.221,692.73,607.694,692.263z"/>
			</g>
		</g>
		<g>
			<g>
				<path fill="#0D0000" d="M635.548,778.933c0.432-0.182,0.903-0.277,1.354-0.42c0.469-1.474,0.79-3.013,0.79-4.642
					c0-1.627-0.321-3.164-0.788-4.636c-4.749-1.509-8.459-5.22-9.967-9.969c-1.472-0.468-3.01-0.789-4.638-0.789
					s-3.164,0.321-4.636,0.788c-1.509,4.749-5.22,8.46-9.969,9.969c-0.467,1.472-0.788,3.009-0.788,4.636
					c0,1.629,0.322,3.168,0.79,4.642c0.451,0.143,0.922,0.238,1.353,0.42c4.116,1.74,7.248,5.248,8.614,9.543
					c1.472,0.468,3.01,0.789,4.637,0.789s3.166-0.322,4.638-0.79C628.303,784.181,631.434,780.673,635.548,778.933z"/>
			</g>
		</g>
		<g>
			<g>
				<path fill="#0D0000" d="M674.034,778.933c0.432-0.182,0.904-0.277,1.355-0.421c0.469-1.473,0.79-3.012,0.79-4.641
					c0-1.627-0.321-3.164-0.788-4.635c-4.75-1.508-8.461-5.22-9.969-9.97c-1.472-0.468-3.009-0.789-4.636-0.789
					c-1.628,0-3.166,0.321-4.638,0.789c-1.508,4.749-5.221,8.46-9.969,9.969c-0.467,1.472-0.788,3.009-0.788,4.636
					c0,1.629,0.321,3.168,0.79,4.641c0.451,0.143,0.923,0.238,1.354,0.42c4.115,1.74,7.247,5.248,8.613,9.543
					c1.473,0.468,3.011,0.789,4.639,0.789c1.627,0,3.164-0.321,4.637-0.789C666.787,784.182,669.918,780.674,674.034,778.933z"/>
			</g>
		</g>
		<g>
			<g>
				<path fill="#0D0000" d="M607.694,730.749c-0.468,1.472-0.789,3.009-0.789,4.636c0,1.629,0.322,3.169,0.79,4.642
					c4.746,1.509,8.456,5.217,9.966,9.963c1.472,0.468,3.01,0.789,4.638,0.789s3.166-0.322,4.639-0.79
					c1.508-4.745,5.217-8.453,9.963-9.962c0.469-1.474,0.79-3.013,0.79-4.642c0-1.627-0.321-3.164-0.789-4.636
					c-4.747-1.508-8.456-5.217-9.965-9.963c-1.473-0.468-3.012-0.789-4.639-0.789c-1.627,0-3.165,0.321-4.638,0.788
					C616.152,725.532,612.442,729.241,607.694,730.749z"/>
			</g>
		</g>
		<g>
			<g>
				<path fill="#0D0000" d="M646.179,740.027c4.746,1.508,8.457,5.217,9.966,9.963c1.473,0.468,3.012,0.789,4.64,0.789
					c1.627,0,3.165-0.321,4.638-0.789c1.509-4.746,5.218-8.455,9.966-9.963c0.469-1.473,0.79-3.013,0.79-4.641
					c0-1.627-0.321-3.164-0.789-4.635c-4.748-1.508-8.458-5.217-9.968-9.964c-1.472-0.467-3.01-0.788-4.637-0.788
					c-1.628,0-3.167,0.321-4.64,0.789c-1.51,4.747-5.221,8.456-9.968,9.964c-0.468,1.472-0.789,3.009-0.789,4.636
					C645.389,737.014,645.71,738.553,646.179,740.027z"/>
			</g>
		</g>
		<g>
			<g>
				<path fill="#0D0000" d="M675.389,778.513c-0.451,0.143-0.923,0.238-1.355,0.421c-4.115,1.74-7.247,5.248-8.612,9.543
					c-0.468,1.472-0.79,3.009-0.79,4.636c0,0.002,0.001,0.003,0.001,0.005h15.393v-15.394
					C678.399,777.724,676.861,778.045,675.389,778.513z"/>
			</g>
		</g>
		<g>
			<g>
				<path fill="#0D0000" d="M656.936,793.113c0-1.627-0.321-3.164-0.79-4.636c-1.366-4.295-4.498-7.803-8.613-9.543
					c-0.432-0.182-0.904-0.277-1.354-0.42c-1.472-0.468-3.01-0.789-4.637-0.789c-1.629,0-3.168,0.321-4.64,0.79
					c-0.451,0.143-0.922,0.238-1.354,0.42c-4.115,1.74-7.245,5.248-8.611,9.542c-0.468,1.472-0.789,3.01-0.789,4.637
					c0,0.002,0,0.003,0,0.005h30.786C656.935,793.116,656.936,793.114,656.936,793.113z"/>
			</g>
		</g>
		<g>
			<g>
				<path fill="#0D0000" d="M665.421,759.267c1.508,4.75,5.22,8.461,9.969,9.97c1.472,0.467,3.009,0.788,4.636,0.788v-30.787
					c-1.627,0-3.166,0.321-4.638,0.789c-4.747,1.508-8.456,5.217-9.966,9.963c-0.469,1.473-0.791,3.012-0.791,4.641
					C664.632,756.258,664.953,757.795,665.421,759.267z"/>
			</g>
		</g>
		<g>
			<g>
				<path fill="#0D0000" d="M646.178,769.236c4.748-1.509,8.461-5.22,9.969-9.969c0.468-1.472,0.789-3.009,0.789-4.636
					c0-1.629-0.322-3.168-0.791-4.642c-1.509-4.746-5.22-8.455-9.966-9.963c-1.472-0.468-3.01-0.789-4.637-0.789
					c-1.629,0-3.168,0.321-4.64,0.79c-4.746,1.509-8.455,5.216-9.963,9.962c-0.469,1.474-0.79,3.013-0.79,4.642
					c0,1.627,0.32,3.164,0.788,4.636c1.508,4.749,5.218,8.46,9.967,9.969c1.472,0.468,3.01,0.789,4.638,0.789
					C643.169,770.025,644.706,769.704,646.178,769.236z"/>
			</g>
		</g>
		<g>
			<g>
				<path fill="#0D0000" d="M609.048,778.933c-0.431-0.182-0.902-0.277-1.353-0.42c-1.473-0.468-3.012-0.79-4.64-0.79v15.394h15.396
					c0-0.002,0-0.003,0-0.005c0-1.627-0.321-3.164-0.789-4.636C616.296,784.182,613.164,780.674,609.048,778.933z"/>
			</g>
		</g>
		<g>
			<g>
				<path fill="#0D0000" d="M617.661,749.99c-1.51-4.745-5.219-8.454-9.966-9.963c-1.473-0.468-3.012-0.79-4.64-0.79v30.787
					c1.628,0,3.166-0.321,4.638-0.789c4.75-1.509,8.461-5.22,9.969-9.969c0.467-1.472,0.788-3.009,0.788-4.635
					C618.452,753.002,618.13,751.463,617.661,749.99z"/>
			</g>
		</g>
		<g>
			<g>
				<path fill="#0D0000" d="M664.632,716.145c0,1.628,0.322,3.167,0.79,4.641c1.51,4.747,5.22,8.456,9.968,9.964
					c1.472,0.467,3.009,0.788,4.636,0.788v-15.394H664.632L664.632,716.145z"/>
			</g>
		</g>
		<g>
			<g>
				<path fill="#0D0000" d="M626.939,720.786c1.508,4.746,5.217,8.455,9.965,9.963c1.473,0.468,3.011,0.789,4.639,0.789
					c1.626,0,3.163-0.321,4.636-0.789c4.746-1.508,8.458-5.217,9.968-9.964c0.469-1.473,0.79-3.012,0.79-4.641h-0.001h-30.786l0,0
					C626.149,717.774,626.47,719.313,626.939,720.786z"/>
			</g>
		</g>
		<g>
			<g>
				<path fill="#0D0000" d="M603.055,731.538c1.628,0,3.166-0.321,4.639-0.789c4.747-1.508,8.458-5.217,9.968-9.964
					c0.469-1.473,0.79-3.012,0.79-4.641h0h-15.396V731.538z"/>
			</g>
		</g>
		<g>
			<g>
				<path fill="#0D0000" d="M637.692,850.845c0-1.627-0.321-3.164-0.788-4.636c-4.749-1.509-8.459-5.22-9.967-9.968
					c-1.472-0.468-3.01-0.789-4.638-0.789c-0.817,0-1.603,0.118-2.385,0.24c5.592,5.84,8.72,12.292,8.72,19.083
					c0,1.829-0.229,3.622-0.667,5.397c1.024-0.415,2.047-0.853,3.071-1.282c1.652-1.55,3.651-2.699,5.864-3.403
					C637.371,854.013,637.692,852.474,637.692,850.845z"/>
			</g>
		</g>
		<g>
			<g>
				<path fill="#0D0000" d="M660.785,835.451c-1.628,0-3.166,0.321-4.638,0.789c-1.508,4.749-5.221,8.461-9.969,9.969
					c-0.467,1.472-0.788,3.009-0.788,4.636c0,0.502,0.101,0.976,0.148,1.466c7.549-3.68,14.856-7.645,21.902-11.884
					c-0.888-1.264-1.541-2.683-2.018-4.187C663.949,835.772,662.412,835.451,660.785,835.451z"/>
			</g>
		</g>
		<g>
			<g>
				<path fill="#0D0000" d="M636.902,817c0.469-1.474,0.79-3.013,0.79-4.642c0-1.627-0.321-3.164-0.788-4.636
					c-4.748-1.508-8.457-5.217-9.965-9.963c-1.473-0.468-3.012-0.789-4.639-0.789c-1.627,0-3.165,0.321-4.638,0.788
					c-1.509,4.747-5.22,8.456-9.968,9.964c-0.468,1.472-0.788,3.009-0.788,4.636c0,1.629,0.322,3.169,0.79,4.642
					c4.746,1.509,8.456,5.217,9.966,9.963c1.472,0.468,3.01,0.789,4.638,0.789s3.166-0.322,4.639-0.79
					C628.448,822.217,632.156,818.509,636.902,817z"/>
			</g>
		</g>
		<g>
			<g>
				<path fill="#0D0000" d="M665.423,826.963c1.509-4.746,5.219-8.455,9.966-9.963c0.469-1.473,0.79-3.013,0.79-4.641
					c0-1.627-0.321-3.164-0.789-4.635c-4.748-1.508-8.458-5.218-9.968-9.965c-1.472-0.467-3.01-0.788-4.637-0.788
					c-1.628,0-3.167,0.321-4.64,0.789c-1.51,4.747-5.221,8.456-9.968,9.964c-0.468,1.472-0.788,3.009-0.788,4.635
					c0,1.629,0.321,3.168,0.79,4.642c4.746,1.508,8.457,5.217,9.966,9.963c1.473,0.468,3.012,0.789,4.64,0.789
					C662.413,827.752,663.951,827.431,665.423,826.963z"/>
			</g>
		</g>
		<g>
			<g>
				<path fill="#0D0000" d="M636.902,855.487c-2.213,0.703-4.212,1.853-5.864,3.403c0.714-0.3,1.428-0.586,2.142-0.895
					c2.333-1.004,4.601-2.091,6.892-3.149C638.976,854.951,637.919,855.163,636.902,855.487z"/>
			</g>
		</g>
		<g>
			<g>
				<path fill="#0D0000" d="M675.389,817c-4.747,1.508-8.456,5.217-9.966,9.963c-0.469,1.474-0.791,3.013-0.791,4.642
					c0,1.627,0.321,3.164,0.789,4.636c0.477,1.504,1.13,2.923,2.018,4.187c4.302-2.588,8.479-5.304,12.587-8.086v-16.13
					C678.399,816.211,676.861,816.532,675.389,817z"/>
			</g>
		</g>
		<g>
			<g>
				<path fill="#0D0000" d="M636.904,846.209c1.472,0.468,3.01,0.789,4.638,0.789c1.626,0,3.163-0.321,4.635-0.789
					c4.748-1.508,8.461-5.22,9.969-9.969c0.468-1.472,0.789-3.009,0.789-4.636c0-1.629-0.322-3.168-0.791-4.642
					c-1.509-4.746-5.22-8.455-9.966-9.963c-1.472-0.468-3.01-0.789-4.637-0.789c-1.629,0-3.168,0.321-4.64,0.79
					c-4.746,1.508-8.454,5.216-9.963,9.962c-0.469,1.474-0.79,3.013-0.79,4.643c0,1.627,0.32,3.164,0.788,4.636
					C628.445,840.989,632.155,844.7,636.904,846.209z"/>
			</g>
		</g>
		<g>
			<g>
				<path fill="#0D0000" d="M607.696,817c-1.473-0.468-3.012-0.79-4.64-0.79v7.327c6.001,3.145,11.119,6.654,15.156,10.453
					c0.123-0.783,0.24-1.569,0.24-2.386c0-1.629-0.321-3.168-0.79-4.641C616.151,822.218,612.442,818.509,607.696,817z"/>
			</g>
		</g>
		<g>
			<g>
				<path fill="#0D0000" d="M680.026,793.118h-15.393h-0.001c0,1.628,0.322,3.167,0.79,4.641c1.51,4.747,5.22,8.457,9.968,9.965
					c1.472,0.467,3.009,0.788,4.636,0.788V793.118z"/>
			</g>
		</g>
		<g>
			<g>
				<path fill="#0D0000" d="M646.178,807.723c4.747-1.508,8.458-5.218,9.968-9.964c0.469-1.473,0.79-3.012,0.79-4.641h-0.001
					h-30.786l0,0c0,1.629,0.321,3.168,0.79,4.642c1.508,4.746,5.217,8.455,9.965,9.963c1.472,0.468,3.01,0.789,4.638,0.789
					C643.169,808.512,644.706,808.19,646.178,807.723z"/>
			</g>
		</g>
		<g>
			<g>
				<path fill="#0D0000" d="M618.451,793.118h-15.396v15.394c1.628,0,3.166-0.321,4.638-0.789c4.748-1.508,8.459-5.217,9.968-9.964
					C618.13,796.285,618.452,794.746,618.451,793.118L618.451,793.118z"/>
			</g>
		</g>
		<g>
			<g>
				<path fill="#0D0000" d="M540.692,711.503c1.472,0.468,3.01,0.789,4.637,0.789c1.628,0,3.166-0.322,4.639-0.79
					c1.365-4.295,4.495-7.802,8.611-9.542c0.432-0.182,0.903-0.277,1.354-0.42c0.469-1.474,0.79-3.013,0.79-4.642
					c0-1.627-0.321-3.164-0.788-4.636c-1.262-0.401-2.463-0.923-3.56-1.617c-8.681,0.442-17.254,1.12-25.749,1.935
					c-0.405,1.378-0.69,2.808-0.69,4.317c0,1.629,0.322,3.168,0.79,4.642c0.451,0.143,0.922,0.238,1.353,0.42
					C536.193,703.701,539.326,707.209,540.692,711.503z"/>
			</g>
		</g>
		<g>
			<g>
				<path fill="#0D0000" d="M568.419,696.899c0,1.629,0.322,3.168,0.79,4.641c0.451,0.143,0.922,0.238,1.354,0.42
					c4.115,1.74,7.247,5.248,8.613,9.543c1.473,0.468,3.011,0.789,4.639,0.789c1.627,0,3.164-0.321,4.637-0.789
					c1.365-4.295,4.496-7.803,8.612-9.543c0.432-0.182,0.904-0.277,1.354-0.421c0.469-1.473,0.791-3.012,0.791-4.641
					c0-1.627-0.321-3.164-0.789-4.635c-1.586-0.504-3.064-1.221-4.381-2.178c-6.839-0.133-13.651-0.163-20.412-0.032
					c-1.327,0.971-2.817,1.701-4.419,2.21C568.74,693.735,568.419,695.272,568.419,696.899z"/>
			</g>
		</g>
		<g>
			<g>
				<path fill="#0D0000" d="M587.663,716.145h15.393v-15.394c-1.627,0-3.165,0.321-4.638,0.789
					c-0.451,0.143-0.923,0.238-1.354,0.421c-4.115,1.74-7.247,5.248-8.612,9.543c-0.468,1.472-0.79,3.009-0.79,4.636
					C587.662,716.141,587.663,716.143,587.663,716.145z"/>
			</g>
		</g>
		<g>
			<g>
				<path fill="#0D0000" d="M549.178,716.145h30.786c0-0.002,0.001-0.003,0.001-0.005c0-1.627-0.321-3.164-0.79-4.636
					c-1.366-4.295-4.498-7.803-8.613-9.543c-0.432-0.182-0.904-0.277-1.354-0.42c-1.472-0.468-3.01-0.789-4.637-0.789
					c-1.629,0-3.167,0.321-4.64,0.79c-0.451,0.143-0.922,0.238-1.354,0.42c-4.115,1.74-7.246,5.248-8.611,9.542
					c-0.468,1.472-0.789,3.01-0.789,4.637C549.178,716.141,549.178,716.143,549.178,716.145z"/>
			</g>
		</g>
		<g>
			<g>
				<path fill="#0D0000" d="M603.055,693.052v-2.758c-3.016-0.113-6.014-0.15-9.017-0.209c1.316,0.957,2.795,1.674,4.381,2.178
					C599.891,692.731,601.429,693.052,603.055,693.052z"/>
			</g>
		</g>
		<g>
			<g>
				<path fill="#0D0000" d="M564.572,693.052c1.626,0,3.163-0.321,4.635-0.789c1.602-0.509,3.092-1.239,4.419-2.21
					c-5.783,0.112-11.538,0.301-17.253,0.592c1.097,0.694,2.298,1.216,3.56,1.617C561.406,692.731,562.944,693.052,564.572,693.052z
					"/>
			</g>
		</g>
		<g>
			<g>
				<path fill="#0D0000" d="M541.481,716.145c0-0.002,0-0.003,0-0.005c0-1.627-0.321-3.164-0.789-4.636
					c-1.366-4.295-4.498-7.803-8.614-9.543c-0.431-0.182-0.902-0.277-1.353-0.42c-1.473-0.468-3.012-0.79-4.64-0.79v15.394H541.481z
					"/>
			</g>
		</g>
		<g>
			<g>
				<path fill="#0D0000" d="M529.294,692.706c-1.067,0.105-2.145,0.191-3.209,0.301v0.045
					C527.187,693.052,528.258,692.926,529.294,692.706z"/>
			</g>
		</g>
		<g>
			<g>
				<path fill="#0D0000" d="M559.933,769.236c-4.75-1.509-8.46-5.22-9.967-9.969c-1.472-0.468-3.011-0.789-4.638-0.789
					c-1.627,0-3.164,0.321-4.636,0.788c-1.509,4.749-5.22,8.46-9.969,9.969c-0.467,1.472-0.788,3.009-0.788,4.636
					c0,1.629,0.322,3.168,0.79,4.642c0.451,0.143,0.922,0.238,1.353,0.42c4.116,1.74,7.248,5.248,8.614,9.543
					c1.472,0.468,3.01,0.789,4.637,0.789c1.628,0,3.166-0.322,4.639-0.79c1.365-4.295,4.495-7.802,8.611-9.542
					c0.432-0.182,0.903-0.277,1.354-0.42c0.469-1.474,0.79-3.013,0.79-4.642C560.722,772.245,560.401,770.708,559.933,769.236z"/>
			</g>
		</g>
		<g>
			<g>
				<path fill="#0D0000" d="M597.063,778.933c0.432-0.182,0.904-0.277,1.354-0.421c0.469-1.473,0.791-3.012,0.791-4.641
					c0-1.627-0.321-3.164-0.789-4.635c-4.75-1.508-8.461-5.22-9.969-9.97c-1.472-0.468-3.009-0.789-4.636-0.789
					c-1.628,0-3.166,0.321-4.638,0.789c-1.508,4.749-5.221,8.461-9.969,9.969c-0.467,1.472-0.788,3.009-0.788,4.636
					c0,1.629,0.322,3.168,0.79,4.641c0.451,0.143,0.922,0.238,1.354,0.42c4.115,1.74,7.247,5.248,8.613,9.543
					c1.473,0.468,3.011,0.789,4.639,0.789c1.627,0,3.164-0.321,4.637-0.789C589.816,784.182,592.948,780.674,597.063,778.933z"/>
			</g>
		</g>
		<g>
			<g>
				<path fill="#0D0000" d="M530.725,740.027c4.746,1.509,8.456,5.217,9.966,9.963c1.472,0.468,3.01,0.789,4.638,0.789
					s3.167-0.322,4.64-0.79c1.508-4.745,5.217-8.453,9.963-9.962c0.469-1.474,0.79-3.013,0.79-4.642
					c0-1.627-0.321-3.164-0.789-4.636c-4.747-1.508-8.456-5.217-9.965-9.963c-1.473-0.468-3.012-0.789-4.639-0.789
					c-1.627,0-3.165,0.321-4.637,0.788c-1.509,4.746-5.22,8.455-9.968,9.964c-0.468,1.472-0.789,3.009-0.789,4.636
					C529.935,737.014,530.256,738.554,530.725,740.027z"/>
			</g>
		</g>
		<g>
			<g>
				<path fill="#0D0000" d="M569.207,730.749c-0.468,1.472-0.789,3.009-0.789,4.636c0,1.629,0.322,3.168,0.79,4.642
					c4.745,1.508,8.456,5.217,9.966,9.963c1.473,0.468,3.012,0.789,4.64,0.789c1.627,0,3.165-0.321,4.638-0.789
					c1.509-4.746,5.219-8.455,9.965-9.963c0.469-1.473,0.791-3.012,0.791-4.641c0-1.627-0.321-3.164-0.789-4.635
					c-4.748-1.508-8.458-5.218-9.968-9.964c-1.472-0.467-3.01-0.788-4.637-0.788c-1.628,0-3.167,0.321-4.64,0.789
					C577.665,725.532,573.954,729.241,569.207,730.749z"/>
			</g>
		</g>
		<g>
			<g>
				<path fill="#0D0000" d="M598.418,778.513c-0.451,0.143-0.923,0.238-1.354,0.421c-4.115,1.74-7.247,5.248-8.612,9.543
					c-0.468,1.472-0.79,3.009-0.79,4.636c0,0.002,0.001,0.003,0.001,0.005h15.393v-15.394
					C601.428,777.724,599.89,778.045,598.418,778.513z"/>
			</g>
		</g>
		<g>
			<g>
				<path fill="#0D0000" d="M579.965,793.113c0-1.627-0.321-3.164-0.79-4.636c-1.366-4.295-4.498-7.803-8.613-9.543
					c-0.432-0.182-0.904-0.277-1.354-0.42c-1.472-0.468-3.01-0.789-4.637-0.789c-1.629,0-3.167,0.321-4.64,0.79
					c-0.451,0.143-0.922,0.238-1.354,0.42c-4.115,1.74-7.246,5.248-8.611,9.542c-0.468,1.472-0.789,3.01-0.789,4.637
					c0,0.002,0,0.003,0,0.005h30.786C579.964,793.116,579.965,793.114,579.965,793.113z"/>
			</g>
		</g>
		<g>
			<g>
				<path fill="#0D0000" d="M603.055,739.238c-1.627,0-3.165,0.321-4.638,0.789c-4.746,1.508-8.456,5.217-9.965,9.963
					c-0.469,1.473-0.791,3.012-0.791,4.641c0,1.627,0.321,3.164,0.789,4.636c1.508,4.75,5.219,8.461,9.969,9.97
					c1.472,0.467,3.009,0.788,4.636,0.788V739.238z"/>
			</g>
		</g>
		<g>
			<g>
				<path fill="#0D0000" d="M579.175,749.99c-1.509-4.746-5.22-8.455-9.966-9.963c-1.472-0.468-3.01-0.789-4.637-0.789
					c-1.629,0-3.167,0.321-4.64,0.79c-4.746,1.509-8.455,5.216-9.963,9.962c-0.469,1.474-0.79,3.013-0.79,4.642
					c0,1.627,0.321,3.164,0.788,4.636c1.508,4.749,5.217,8.46,9.967,9.969c1.472,0.468,3.01,0.789,4.638,0.789
					c1.626,0,3.163-0.321,4.635-0.789c4.748-1.508,8.461-5.22,9.969-9.969c0.468-1.472,0.789-3.009,0.789-4.636
					C579.965,753.002,579.644,751.463,579.175,749.99z"/>
			</g>
		</g>
		<g>
			<g>
				<path fill="#0D0000" d="M541.481,793.113c0-1.627-0.321-3.164-0.789-4.636c-1.366-4.295-4.498-7.803-8.614-9.543
					c-0.431-0.182-0.902-0.277-1.353-0.42c-1.473-0.468-3.012-0.79-4.64-0.79v15.394h15.396
					C541.481,793.116,541.481,793.114,541.481,793.113z"/>
			</g>
		</g>
		<g>
			<g>
				<path fill="#0D0000" d="M540.691,749.99c-1.51-4.745-5.219-8.454-9.966-9.963c-1.473-0.468-3.012-0.79-4.64-0.79v30.787
					c1.628,0,3.166-0.321,4.638-0.789c4.75-1.509,8.461-5.22,9.969-9.969c0.467-1.472,0.788-3.009,0.788-4.635
					C541.481,753.002,541.159,751.463,540.691,749.99z"/>
			</g>
		</g>
		<g>
			<g>
				<path fill="#0D0000" d="M598.42,730.75c1.472,0.467,3.009,0.788,4.636,0.788v-15.394h-15.393h-0.001
					c0,1.628,0.322,3.167,0.79,4.641C589.962,725.532,593.672,729.241,598.42,730.75z"/>
			</g>
		</g>
		<g>
			<g>
				<path fill="#0D0000" d="M559.933,730.749c1.473,0.468,3.011,0.789,4.639,0.789c1.626,0,3.163-0.321,4.636-0.789
					c4.746-1.508,8.458-5.218,9.968-9.964c0.469-1.473,0.79-3.012,0.79-4.641h-0.001h-30.786h0c0,1.629,0.322,3.168,0.79,4.642
					C551.477,725.532,555.186,729.241,559.933,730.749z"/>
			</g>
		</g>
		<g>
			<g>
				<path fill="#0D0000" d="M526.085,731.538c1.628,0,3.166-0.321,4.639-0.789c4.747-1.508,8.458-5.217,9.968-9.964
					c0.469-1.473,0.79-3.012,0.79-4.641h0h-15.396V731.538z"/>
			</g>
		</g>
		<g>
			<g>
				<path fill="#0D0000" d="M549.968,797.759c-1.473-0.468-3.012-0.789-4.639-0.789c-1.627,0-3.165,0.321-4.637,0.788
					c-1.428,4.488-4.808,8.069-9.19,9.723c10.128,0.258,19.863,1.191,29.002,2.702c-0.121-0.848-0.317-1.663-0.569-2.46
					C555.186,806.214,551.477,802.505,549.968,797.759z"/>
			</g>
		</g>
		<g>
			<g>
				<path fill="#0D0000" d="M599.208,812.358c0-1.627-0.321-3.164-0.789-4.635c-4.748-1.508-8.458-5.218-9.968-9.965
					c-1.472-0.467-3.01-0.788-4.637-0.788c-1.628,0-3.167,0.321-4.64,0.789c-1.51,4.747-5.222,8.456-9.968,9.964
					c-0.402,1.264-0.66,2.583-0.721,3.965c9.295,1.958,17.844,4.531,25.404,7.611c1.355-1.011,2.88-1.776,4.527-2.3
					C598.886,815.526,599.208,813.987,599.208,812.358z"/>
			</g>
		</g>
		<g>
			<g>
				<path fill="#0D0000" d="M598.418,817c-1.648,0.523-3.172,1.288-4.527,2.3c3.246,1.323,6.305,2.739,9.165,4.238v-7.327
					C601.428,816.211,599.89,816.532,598.418,817z"/>
			</g>
		</g>
		<g>
			<g>
				<path fill="#0D0000" d="M603.055,793.118h-15.393h-0.001c0,1.628,0.322,3.167,0.79,4.641c1.51,4.747,5.22,8.456,9.968,9.965
					c1.471,0.467,3.009,0.788,4.636,0.788V793.118z"/>
			</g>
		</g>
		<g>
			<g>
				<path fill="#0D0000" d="M579.175,797.759c0.469-1.473,0.79-3.012,0.79-4.641h-0.001h-30.786h0c0,1.629,0.322,3.168,0.79,4.642
					c1.509,4.746,5.218,8.455,9.966,9.963c1.472,0.468,3.01,0.789,4.638,0.789c1.626,0,3.163-0.321,4.635-0.789
					C573.953,806.215,577.665,802.505,579.175,797.759z"/>
			</g>
		</g>
		<g>
			<g>
				<path fill="#0D0000" d="M540.691,797.758c0.469-1.473,0.79-3.012,0.79-4.641h0h-15.396v14.289
					c1.817,0.003,3.622,0.029,5.416,0.074C535.883,805.828,539.263,802.246,540.691,797.758z"/>
			</g>
		</g>
		<g>
			<g>
				<path fill="#0D0000" d="M463.721,711.503c1.472,0.468,3.01,0.789,4.637,0.789c1.628,0,3.166-0.322,4.639-0.79
					c1.365-4.295,4.495-7.802,8.611-9.542c0.431-0.182,0.903-0.277,1.353-0.42c0.269-0.844,0.466-1.711,0.586-2.611
					c-8.597,1.49-17.031,3.125-25.298,4.884C460.815,705.717,462.732,708.392,463.721,711.503z"/>
			</g>
		</g>
		<g>
			<g>
				<path fill="#0D0000" d="M502.205,711.503c1.473,0.468,3.011,0.789,4.639,0.789c1.626,0,3.164-0.321,4.636-0.789
					c1.365-4.295,4.496-7.803,8.612-9.543c0.432-0.182,0.904-0.277,1.355-0.421c0.469-1.473,0.791-3.012,0.791-4.641
					c0-1.185-0.163-2.326-0.415-3.433c-10.274,1.139-20.385,2.522-30.306,4.116c0.062,1.38,0.32,2.697,0.722,3.959
					c0.451,0.143,0.922,0.238,1.354,0.42C497.707,703.7,500.839,707.208,502.205,711.503z"/>
			</g>
		</g>
		<g>
			<g>
				<path fill="#0D0000" d="M511.481,711.503c-0.468,1.472-0.789,3.009-0.789,4.636c0,0.002,0,0.003,0,0.005h15.393v-15.394
					c-1.627,0-3.165,0.321-4.638,0.789c-0.451,0.143-0.923,0.238-1.355,0.421C515.977,703.701,512.846,707.208,511.481,711.503z"/>
			</g>
		</g>
		<g>
			<g>
				<path fill="#0D0000" d="M472.997,711.503c-0.468,1.472-0.789,3.01-0.789,4.637c0,0.002,0,0.003,0,0.005h30.786
					c0-0.002,0-0.003,0-0.005c0-1.627-0.321-3.164-0.789-4.636c-1.366-4.295-4.498-7.803-8.613-9.543
					c-0.432-0.182-0.903-0.277-1.354-0.42c-1.472-0.468-3.01-0.789-4.637-0.789c-1.629,0-3.168,0.321-4.641,0.79
					c-0.45,0.143-0.922,0.238-1.353,0.42C477.492,703.7,474.362,707.208,472.997,711.503z"/>
			</g>
		</g>
		<g>
			<g>
				<path fill="#0D0000" d="M526.085,693.007c-0.076,0.008-0.153,0.014-0.229,0.022c0.078,0.001,0.151,0.023,0.229,0.023V693.007z"
					/>
			</g>
		</g>
		<g>
			<g>
				<path fill="#0D0000" d="M464.51,716.145c0-0.002,0-0.003,0-0.005c0-1.627-0.321-3.164-0.789-4.636
					c-0.99-3.112-2.906-5.787-5.473-7.691c-3.059,0.651-6.125,1.296-9.134,1.978v10.354H464.51z"/>
			</g>
		</g>
		<g>
			<g>
				<path fill="#0D0000" d="M482.962,769.236c-4.749-1.509-8.459-5.219-9.967-9.968c-1.472-0.468-3.011-0.789-4.638-0.789
					c-1.627,0-3.164,0.321-4.636,0.788c-1.509,4.749-5.221,8.46-9.969,9.969c-0.468,1.472-0.789,3.009-0.789,4.636
					c0,1.629,0.322,3.168,0.791,4.642c0.45,0.143,0.922,0.238,1.353,0.42c4.116,1.74,7.249,5.248,8.614,9.543
					c1.472,0.468,3.01,0.789,4.637,0.789c1.628,0,3.166-0.322,4.639-0.79c1.365-4.295,4.495-7.802,8.611-9.542
					c0.431-0.182,0.903-0.277,1.353-0.42c0.469-1.474,0.79-3.013,0.79-4.642C483.751,772.245,483.43,770.708,482.962,769.236z"/>
			</g>
		</g>
		<g>
			<g>
				<path fill="#0D0000" d="M521.449,769.236c-4.75-1.508-8.461-5.22-9.969-9.97c-1.472-0.467-3.009-0.789-4.635-0.789
					c-1.628,0-3.166,0.321-4.639,0.789c-1.509,4.749-5.221,8.461-9.969,9.969c-0.467,1.472-0.788,3.009-0.788,4.636
					c0,1.629,0.322,3.168,0.79,4.641c0.451,0.143,0.922,0.238,1.354,0.42c4.115,1.74,7.247,5.248,8.613,9.543
					c1.473,0.468,3.011,0.789,4.639,0.789c1.626,0,3.164-0.321,4.636-0.789c1.365-4.295,4.496-7.803,8.612-9.543
					c0.432-0.182,0.904-0.277,1.355-0.421c0.469-1.473,0.791-3.012,0.791-4.641C522.238,772.245,521.917,770.708,521.449,769.236z"
					/>
			</g>
		</g>
		<g>
			<g>
				<path fill="#0D0000" d="M463.72,749.99c1.472,0.468,3.01,0.789,4.638,0.789c1.628,0,3.167-0.322,4.64-0.79
					c1.508-4.745,5.216-8.453,9.963-9.962c0.469-1.474,0.79-3.013,0.79-4.642c0-1.627-0.321-3.164-0.789-4.636
					c-4.747-1.508-8.456-5.217-9.965-9.963c-1.473-0.468-3.012-0.789-4.639-0.789c-1.627,0-3.165,0.321-4.637,0.788
					c-1.509,4.746-5.221,8.456-9.968,9.964c-0.468,1.472-0.789,3.009-0.789,4.636c0,1.629,0.322,3.169,0.791,4.642
					C458.5,741.536,462.21,745.245,463.72,749.99z"/>
			</g>
		</g>
		<g>
			<g>
				<path fill="#0D0000" d="M492.238,740.027c4.745,1.508,8.456,5.217,9.966,9.963c1.473,0.468,3.012,0.789,4.64,0.789
					c1.627,0,3.164-0.321,4.637-0.789c1.509-4.746,5.219-8.455,9.966-9.963c0.469-1.473,0.791-3.013,0.791-4.641
					c0-1.627-0.321-3.164-0.789-4.635c-4.748-1.508-8.459-5.217-9.968-9.964c-1.472-0.467-3.01-0.788-4.637-0.788
					c-1.629,0-3.167,0.321-4.64,0.789c-1.509,4.746-5.221,8.456-9.967,9.964c-0.468,1.472-0.789,3.009-0.789,4.636
					C491.448,737.014,491.77,738.553,492.238,740.027z"/>
			</g>
		</g>
		<g>
			<g>
				<path fill="#0D0000" d="M521.447,778.513c-0.451,0.143-0.923,0.238-1.355,0.421c-4.115,1.74-7.246,5.248-8.612,9.543
					c-0.468,1.472-0.789,3.009-0.789,4.636c0,0.002,0,0.003,0,0.005h15.393v-15.394
					C524.457,777.724,522.919,778.045,521.447,778.513z"/>
			</g>
		</g>
		<g>
			<g>
				<path fill="#0D0000" d="M502.994,793.113c0-1.627-0.321-3.164-0.789-4.636c-1.366-4.295-4.498-7.803-8.613-9.543
					c-0.432-0.182-0.903-0.277-1.354-0.42c-1.472-0.468-3.01-0.789-4.637-0.789c-1.629,0-3.168,0.321-4.641,0.79
					c-0.45,0.143-0.922,0.238-1.353,0.42c-4.115,1.74-7.246,5.248-8.611,9.542c-0.468,1.472-0.789,3.01-0.789,4.637
					c0,0.002,0,0.003,0,0.005h30.786C502.994,793.116,502.994,793.114,502.994,793.113z"/>
			</g>
		</g>
		<g>
			<g>
				<path fill="#0D0000" d="M521.447,740.026c-4.747,1.508-8.457,5.217-9.966,9.963c-0.469,1.473-0.79,3.013-0.79,4.641
					c0,1.627,0.321,3.164,0.788,4.636c1.508,4.75,5.22,8.461,9.969,9.97c1.472,0.467,3.009,0.788,4.636,0.788v-30.787
					C524.457,739.238,522.919,739.559,521.447,740.026z"/>
			</g>
		</g>
		<g>
			<g>
				<path fill="#0D0000" d="M502.204,749.99c-1.509-4.746-5.22-8.455-9.966-9.963c-1.472-0.468-3.01-0.789-4.637-0.789
					c-1.629,0-3.168,0.321-4.641,0.79c-4.746,1.509-8.454,5.216-9.963,9.962c-0.469,1.474-0.79,3.013-0.79,4.642
					c0,1.627,0.321,3.164,0.788,4.636c1.508,4.749,5.217,8.459,9.967,9.968c1.473,0.468,3.011,0.789,4.639,0.789
					c1.626,0,3.163-0.321,4.635-0.789c4.748-1.508,8.46-5.22,9.969-9.969c0.468-1.472,0.788-3.009,0.788-4.636
					C502.994,753.002,502.673,751.463,502.204,749.99z"/>
			</g>
		</g>
		<g>
			<g>
				<path fill="#0D0000" d="M455.107,778.933c-0.431-0.182-0.903-0.277-1.353-0.42c-0.511-0.163-1.004-0.368-1.537-0.477
					c-1.003-0.205-2.04-0.313-3.103-0.313v15.394h15.396c0-0.002,0-0.003,0-0.005c0-1.627-0.321-3.164-0.789-4.636
					C462.356,784.182,459.223,780.674,455.107,778.933z"/>
			</g>
		</g>
		<g>
			<g>
				<path fill="#0D0000" d="M453.753,769.236c4.749-1.509,8.461-5.22,9.969-9.969c0.467-1.472,0.788-3.009,0.788-4.635
					c0-1.629-0.322-3.168-0.79-4.641c-1.51-4.745-5.22-8.454-9.966-9.963c-0.511-0.163-1.004-0.368-1.537-0.477
					c-1.003-0.205-2.04-0.313-3.103-0.313v30.787c1.063,0,2.101-0.108,3.103-0.313C452.75,769.603,453.242,769.398,453.753,769.236z
					"/>
			</g>
		</g>
		<g>
			<g>
				<path fill="#0D0000" d="M510.691,716.145c0,1.628,0.322,3.167,0.79,4.641c1.509,4.747,5.22,8.456,9.968,9.964
					c1.472,0.467,3.009,0.788,4.636,0.788v-15.394H510.691L510.691,716.145z"/>
			</g>
		</g>
		<g>
			<g>
				<path fill="#0D0000" d="M472.997,720.786c1.509,4.746,5.218,8.455,9.965,9.963c1.473,0.468,3.011,0.789,4.639,0.789
					c1.626,0,3.163-0.321,4.636-0.789c4.746-1.508,8.458-5.218,9.967-9.964c0.469-1.473,0.79-3.012,0.79-4.641h0h-30.786h0
					C472.207,717.774,472.529,719.313,472.997,720.786z"/>
			</g>
		</g>
		<g>
			<g>
				<path fill="#0D0000" d="M453.753,730.749c4.747-1.508,8.459-5.218,9.968-9.964c0.469-1.473,0.79-3.012,0.79-4.64h0h-15.396
					v15.394c1.063,0,2.101-0.108,3.103-0.313C452.75,731.117,453.242,730.911,453.753,730.749z"/>
			</g>
		</g>
		<g>
			<g>
				<path fill="#0D0000" d="M472.997,797.759c-1.473-0.468-3.012-0.789-4.639-0.789c-1.627,0-3.165,0.321-4.637,0.788
					c-1.509,4.747-5.221,8.456-9.968,9.964c-0.468,1.472-0.789,3.009-0.789,4.636c0,1.629,0.322,3.169,0.791,4.642
					c1.549,0.493,3.002,1.182,4.295,2.109c7.631-3.071,16.251-5.63,25.619-7.565c-0.071-1.331-0.319-2.602-0.707-3.822
					C478.215,806.214,474.506,802.505,472.997,797.759z"/>
			</g>
		</g>
		<g>
			<g>
				<path fill="#0D0000" d="M511.481,797.758c-1.472-0.467-3.01-0.788-4.637-0.788c-1.629,0-3.167,0.321-4.64,0.789
					c-1.509,4.747-5.221,8.456-9.968,9.964c-0.242,0.763-0.437,1.539-0.558,2.348c9.127-1.474,18.833-2.38,28.931-2.608
					C516.255,805.799,512.902,802.226,511.481,797.758z"/>
			</g>
		</g>
		<g>
			<g>
				<path fill="#0D0000" d="M452.218,816.523c-1.003-0.205-2.04-0.313-3.103-0.313v6.951c2.794-1.434,5.785-2.784,8.936-4.052
					c-1.294-0.927-2.746-1.616-4.295-2.109C453.243,816.838,452.75,816.632,452.218,816.523z"/>
			</g>
		</g>
		<g>
			<g>
				<path fill="#0D0000" d="M510.692,793.118L510.692,793.118c0,1.628,0.321,3.167,0.789,4.641c1.421,4.468,4.774,8.041,9.129,9.704
					c1.697-0.038,3.404-0.06,5.122-0.06c0.118,0,0.235,0.004,0.353,0.004v-14.289H510.692z"/>
			</g>
		</g>
		<g>
			<g>
				<path fill="#0D0000" d="M502.204,797.759c0.469-1.473,0.79-3.012,0.79-4.641h0h-30.786h0c0,1.629,0.322,3.168,0.79,4.642
					c1.509,4.746,5.218,8.455,9.965,9.963c1.473,0.468,3.011,0.789,4.639,0.789c1.626,0,3.163-0.321,4.635-0.789
					C496.983,806.215,500.695,802.505,502.204,797.759z"/>
			</g>
		</g>
		<g>
			<g>
				<path fill="#0D0000" d="M464.51,793.118h-15.396v15.394c1.063,0,2.101-0.108,3.103-0.313c0.532-0.109,1.024-0.314,1.535-0.476
					c4.747-1.508,8.459-5.218,9.968-9.964C464.189,796.285,464.511,794.746,464.51,793.118L464.51,793.118z"/>
			</g>
		</g>
		<g>
			<g>
				<path fill="#0D0000" d="M425.488,711.582c1.398,0.418,2.851,0.711,4.386,0.711c1.626,0,3.164-0.321,4.636-0.789
					c0.278-0.873,0.622-1.704,1.043-2.501C432.154,709.842,428.814,710.709,425.488,711.582z"/>
			</g>
		</g>
		<g>
			<g>
				<path fill="#0D0000" d="M449.114,705.791c-4.579,1.038-9.102,2.109-13.561,3.211c-0.421,0.797-0.766,1.629-1.043,2.501
					c-0.468,1.472-0.789,3.009-0.789,4.636c0,0.002,0,0.003,0,0.005h15.393V705.791z"/>
			</g>
		</g>
		<g>
			<g>
				<path fill="#0D0000" d="M426.024,716.139c0-1.578-0.307-3.07-0.748-4.503c-5.586,1.467-11.081,2.968-16.445,4.508h17.193
					C426.023,716.143,426.024,716.141,426.024,716.139z"/>
			</g>
		</g>
		<g>
			<g>
				<path fill="#0D0000" d="M386.75,788.477c1.472,0.468,3.01,0.789,4.637,0.789c1.628,0,3.166-0.322,4.639-0.79
					c1.365-4.295,4.495-7.802,8.611-9.542c0.431-0.182,0.903-0.277,1.354-0.42c0.469-1.474,0.79-3.013,0.79-4.642
					c0-1.627-0.321-3.164-0.788-4.636c-4.749-1.509-8.459-5.22-9.967-9.969c-1.472-0.468-3.011-0.789-4.638-0.789
					c-1.627,0-3.164,0.321-4.636,0.788c-1.508,4.749-5.22,8.46-9.969,9.969c-0.468,1.472-0.789,3.009-0.789,4.636
					c0,1.629,0.322,3.168,0.791,4.642c0.45,0.143,0.921,0.238,1.353,0.42C382.252,780.674,385.384,784.182,386.75,788.477z"/>
			</g>
		</g>
		<g>
			<g>
				<path fill="#0D0000" d="M443.122,778.933c0.432-0.182,0.904-0.277,1.355-0.421c0.469-1.473,0.791-3.012,0.791-4.641
					c0-1.627-0.321-3.164-0.789-4.635c-3.336-1.06-6.21-3.156-8.129-5.998c-0.813-1.204-1.391-2.559-1.84-3.972
					c-1.472-0.468-3.009-0.789-4.635-0.789c-1.628,0-3.166,0.321-4.638,0.789c-1.509,4.749-5.221,8.46-9.97,9.969
					c-0.467,1.472-0.788,3.009-0.788,4.636c0,1.629,0.321,3.168,0.79,4.641c0.451,0.143,0.923,0.238,1.354,0.42
					c4.115,1.74,7.247,5.248,8.613,9.543c1.473,0.468,3.011,0.789,4.639,0.789c1.626,0,3.164-0.321,4.636-0.789
					c0.449-1.411,1.027-2.765,1.839-3.967C438.009,782.053,440.359,780.102,443.122,778.933z"/>
			</g>
		</g>
		<g>
			<g>
				<path fill="#0D0000" d="M376.782,730.749c-0.468,1.472-0.789,3.009-0.789,4.636c0,1.629,0.322,3.169,0.791,4.642
					c4.746,1.509,8.456,5.217,9.965,9.963c1.472,0.468,3.01,0.789,4.638,0.789s3.167-0.322,4.64-0.79
					c1.508-4.745,5.217-8.453,9.963-9.962c0.469-1.474,0.79-3.013,0.79-4.642c0-1.627-0.321-3.164-0.789-4.636
					c-4.747-1.508-8.456-5.217-9.965-9.963c-0.449-0.143-0.884-0.317-1.349-0.418c-3.002,0.925-5.985,1.854-8.902,2.792
					C383.916,726.762,380.704,729.503,376.782,730.749z"/>
			</g>
		</g>
		<g>
			<g>
				<path fill="#0D0000" d="M415.266,730.749c-0.467,1.472-0.788,3.009-0.788,4.636c0,1.629,0.321,3.168,0.79,4.642
					c4.746,1.508,8.457,5.217,9.966,9.963c1.473,0.468,3.012,0.789,4.64,0.789c1.627,0,3.165-0.321,4.637-0.789
					c0.449-1.411,1.027-2.764,1.838-3.966c1.919-2.841,4.792-4.937,8.127-5.997c0.469-1.473,0.791-3.013,0.791-4.641
					c0-1.627-0.321-3.164-0.789-4.635c-3.336-1.06-6.21-3.156-8.129-5.998c-0.812-1.202-1.39-2.556-1.839-3.967
					c-1.472-0.467-3.01-0.788-4.637-0.788c-1.629,0-3.167,0.321-4.64,0.789C423.724,725.532,420.012,729.242,415.266,730.749z"/>
			</g>
		</g>
		<g>
			<g>
				<path fill="#0D0000" d="M444.477,778.513c-0.451,0.143-0.923,0.238-1.355,0.421c-2.763,1.168-5.113,3.119-6.772,5.576
					c-0.812,1.202-1.39,2.556-1.839,3.967c-0.468,1.472-0.789,3.009-0.789,4.636c0,0.002,0,0.003,0,0.005h15.393v-15.394
					C447.487,777.724,445.949,778.045,444.477,778.513z"/>
			</g>
		</g>
		<g>
			<g>
				<path fill="#0D0000" d="M416.622,778.933c-0.432-0.182-0.904-0.277-1.354-0.42c-1.472-0.468-3.01-0.789-4.637-0.789
					c-1.629,0-3.168,0.321-4.64,0.79c-0.451,0.143-0.922,0.238-1.354,0.42c-4.115,1.74-7.246,5.248-8.611,9.542
					c-0.468,1.472-0.789,3.01-0.789,4.637c0,0.002,0,0.003,0,0.005h30.786c0-0.002,0-0.003,0-0.005c0-1.627-0.321-3.164-0.789-4.636
					C423.869,784.181,420.737,780.673,416.622,778.933z"/>
			</g>
		</g>
		<g>
			<g>
				<path fill="#0D0000" d="M434.509,759.267c0.449,1.413,1.027,2.768,1.84,3.972c1.92,2.841,4.793,4.938,8.129,5.998
					c1.472,0.467,3.009,0.788,4.636,0.788v-30.787c-1.627,0-3.165,0.321-4.638,0.789c-3.335,1.06-6.208,3.156-8.127,5.997
					c-0.812,1.202-1.389,2.555-1.838,3.966c-0.469,1.473-0.79,3.012-0.79,4.641C433.721,756.258,434.042,757.795,434.509,759.267z"
					/>
			</g>
		</g>
		<g>
			<g>
				<path fill="#0D0000" d="M396.025,759.267c1.508,4.749,5.217,8.46,9.967,9.969c1.472,0.468,3.011,0.789,4.638,0.789
					c1.627,0,3.164-0.321,4.635-0.789c4.749-1.509,8.461-5.22,9.97-9.969c0.468-1.472,0.788-3.009,0.788-4.636
					c0-1.629-0.322-3.168-0.79-4.642c-1.509-4.746-5.22-8.455-9.966-9.963c-1.472-0.468-3.01-0.789-4.637-0.789
					c-1.629,0-3.168,0.321-4.64,0.79c-4.746,1.509-8.455,5.216-9.963,9.962c-0.469,1.474-0.79,3.013-0.79,4.642
					C395.237,756.258,395.558,757.796,396.025,759.267z"/>
			</g>
		</g>
		<g>
			<g>
				<path fill="#0D0000" d="M387.54,793.113c0-1.627-0.321-3.164-0.79-4.636c-1.366-4.295-4.498-7.803-8.614-9.543
					c-0.432-0.182-0.902-0.277-1.353-0.42c-1.473-0.468-3.012-0.79-4.64-0.79v15.394h15.395
					C387.539,793.116,387.54,793.114,387.54,793.113z"/>
			</g>
		</g>
		<g>
			<g>
				<path fill="#0D0000" d="M372.144,770.025c1.627,0,3.166-0.321,4.639-0.789c4.749-1.509,8.461-5.22,9.969-9.969
					c0.468-1.472,0.789-3.009,0.789-4.635c0-1.629-0.322-3.168-0.791-4.641c-1.509-4.745-5.219-8.454-9.965-9.963
					c-1.473-0.468-3.012-0.79-4.64-0.79V770.025z"/>
			</g>
		</g>
		<g>
			<g>
				<path fill="#0D0000" d="M444.478,730.75c1.472,0.467,3.009,0.788,4.636,0.788v-15.394h-15.393h0c0,1.628,0.322,3.167,0.79,4.641
					c0.449,1.411,1.027,2.765,1.839,3.967C438.269,727.593,441.142,729.69,444.478,730.75z"/>
			</g>
		</g>
		<g>
			<g>
				<path fill="#0D0000" d="M405.991,730.749c1.473,0.468,3.011,0.789,4.639,0.789c1.627,0,3.164-0.321,4.636-0.789
					c4.746-1.508,8.458-5.217,9.968-9.964c0.469-1.473,0.79-3.012,0.79-4.641h0h-17.193c-4.43,1.272-8.773,2.566-13.042,3.875
					c0.068,0.261,0.157,0.512,0.238,0.767C397.536,725.532,401.244,729.241,405.991,730.749z"/>
			</g>
		</g>
		<g>
			<g>
				<path fill="#0D0000" d="M372.144,731.538c1.628,0,3.166-0.321,4.639-0.789c3.922-1.246,7.134-3.987,8.993-7.59
					c-4.659,1.498-9.198,3.008-13.631,4.524V731.538z"/>
			</g>
		</g>
		<g>
			<g>
				<path fill="#0D0000" d="M396.025,836.241c-1.472-0.468-3.011-0.789-4.638-0.789c-1.627,0-3.164,0.321-4.636,0.788
					c-0.276,0.867-0.617,1.694-1.035,2.487c6.716,4.733,13.699,9.123,20.966,13.093c0.021-0.329,0.098-0.641,0.098-0.975
					c0-1.627-0.321-3.164-0.788-4.636C401.243,844.7,397.533,840.989,396.025,836.241z"/>
			</g>
		</g>
		<g>
			<g>
				<path fill="#0D0000" d="M415.265,846.209c-0.467,1.472-0.788,3.009-0.788,4.636c0,1.629,0.321,3.168,0.79,4.642
					c2.364,0.751,4.509,1.991,6.225,3.7c0.666,0.303,1.316,0.633,1.986,0.93c-0.43-1.756-0.649-3.53-0.649-5.342
					c0-6.817,3.152-13.291,8.784-19.148c-0.578-0.066-1.143-0.175-1.739-0.175c-1.628,0-3.166,0.321-4.638,0.789
					C423.726,840.989,420.014,844.701,415.265,846.209z"/>
			</g>
		</g>
		<g>
			<g>
				<path fill="#0D0000" d="M405.992,807.723c-4.747-1.508-8.456-5.217-9.965-9.963c-1.473-0.468-3.012-0.789-4.639-0.789
					c-1.627,0-3.165,0.321-4.638,0.788c-1.509,4.747-5.22,8.456-9.968,9.964c-0.468,1.472-0.789,3.009-0.789,4.636
					c0,1.629,0.322,3.169,0.791,4.642c4.746,1.509,8.456,5.217,9.965,9.963c1.472,0.468,3.01,0.789,4.638,0.789
					s3.167-0.322,4.64-0.79c1.508-4.745,5.217-8.453,9.963-9.962c0.469-1.474,0.79-3.013,0.79-4.642
					C406.78,810.731,406.459,809.194,405.992,807.723z"/>
			</g>
		</g>
		<g>
			<g>
				<path fill="#0D0000" d="M444.477,817c0.469-1.473,0.791-3.013,0.791-4.641c0-1.627-0.321-3.164-0.789-4.635
					c-3.336-1.06-6.21-3.157-8.129-5.998c-0.812-1.202-1.39-2.556-1.839-3.967c-1.472-0.467-3.01-0.788-4.637-0.788
					c-1.629,0-3.167,0.321-4.64,0.789c-1.509,4.747-5.221,8.456-9.968,9.964c-0.468,1.472-0.788,3.009-0.788,4.635
					c0,1.629,0.321,3.168,0.79,4.642c4.746,1.508,8.456,5.217,9.966,9.963c1.473,0.468,3.012,0.789,4.64,0.789
					c1.627,0,3.165-0.321,4.637-0.789c0.449-1.411,1.027-2.764,1.838-3.966C438.268,820.156,441.141,818.059,444.477,817z"/>
			</g>
		</g>
		<g>
			<g>
				<path fill="#0D0000" d="M412.573,854.893c2.936,1.492,5.908,2.925,8.92,4.293c-1.716-1.709-3.86-2.949-6.225-3.7
					C414.398,855.21,413.502,855.011,412.573,854.893z"/>
			</g>
		</g>
		<g>
			<g>
				<path fill="#0D0000" d="M444.477,817c-3.335,1.06-6.208,3.156-8.127,5.997c-0.812,1.202-1.389,2.555-1.838,3.966
					c-0.469,1.474-0.79,3.013-0.79,4.642c0,0.617,0.111,1.204,0.182,1.802c4.097-3.723,9.216-7.167,15.212-10.244v-6.951
					C447.487,816.211,445.949,816.532,444.477,817z"/>
			</g>
		</g>
		<g>
			<g>
				<path fill="#0D0000" d="M415.267,817c-1.472-0.468-3.01-0.789-4.637-0.789c-1.629,0-3.168,0.321-4.64,0.79
					c-4.746,1.508-8.455,5.216-9.963,9.962c-0.469,1.474-0.79,3.013-0.79,4.643c0,1.627,0.321,3.164,0.788,4.636
					c1.508,4.749,5.217,8.46,9.967,9.968c1.472,0.468,3.011,0.789,4.638,0.789c1.627,0,3.164-0.321,4.635-0.789
					c4.749-1.508,8.461-5.22,9.97-9.969c0.468-1.472,0.788-3.009,0.788-4.636c0-1.629-0.322-3.168-0.79-4.642
					C423.724,822.217,420.013,818.508,415.267,817z"/>
			</g>
		</g>
		<g>
			<g>
				<path fill="#0D0000" d="M387.54,831.604c0-1.629-0.322-3.168-0.791-4.641c-1.509-4.745-5.219-8.454-9.965-9.963
					c-1.473-0.468-3.012-0.79-4.64-0.79v12.108c4.373,3.65,8.902,7.118,13.573,10.409c0.418-0.793,0.759-1.62,1.035-2.487
					C387.219,834.768,387.54,833.231,387.54,831.604z"/>
			</g>
		</g>
		<g>
			<g>
				<path fill="#0D0000" d="M449.114,793.118h-15.393h0c0,1.628,0.322,3.167,0.79,4.641c0.449,1.411,1.027,2.765,1.839,3.967
					c1.92,2.841,4.793,4.938,8.129,5.998c1.471,0.467,3.009,0.788,4.636,0.788V793.118z"/>
			</g>
		</g>
		<g>
			<g>
				<path fill="#0D0000" d="M426.023,793.118h-30.786h0c0,1.629,0.322,3.168,0.79,4.642c1.509,4.746,5.218,8.455,9.965,9.963
					c1.473,0.468,3.011,0.789,4.638,0.789c1.627,0,3.164-0.321,4.635-0.789c4.747-1.508,8.459-5.218,9.968-9.964
					C425.702,796.285,426.024,794.746,426.023,793.118L426.023,793.118z"/>
			</g>
		</g>
		<g>
			<g>
				<path fill="#0D0000" d="M387.539,793.118h-15.395v15.394c1.628,0,3.166-0.321,4.639-0.789c4.747-1.508,8.458-5.217,9.968-9.964
					C387.218,796.285,387.54,794.746,387.539,793.118L387.539,793.118z"/>
			</g>
		</g>
		<g>
			<g>
				<path fill="#0D0000" d="M320.805,763.074c2.547,5.226,5.334,10.276,8.293,15.189c0.419-1.4,0.712-2.854,0.712-4.391
					c0-1.627-0.321-3.164-0.788-4.636C325.625,768.157,322.724,765.991,320.805,763.074z"/>
			</g>
		</g>
		<g>
			<g>
				<polygon fill="#0D0000" points="319.053,759.267 319.058,759.277 319.054,759.267 				"/>
			</g>
		</g>
		<g>
			<g>
				<path fill="#0D0000" d="M348.263,788.476c1.473,0.468,3.012,0.789,4.64,0.789c1.626,0,3.164-0.321,4.636-0.789
					c1.365-4.295,4.496-7.803,8.612-9.543c0.432-0.182,0.904-0.277,1.355-0.421c0.469-1.473,0.79-3.012,0.79-4.641
					c0-1.627-0.321-3.164-0.788-4.635c-4.75-1.508-8.461-5.22-9.969-9.97c-1.472-0.468-3.009-0.789-4.635-0.789
					c-1.628,0-3.166,0.321-4.639,0.789c-1.509,4.749-5.221,8.461-9.969,9.969c-0.467,1.472-0.788,3.009-0.788,4.636
					c0,1.629,0.321,3.168,0.79,4.641c0.451,0.143,0.923,0.238,1.354,0.42C343.766,780.673,346.898,784.181,348.263,788.476z"/>
			</g>
		</g>
		<g>
			<g>
				<path fill="#0D0000" d="M314.913,749.786c0.12,0.303,0.253,0.602,0.374,0.905c1.311-0.075,2.565-0.32,3.768-0.702
					c0.264-0.83,0.586-1.623,0.98-2.385C318.313,748.335,316.554,749.075,314.913,749.786z"/>
			</g>
		</g>
		<g>
			<g>
				<path fill="#0D0000" d="M348.263,749.989c1.473,0.468,3.011,0.79,4.64,0.79c1.627,0,3.165-0.321,4.637-0.789
					c1.509-4.746,5.219-8.455,9.966-9.963c0.469-1.473,0.79-3.012,0.79-4.641c0-1.627-0.321-3.164-0.788-4.635
					c-0.682-0.216-1.345-0.455-1.982-0.76c-9.652,3.397-18.695,6.785-27.073,10.086C343.125,741.615,346.77,745.295,348.263,749.989
					z"/>
			</g>
		</g>
		<g>
			<g>
				<path fill="#0D0000" d="M356.751,793.118h15.393v-15.394c-1.627,0-3.165,0.321-4.638,0.789
					c-0.451,0.143-0.923,0.238-1.355,0.421c-4.115,1.74-7.246,5.248-8.612,9.543c-0.468,1.472-0.789,3.009-0.789,4.636
					C356.75,793.114,356.751,793.116,356.751,793.118z"/>
			</g>
		</g>
		<g>
			<g>
				<path fill="#0D0000" d="M349.053,793.113c0-1.627-0.321-3.164-0.789-4.636c-1.366-4.295-4.498-7.803-8.612-9.543
					c-0.432-0.182-0.904-0.277-1.354-0.42c-1.472-0.468-3.01-0.789-4.637-0.789c-1.558,0-3.033,0.3-4.45,0.73
					c3.055,5.061,6.33,9.944,9.796,14.663h10.047C349.053,793.116,349.053,793.114,349.053,793.113z"/>
			</g>
		</g>
		<g>
			<g>
				<path fill="#0D0000" d="M372.144,739.238c-1.627,0-3.165,0.321-4.638,0.789c-4.747,1.508-8.456,5.217-9.966,9.963
					c-0.469,1.473-0.79,3.012-0.79,4.641c0,1.627,0.321,3.164,0.788,4.636c1.508,4.75,5.22,8.461,9.969,9.97
					c1.471,0.467,3.009,0.788,4.636,0.788V739.238z"/>
			</g>
		</g>
		<g>
			<g>
				<path fill="#0D0000" d="M348.264,759.267c0.468-1.472,0.788-3.009,0.788-4.636c0-1.629-0.321-3.168-0.79-4.642
					c-1.493-4.694-5.138-8.374-9.81-9.914c-6.568,2.588-12.711,5.107-18.416,7.528c-0.394,0.762-0.717,1.555-0.98,2.385
					c-0.469,1.474-0.79,3.013-0.79,4.642c0,1.627,0.321,3.164,0.788,4.636c0.001,0.003,0.002,0.007,0.003,0.01
					c0.584,1.265,1.139,2.549,1.747,3.797c1.919,2.917,4.82,5.083,8.217,6.162c1.472,0.468,3.011,0.789,4.638,0.789
					c1.627,0,3.164-0.321,4.635-0.789C343.044,767.728,346.755,764.016,348.264,759.267z"/>
			</g>
		</g>
		<g>
			<g>
				<path fill="#0D0000" d="M372.144,731.538v-3.855c-2.246,0.768-4.432,1.537-6.617,2.306c0.636,0.305,1.3,0.544,1.982,0.76
					C368.979,731.217,370.517,731.538,372.144,731.538z"/>
			</g>
		</g>
		<g>
			<g>
				<path fill="#0D0000" d="M368.296,812.358c0-1.627-0.321-3.164-0.788-4.635c-4.748-1.508-8.458-5.218-9.968-9.965
					c-1.472-0.467-3.01-0.788-4.637-0.788c-1.629,0-3.168,0.321-4.64,0.789c-0.509,1.602-1.239,3.091-2.211,4.417
					c5.124,6.187,10.612,12.032,16.422,17.54c1.479-1.205,3.171-2.125,5.032-2.716C367.975,815.526,368.296,813.987,368.296,812.358
					z"/>
			</g>
		</g>
		<g>
			<g>
				<path fill="#0D0000" d="M367.506,817c-1.861,0.591-3.553,1.512-5.032,2.716c3.131,2.969,6.355,5.836,9.67,8.602v-12.108
					C370.516,816.211,368.978,816.532,367.506,817z"/>
			</g>
		</g>
		<g>
			<g>
				<path fill="#0D0000" d="M372.144,793.118h-15.393h0c0,1.628,0.322,3.167,0.79,4.641c1.51,4.747,5.22,8.456,9.968,9.965
					c1.471,0.467,3.009,0.788,4.636,0.788V793.118z"/>
			</g>
		</g>
		<g>
			<g>
				<path fill="#0D0000" d="M349.053,793.118L349.053,793.118h-10.047c2.27,3.09,4.61,6.117,7.046,9.058
					c0.971-1.326,1.701-2.816,2.211-4.417C348.732,796.286,349.053,794.746,349.053,793.118z"/>
			</g>
		</g>
	</g>
	<g>
		<g>
			<path fill="#FF9453" d="M464.447,584.941c0,0,8.232,71.346,64.943,22.867c56.711-48.479,53.967-96.043,53.967-96.043
				s-90.555-163.73-25.611-183.853c0,0,20.123-3.659,17.379,21.953c0,0,27.441-2.744,21.953,25.611c0,0,14.635-19.209,20.123,11.891
				s22.867,84.152,48.479,107.019c25.611,22.867-20.123,71.346-20.123,71.346s-36.588,190.256-152.754,172.877
				c0,0-73.175-8.232-96.043-85.066"/>
		</g>
		<g>
			<path fill="#0D0000" d="M507.431,741.668c-4.825,0-9.786-0.367-14.915-1.133c-0.673-0.074-74.653-9.26-97.621-86.438
				c-0.304-1.03,0.281-2.114,1.312-2.42c1.042-0.304,2.118,0.279,2.422,1.31c22.238,74.735,93.675,83.607,94.393,83.687
				c113.073,16.885,150.257-169.425,150.622-171.309c0.072-0.363,0.243-0.7,0.498-0.97c0.281-0.3,28.344-30.342,27.356-53.291
				c-0.262-6.15-2.658-11.286-7.114-15.265c-26.139-23.339-43.685-77.455-49.1-108.134c-1.68-9.518-4.475-15.214-7.87-16.039
				c-4.087-0.987-8.741,4.929-8.786,4.99c-0.548,0.72-1.528,0.962-2.342,0.597c-0.825-0.371-1.289-1.26-1.118-2.148
				c1.536-7.941,0.502-13.961-3.072-17.892c-5.813-6.395-16.664-5.416-16.778-5.41c-0.582,0.053-1.16-0.152-1.57-0.568
				c-0.414-0.414-0.616-0.994-0.555-1.576c0.848-7.939-0.487-13.606-3.973-16.845c-4.452-4.139-11.06-2.996-11.121-2.986
				c-8.741,2.724-14.82,8.355-18.368,17.162c-18.851,46.849,44.689,162.671,45.332,163.834c0.141,0.257,0.224,0.54,0.24,0.831
				c0.114,1.981,2.148,49.086-54.643,97.633c-17.691,15.121-32.736,20.388-44.75,15.68c-19.47-7.65-23.242-38.494-23.394-39.804
				c-0.122-1.066,0.643-2.032,1.711-2.156c1.042-0.124,2.034,0.641,2.16,1.709c0.034,0.298,3.658,29.842,20.957,36.629
				c10.554,4.152,24.287-0.911,40.785-15.016c52.442-44.83,53.362-89.28,53.301-94.038c-4.889-8.906-64.456-119.171-45.305-166.756
				c3.95-9.824,11.034-16.379,21.048-19.482c0.586-0.116,8.832-1.542,14.699,3.907c4.068,3.781,5.874,9.79,5.384,17.883
				c4.019,0.023,12.33,0.842,17.706,6.732c3.513,3.851,5.102,9.11,4.745,15.676c2.327-1.713,5.399-3.142,8.631-2.367
				c5.205,1.264,8.733,7.528,10.783,19.145c5.323,30.145,22.459,83.227,47.86,105.906c5.27,4.707,8.102,10.766,8.41,18.007
				c1.004,23.348-24.424,51.803-28.033,55.715C645.107,577.581,609.47,741.654,507.431,741.668z"/>
		</g>
	</g>
	<g>
		<g>
			<path fill="#FF9453" d="M575.535,350.54c0,0-23.562,53.014,19.144,116.337"/>
		</g>
		<g>
			<path fill="#0D0000" d="M594.68,468.823c-0.624,0-1.24-0.3-1.612-0.857c-42.819-63.483-19.554-117.677-19.314-118.217
				c0.437-0.981,1.589-1.426,2.566-0.989c0.985,0.435,1.426,1.585,0.992,2.568c-0.232,0.521-22.577,52.841,18.98,114.459
				c0.604,0.892,0.369,2.103-0.525,2.703C595.437,468.715,595.057,468.823,594.68,468.823z"/>
		</g>
	</g>
	<g>
		<g>
			<path fill="#FF9453" d="M597.624,375.575c0,0-10.308,50.069,26.507,106.028"/>
		</g>
		<g>
			<path fill="#0D0000" d="M624.131,483.551c-0.631,0-1.251-0.308-1.627-0.876c-36.83-55.987-26.892-106.984-26.785-107.491
				c0.213-1.055,1.236-1.73,2.296-1.515c1.053,0.217,1.73,1.245,1.517,2.298c-0.103,0.492-9.676,49.993,26.227,104.568
				c0.589,0.899,0.342,2.106-0.559,2.696C624.872,483.448,624.5,483.551,624.131,483.551z"/>
		</g>
	</g>
</g>
</svg>
