<?xml version="1.0" encoding="utf-8"?>
<!-- Generator: Adobe Illustrator 23.0.3, SVG Export Plug-In . SVG Version: 6.00 Build 0)  -->
<svg version="1.1" id="Layer_1" xmlns="http://www.w3.org/2000/svg" xmlns:xlink="http://www.w3.org/1999/xlink" x="0px" y="0px"
	 viewBox="0 0 1200 1200" enable-background="new 0 0 1200 1200" xml:space="preserve">
<g>
	<g>
		<path fill="#FFFFFF" d="M981.387,623.63c-10.145,9.787-25.87,11.108-38.209,5.113c-10.186-4.949-20.055-12.217-31.778-7.378
			c-10.93,4.512-19.232,15.617-29.474,21.687c-7.839,4.645-18.246,8.075-24.457-0.824c-3.683-5.277-4.168-11.963-2.266-18
			c8.646-27.449,47.044-39.002,71.463-45.768c6.792-1.882,3.907-12.465-2.915-10.574c-24.046,6.662-50.052,15.776-67.485,34.575
			c-0.611-0.087-1.255-0.102-1.953,0.032c-14.095,2.707-19.091-13.727-15.513-24.449c3.526-10.564,13.194-18.654,22.174-24.612
			c17.348-11.51,37.744-16.587,58.438-15.589c7.055,0.34,7.037-10.627,0-10.966c-29.226-1.409-62.135,9.225-81.617,32.123
			c-23.535-12.07,8.576-46.921,21.014-55.795c19.171-13.679,42.546-19.185,65.892-18.12c22.792,1.04,48.775,7.087,64.711,24.525
			c13.853,15.159,19.504,36.678,15.035,56.652c-0.159,0.71-0.162,1.366-0.086,1.985
			C1001.035,586.361,994.874,610.618,981.387,623.63z"/>
		<path fill="#FFFFFF" d="M1050.677,584.443c-1.498,9.006-5.374,18.42-10.948,26.426c-0.893,0.121-1.792,0.507-2.619,1.26
			c-4.315,3.93-9.753,6.187-15.633,6.134c-5.327-0.048-15.525-2.263-14.852-9.267c0.153-1.597-0.381-2.772-1.26-3.544
			c4.756-11.721,7.801-24.439,9.76-35.31c0.109-0.609,0.099-1.174,0.04-1.717c3.135-14.715,1.756-29.952-3.683-43.678
			c0.558-2.336,1.076-4.627,1.603-6.927C1044.939,514.519,1054.87,559.232,1050.677,584.443z"/>
		<path fill="#FFFFFF" d="M408.823,985.951c-0.811-0.252-1.55-0.282-2.215-0.151c-11.849-2.632-23.026,4.766-26.145,16.478
			c-2.445,9.183,0.871,20.312,10.535,22.577c-4.032,20.042-25.201,36.369-45.204,24.67c-18.967-11.093-19.921-35.628-16.222-54.783
			c1.177-6.093-8.161-8.702-9.344-2.576c-3.4,17.603-2.664,38.945,7.515,53.755c-14.121,11.315-35.062,8.496-44.394-7.71
			c-8.68-15.073-3.476-36.661,2.39-51.777c2.258-5.817-7.108-8.337-9.344-2.576c-4.095,10.551-7.267,23.188-7.148,35.368
			c-19.292-10.076-29.852-32.791-25.691-54.337c3.529-18.27,16.212-33.52,32.117-42.842c0.449-0.181,0.858-0.418,1.222-0.707
			c4.247-2.383,8.697-4.368,13.266-5.854c26.52-8.621,56.392-3.589,80.899,8.819c6.293,3.186,13.456,7.774,20.015,13.328
			c0.351,0.397,0.747,0.736,1.178,1.008C406.689,951.267,417.643,968.587,408.823,985.951z"/>
		<path fill="#FFFFFF" d="M374.552,892.259c11.192,6.718,24.972,20.833,18.694,34.465c-17.003-13.077-38.305-21.149-59.277-24.023
			c-18.95-2.597-39.788,0.488-57.594,8.784c-2.684-12.394,2.712-24.857,14.995-30.506c13.305-6.119,30.461-5.258,44.594-2.798
			C349.494,880.535,362.76,885.18,374.552,892.259z"/>
	</g>
	<g>
		<path fill="#EB637B" d="M1137.941,507.762c6.739,22.176-1.703,45.774-18.341,61.277c-16.227,15.12-38.474,21.02-60.204,21.018
			c0.422-1.991,0.79-3.989,1.076-5.988c1.726-12.033,1.561-25.121-1.686-37.179c20.397-3.239,37.171-20.973,21.583-40.481
			c-7.086-8.869-16.424-14.245-26.661-17.148c-0.268-1.042-0.87-2.033-1.945-2.801c-5.399-3.863-9.351-14.034-11.558-19.904
			c-2.271-6.037-3.787-12.302-4.657-18.687C1078.016,445.047,1124.647,464.013,1137.941,507.762z"/>
		<path fill="#EB637B" d="M682.602,1005.161c-1.057,17.632-1.883,35.399-5.54,52.728c-1.471,6.968-3.019,17.87-9.916,21.924
			c-0.828,0.487-1.71,0.824-2.617,1.08c0.115-0.657,0.091-1.38-0.128-2.166c-7.722-27.704-19.235-54.305-34.589-78.649
			c-6.857-10.873-14.364-23.205-23.638-32.234c-2.723-2.65-6.61-4.156-10.13-4.008c0.059-0.258,0.09-0.531,0.156-0.785
			c2.041-7.856,8.921-12.3,16.572-7.618c3.148,1.926,5.91,4.874,8.475,7.51c11.826,12.148,21.325,26.157,28.931,41.272
			c2.804,5.572,11.166,0.671,8.367-4.891c-4.869-9.674-10.559-18.871-17.052-27.491c0.669-0.743,1.134-1.72,1.224-2.952
			c2.038-27.837,4.076-55.674,6.115-83.511c5.085,1.189,10.12,2.275,15.109,3.284c8.038,6.659,14.944,14.332,20.579,23.132
			c0.91,1.422,2.211,2.124,3.54,2.267C686.241,944.423,684.423,974.792,682.602,1005.161z"/>
		<path fill="#EB637B" d="M962.031,749.845c0.09-0.016,0.161-0.05,0.248-0.069c20.696,22.46,42.099,44.255,64.211,65.342
			c2.633,2.511,7.093,1.428,8.098-2.138c4.66-16.526,11.057-32.508,19.736-47.354c3.96-6.775,8.88-14.926,17.196-16.666
			c5.173-1.082,8.875,0.84,11.373,4.13c-5.605,0.152-9.904,6.304-12.654,11.619c-6.241,12.06-11.417,24.741-15.527,37.679
			c-4.123,12.984-7.108,26.299-8.966,39.794c-1.517,11.026-2.679,22.084,2.1,32.165c-5.454,2.068-11.7,1.788-18.791-2.182
			c-13.67-7.652-26.07-19.054-37.949-29.168c-22.489-19.148-43.332-40.1-62.568-62.496c0.758-0.367,1.455-0.958,1.998-1.864
			C938.078,766.057,946.447,752.566,962.031,749.845z"/>
		<path fill="#EB637B" d="M942.272,702.182c-56.834,150.49-77.013,168.989-85.509,176.785
			c-10.302,7.372-133.285,23.262-253.266-18.849c-119.716-42.02-188.585-84.549-189.267-84.973c-2.276-1.419-5.141-1.05-7.017,0.693
			c-0.802,0.401-1.548,1.003-2.153,1.903c-19.998,29.728-35.047,62.305-44.812,96.773c-7.236-2.577-14.648-4.445-21.707-5.677
			c-5.325-0.929-11.065-1.669-16.919-1.994c7.946-39.395,21.611-78.09,47.476-109.391c1.465-0.395,2.774-1.359,3.569-2.789
			c1.56-2.807,0.549-6.346-2.258-7.906c-23.215-12.9-70.913-53.242-99.562-98.867c-22.189-35.335-58.405-125.685-36.662-214.711
			c12.934-52.957,44.42-94.449,93.583-123.322c62.941-36.967,124.387-45.702,182.633-25.958
			c43.563,14.765,68.973,40.845,69.221,41.102c1.683,1.761,4.287,2.281,6.522,1.309c2.233-0.974,3.624-3.239,3.482-5.672
			c-0.028-0.462-2.462-46.739,18.152-94.146c27.381-62.959,80.562-98.171,158.068-104.657
			c63.884-5.353,118.102,11.161,161.136,49.064c65.871,58.018,86.59,150.094,88.342,190.676
			c2.355,54.547-1.103,97.107-12.228,147.668c-2.069-2.937-4.335-5.754-6.847-8.391c-20.157-21.16-53.935-27.808-82.077-26.788
			c-27.968,1.013-55.716,11.492-75.255,31.963c-14.051,14.72-32.495,48.902-7.522,62.05c-4.922,9.104-6.781,19.899-2.688,29.746
			c3.62,8.708,11.129,14.28,19.809,15.487c-7.603,14.666-8.127,33.793,8.432,42.928c10.592,5.844,22.507,1.233,31.955-4.582
			c10.492-6.458,23.505-24.058,36.439-19.788c12.703,4.194,21.065,12.272,35.356,11.465c1.108-0.063,2.216-0.184,3.322-0.323
			C957.109,662.606,950.453,680.516,942.272,702.182z"/>
	</g>
	<g>
		<path d="M977.406,639.987c0.096-0.275,0.146-0.553,0.199-0.831c2.565-1.172,5.007-2.587,7.284-4.246
			c15.065,8.332,33.496,6.662,47.889-2.594c11.831-7.609,19.559-19.516,23.979-32.602c25.554,0.567,52.101-6.608,70.782-24.837
			c17.41-16.988,26.554-42.293,20.687-66.273c-13.183-53.885-72.283-75.966-122.491-69.387c2.097-24.675,2.43-49.82,1.207-78.144
			c-1.961-45.416-23.601-138.415-92.273-198.9c-45.503-40.075-102.63-57.547-169.791-51.926
			c-102.482,8.576-147.89,65.645-167.937,112.009c-14.956,34.588-18.328,67.86-18.949,85.692
			c-11.687-9.546-33.274-24.6-63.316-34.876c-42.45-14.52-110.353-21.659-192.798,26.76c-51.975,30.526-85.282,74.463-98.988,130.59
			c-19.689,80.611,5.952,172.444,38.108,223.655c27.731,44.16,71.312,82.526,97.521,99.113
			c-25.969,32.899-40.091,72.703-48.054,113.616c-10.399,0.551-20.578,2.907-28.899,8.474
			c-13.308,8.904-18.586,25.933-14.019,40.893c-8.52,5.16-16.013,11.677-21.826,19.49c-0.287-0.178-0.598-0.337-0.943-0.468
			c-7.228-2.744-14.457-5.488-21.685-8.232c0.02-0.092,0.056-0.167,0.072-0.263c3.397-19.96,8.361-52.972-8.765-68.176
			c-8.641-7.672-20.298-12.891-30.669-17.747c-11.862-5.554-24.131-10.265-36.681-14.014c-11.473-3.428-24.111-7.216-36.136-7.914
			c-6.614-0.384-13.86,1.206-15.304,8.674c-1.13,5.845,2.676,12.214,4.845,17.419c2.367,5.68,4.882,11.298,7.56,16.839
			c5.379,11.131,11.476,21.867,18.074,32.311c-5.9,0.728-10.535,3.94-12.09,11.62c-0.926,4.576-0.207,8.565,1.618,12.079
			c-0.525,0-1.08,0.074-1.68,0.295c-13.257,4.88-26.513,9.76-39.77,14.64c-6.931,2.551-21.663,4.917-23.864,13.794
			c-1.669,6.733,3.85,12.53,8.816,16.08c9.771,6.984,21.232,12.383,32.167,17.252c18.976,8.448,43.066,19.135,64.297,17.65
			c20.926-1.464,41.175-17.477,55.775-31.37c1.029-0.979,1.447-2.088,1.461-3.168c6.674,2.129,13.38,4.163,20.12,6.093
			c0.11,0.031,0.21,0.033,0.317,0.058c-0.096,1.236-0.184,2.476-0.214,3.744c-0.551,23.433,12.567,46.805,34.366,56.229
			c0.97,0.42,1.914,0.504,2.792,0.374c1.485,7.943,4.797,15.343,10.683,21.406c14.669,15.111,37.307,14.882,53.23,2.292
			c3.607,3.196,7.924,5.819,13.066,7.67c26.12,9.403,49.014-11.212,53.507-35.78c18.536,4.843,37.006,9.929,55.407,15.262
			c-12.23,5.86-19.346,14.269-9.457,26.03c9.467,11.259,31.326,15.118,44.895,18.038c16.858,3.628,34.24,5.139,51.467,4.265
			c12.704-0.645,30.076-0.875,40.415-9.505c10.8-9.015,7.608-23.023,0.675-33.411c-17.855-26.749-45.38-49.096-73.084-64.942
			c-9.384-5.367-27.256-12.686-30.143,3.774c-1.548,8.821,1.393,19.07,5.771,28.446c-22.854-7.952-45.71-15.904-68.564-23.856
			c8.954-19.377-1.542-40.851-16.278-55.096c-0.385-0.372-0.792-0.724-1.183-1.09c6.704-12.707,2.928-27.657-7.226-38.31
			c-6.321-6.632-14.361-11.897-23.063-15.993c0.201-0.37,0.374-0.775,0.503-1.23c9.086-32.072,22.88-62.259,41.061-90.139
			c16.047,9.441,82.544,46.868,187.764,83.8c13.349,4.685,26.623,8.623,39.664,11.944c-1.928,26.334-3.856,52.669-5.784,79.003
			c-0.702-0.8-1.39-1.611-2.108-2.398c-7.899-8.667-19.568-20.662-32.494-14.736c-13.285,6.091-13.73,22.174-12.82,34.697
			c1.201,16.529,4.879,32.843,11.015,48.243c10.071,25.275,27.855,54.907,56.273,61.958c34.22,8.49,35.69-40.477,37.473-62.76
			c3.528-44.087,5.427-88.359,8.054-132.51c28.312,3.815,53.794,5.041,74.184,5.126c0.734,0.002,1.467,0.004,2.199,0.004
			c42.838,0,81.771-5.216,89.196-12.022c7.889-7.231,22.502-20.642,56.64-100.931c20.509,23.945,42.861,46.238,67.06,66.469
			c17.984,15.035,45.575,44.631,70.302,26.819c10.756-7.749,17.061-20.454,22.225-32.277c6.285-14.391,10.876-29.446,13.487-44.939
			c3.005-17.837,10.216-60.286-17.109-63.687c-13.376-1.665-23.313,8.807-29.702,19.195c-8.488,13.799-14.945,28.935-19.839,44.403
			c-27.604-26.623-54.109-54.338-79.467-83.112c1.654-4.317,3.337-8.74,5.056-13.291
			C962.309,682.037,969.561,662.486,977.406,639.987z M981.387,623.63c-10.145,9.787-25.87,11.108-38.209,5.113
			c-10.186-4.949-20.055-12.217-31.778-7.378c-10.93,4.512-19.232,15.617-29.474,21.687c-7.839,4.645-18.246,8.075-24.457-0.824
			c-3.683-5.277-4.168-11.963-2.266-18c8.646-27.449,47.044-39.002,71.463-45.768c6.792-1.882,3.907-12.465-2.915-10.574
			c-24.046,6.662-50.052,15.776-67.485,34.575c-0.611-0.087-1.255-0.102-1.953,0.032c-14.095,2.707-19.091-13.727-15.513-24.449
			c3.526-10.564,13.194-18.654,22.174-24.612c17.348-11.51,37.744-16.587,58.438-15.589c7.055,0.34,7.037-10.627,0-10.966
			c-29.226-1.409-62.135,9.225-81.617,32.123c-23.535-12.07,8.576-46.921,21.014-55.795c19.171-13.679,42.546-19.185,65.892-18.12
			c22.792,1.04,48.775,7.087,64.711,24.525c13.853,15.159,19.504,36.678,15.035,56.652c-0.159,0.71-0.162,1.366-0.086,1.985
			C1001.035,586.361,994.874,610.618,981.387,623.63z M1003.479,631.002c-0.029-0.309-0.081-0.618-0.166-0.925
			c0.45,0.358,0.905,0.71,1.386,1.028C1004.294,631.081,1003.886,631.043,1003.479,631.002z M1050.677,584.443
			c-1.498,9.006-5.374,18.42-10.948,26.426c-0.893,0.121-1.792,0.507-2.619,1.26c-4.315,3.93-9.753,6.187-15.633,6.134
			c-5.327-0.048-15.525-2.263-14.852-9.267c0.153-1.597-0.381-2.772-1.26-3.544c4.756-11.721,7.801-24.439,9.76-35.31
			c0.109-0.609,0.099-1.174,0.04-1.717c3.135-14.715,1.756-29.952-3.683-43.678c0.558-2.336,1.076-4.627,1.603-6.927
			C1044.939,514.519,1054.87,559.232,1050.677,584.443z M1137.941,507.762c6.739,22.176-1.703,45.774-18.341,61.277
			c-16.227,15.12-38.474,21.02-60.204,21.018c0.422-1.991,0.79-3.989,1.076-5.988c1.726-12.033,1.561-25.121-1.686-37.179
			c20.397-3.239,37.171-20.973,21.583-40.481c-7.086-8.869-16.424-14.245-26.661-17.148c-0.268-1.042-0.87-2.033-1.945-2.801
			c-5.399-3.863-9.351-14.034-11.558-19.904c-2.271-6.037-3.787-12.302-4.657-18.687
			C1078.016,445.047,1124.647,464.013,1137.941,507.762z M1023.866,486.568c0.042,0.088,0.082,0.176,0.126,0.262
			c-0.109,0.009-0.218,0.013-0.327,0.023C1023.731,486.757,1023.8,486.663,1023.866,486.568z M1063.441,504.153
			c6.871,4.447,15.174,11.977,12.853,20.896c-2.391,9.19-12.504,11.447-20.707,12.601c-1.437-3.297-3.161-6.46-5.204-9.439
			c-8.09-11.796-21.281-19.544-35.198-19.854c0.802-3.729,1.563-7.423,2.283-11.078
			C1033.093,494.743,1049.766,495.301,1063.441,504.153z M109.573,841.777c-1.608-3.843-6.025-11.193-0.969-13.375
			c2.989-1.29,10.853,1.578,14.072,2.237c9.6,1.965,19.089,4.479,28.401,7.531c17.824,5.841,35.854,13.494,51.634,23.751
			c11.045,7.18,12.595,16.992,13.189,29.491c0.512,10.759-0.213,21.45-1.977,32.067c-5.827-2.212-11.654-4.424-17.481-6.636
			c-0.009-0.027-0.009-0.051-0.019-0.077c-5.447-15.364-9.387-31.106-11.554-47.271c-0.817-6.09-10.518-6.171-9.69,0
			c1.964,14.65,5.09,28.897,9.573,42.911c-3.488-1.324-6.976-2.648-10.465-3.973c-4.936-13.915-9.873-27.83-14.809-41.746
			c-2.071-5.836-11.437-3.322-9.344,2.576c4.1,11.556,8.199,23.113,12.299,34.669c-0.292-0.111-0.585-0.222-0.877-0.333
			c-5.424-2.059-14.936-6.54-24.079-8.601c-0.052-0.709-0.275-1.451-0.763-2.205C126.221,876.588,117.027,859.594,109.573,841.777z
			 M160.475,986.945c-16.193,3.89-36.399-4.544-51.465-10.208c-8-3.007-15.825-6.453-23.465-10.28
			c-4.006-2.007-7.958-4.125-11.851-6.343c-2.18-1.242-11.087-5.009-11.673-7.561c-1.72-7.505,21.208-12.872,25.569-14.478
			c9.641-3.549,19.282-7.098,28.923-10.648c2.021-0.744,3.015-2.368,3.229-4.074c7.556,7.706,20.578,12.604,30.415,16.351
			c-10.856,4.562-21.031,10.357-30.451,17.566c-4.886,3.739-0.064,12.16,4.891,8.367c10.683-8.176,22.302-14.684,34.955-19.282
			c1.115-0.405,1.918-1.079,2.456-1.885c3.312,1.36,6.633,2.693,9.965,3.997c-8.602,5.247-16.518,11.484-23.649,18.642
			c-4.407,4.423,2.443,11.278,6.852,6.852c7.79-7.819,16.478-14.366,26.126-19.723c0.77-0.427,1.314-0.968,1.699-1.561
			c6.873,2.55,13.784,4.996,20.737,7.321C191.834,971.222,176.656,983.058,160.475,986.945z M234.695,959.466
			c-18.905-5.439-37.582-11.615-55.945-18.678c-10.332-3.974-20.562-8.208-30.671-12.717c-6.555-2.924-23.824-8.182-24.218-16.938
			c-0.34-7.574,7.564-8.053,13.338-6.315c4.323,1.302,8.516,3.088,12.735,4.689c10.252,3.892,20.504,7.784,30.757,11.676
			c19.94,7.57,39.881,15.14,59.821,22.71C237.952,948.698,235.968,953.887,234.695,959.466z M491.84,986.032
			c3.395-4.057,7.148-0.758,11.437,1.521c2.87,1.525,5.666,3.219,8.438,4.911c5.555,3.39,10.975,7.01,16.227,10.852
			c12.079,8.835,67.439,52.167,49,68.477c-9.332,8.254-29.344,7.222-40.905,7.379c-14.665,0.199-29.322-1.29-43.634-4.505
			c-6.795-1.527-13.504-3.428-20.093-5.682c-7.455-2.551-25.812-7.459-16.002-18.052c3.64-3.93,15.741-6.127,20.781-7.551
			c8.511-2.405,17.161-4.024,25.949-5.001c4.643-0.516,5.801-6.198,3.4-8.628c0.268-1.05,0.101-2.238-0.757-3.445
			c-4.396-6.191-8.136-12.654-10.818-19.79C493.063,1001.723,488.257,990.314,491.84,986.032z M491.281,1024.862
			c0.72,0.25,1.387,0.326,1.998,0.271c0.98,1.563,1.957,3.053,2.92,4.454c-6.573,0.969-15.741,2.613-24.678,5.123
			c-26.149-7.753-52.435-15.011-78.857-21.772c-1.004-0.257-1.9-0.192-2.689,0.066c-1.241-3.077-0.315-8.102,0.493-10.082
			c2.392-5.862,8.078-9.232,14.32-7.622c0.674,0.174,1.297,0.194,1.878,0.123C434.871,1005.235,463.076,1015.049,491.281,1024.862z
			 M408.823,985.951c-0.811-0.252-1.55-0.282-2.215-0.151c-11.849-2.632-23.026,4.766-26.145,16.478
			c-2.445,9.183,0.871,20.312,10.535,22.577c-4.032,20.042-25.201,36.369-45.204,24.67c-18.967-11.093-19.921-35.628-16.222-54.783
			c1.177-6.093-8.161-8.702-9.344-2.576c-3.4,17.603-2.664,38.945,7.515,53.755c-14.121,11.315-35.062,8.496-44.394-7.71
			c-8.68-15.073-3.476-36.661,2.39-51.777c2.258-5.817-7.108-8.337-9.344-2.576c-4.095,10.551-7.267,23.188-7.148,35.368
			c-19.292-10.076-29.852-32.791-25.691-54.337c3.529-18.27,16.212-33.52,32.117-42.842c0.449-0.181,0.858-0.418,1.222-0.707
			c4.247-2.383,8.697-4.368,13.266-5.854c26.52-8.621,56.392-3.589,80.899,8.819c6.293,3.186,13.456,7.774,20.015,13.328
			c0.351,0.397,0.747,0.736,1.178,1.008C406.689,951.267,417.643,968.587,408.823,985.951z M374.552,892.259
			c11.192,6.718,24.972,20.833,18.694,34.465c-17.003-13.077-38.305-21.149-59.277-24.023c-18.95-2.597-39.788,0.488-57.594,8.784
			c-2.684-12.394,2.712-24.857,14.995-30.506c13.305-6.119,30.461-5.258,44.594-2.798
			C349.494,880.535,362.76,885.18,374.552,892.259z M640.368,1073.115c-0.98-0.686-1.91-1.445-2.855-2.182
			c0.586,0.323,1.167,0.649,1.777,0.952c0.421,0.21,0.835,0.337,1.244,0.427c0.882,0.925,1.784,1.831,2.714,2.71
			C642.207,1074.369,641.235,1073.722,640.368,1073.115z M682.602,1005.161c-1.057,17.632-1.883,35.399-5.54,52.728
			c-1.471,6.968-3.019,17.87-9.916,21.924c-0.828,0.487-1.71,0.824-2.617,1.08c0.115-0.657,0.091-1.38-0.128-2.166
			c-7.722-27.704-19.235-54.305-34.589-78.649c-6.857-10.873-14.364-23.205-23.638-32.234c-2.723-2.65-6.61-4.156-10.13-4.008
			c0.059-0.258,0.09-0.531,0.156-0.785c2.041-7.856,8.921-12.3,16.572-7.618c3.148,1.926,5.91,4.874,8.475,7.51
			c11.826,12.148,21.325,26.157,28.931,41.272c2.804,5.572,11.166,0.671,8.367-4.891c-4.869-9.674-10.559-18.871-17.052-27.491
			c0.669-0.743,1.134-1.72,1.224-2.952c2.038-27.837,4.076-55.674,6.115-83.511c5.085,1.189,10.12,2.275,15.109,3.284
			c8.038,6.659,14.944,14.332,20.579,23.132c0.91,1.422,2.211,2.124,3.54,2.267C686.241,944.423,684.423,974.792,682.602,1005.161z
			 M689.125,896.239c-0.069-0.137-0.131-0.278-0.202-0.415c0.107-0.211,0.189-0.431,0.265-0.654
			C689.169,895.527,689.147,895.883,689.125,896.239z M954.857,741.649c-0.136,0.042-0.272,0.086-0.406,0.13
			c-0.009-0.223-0.034-0.444-0.081-0.668C954.532,741.29,954.695,741.47,954.857,741.649z M962.031,749.845
			c0.09-0.016,0.161-0.05,0.248-0.069c20.696,22.46,42.099,44.255,64.211,65.342c2.633,2.511,7.093,1.428,8.098-2.138
			c4.66-16.526,11.057-32.508,19.736-47.354c3.96-6.775,8.88-14.926,17.196-16.666c5.173-1.082,8.875,0.84,11.373,4.13
			c-5.605,0.152-9.904,6.304-12.654,11.619c-6.241,12.06-11.417,24.741-15.527,37.679c-4.123,12.984-7.108,26.299-8.966,39.794
			c-1.517,11.026-2.679,22.084,2.1,32.165c-5.454,2.068-11.7,1.788-18.791-2.182c-13.67-7.652-26.07-19.054-37.949-29.168
			c-22.489-19.148-43.332-40.1-62.568-62.496c0.758-0.367,1.455-0.958,1.998-1.864C938.078,766.057,946.447,752.566,962.031,749.845
			z M942.272,702.182c-56.834,150.49-77.013,168.989-85.509,176.785c-10.302,7.372-133.285,23.262-253.266-18.849
			c-119.716-42.02-188.585-84.549-189.267-84.973c-2.276-1.419-5.141-1.05-7.017,0.693c-0.802,0.401-1.548,1.003-2.153,1.903
			c-19.998,29.728-35.047,62.305-44.812,96.773c-7.236-2.577-14.648-4.445-21.707-5.677c-5.325-0.929-11.065-1.669-16.919-1.994
			c7.946-39.395,21.611-78.09,47.476-109.391c1.465-0.395,2.774-1.359,3.569-2.789c1.56-2.807,0.549-6.346-2.258-7.906
			c-23.215-12.9-70.913-53.242-99.562-98.867c-22.189-35.335-58.405-125.685-36.662-214.711
			c12.934-52.957,44.42-94.449,93.583-123.322c62.941-36.967,124.387-45.702,182.633-25.958
			c43.563,14.765,68.973,40.845,69.221,41.102c1.683,1.761,4.287,2.281,6.522,1.309c2.233-0.974,3.624-3.239,3.482-5.672
			c-0.028-0.462-2.462-46.739,18.152-94.146c27.381-62.959,80.562-98.171,158.068-104.657
			c63.884-5.353,118.102,11.161,161.136,49.064c65.871,58.018,86.59,150.094,88.342,190.676
			c2.355,54.547-1.103,97.107-12.228,147.668c-2.069-2.937-4.335-5.754-6.847-8.391c-20.157-21.16-53.935-27.808-82.077-26.788
			c-27.968,1.013-55.716,11.492-75.255,31.963c-14.051,14.72-32.495,48.902-7.522,62.05c-4.922,9.104-6.781,19.899-2.688,29.746
			c3.62,8.708,11.129,14.28,19.809,15.487c-7.603,14.666-8.127,33.793,8.432,42.928c10.592,5.844,22.507,1.233,31.955-4.582
			c10.492-6.458,23.505-24.058,36.439-19.788c12.703,4.194,21.065,12.272,35.356,11.465c1.108-0.063,2.216-0.184,3.322-0.323
			C957.109,662.606,950.453,680.516,942.272,702.182z"/>
		<path d="M706.003,652.703c-52.536-35.112-118.054-42.687-178.91-28.717c-6.875,1.578-3.966,12.154,2.915,10.574
			c12.568-2.885,25.328-4.793,38.116-5.68c-7.496,32.993-12.511,94.308,31.839,100.432c43.31,5.981,68.513-44.47,79.906-79.118
			c7.052,3.545,13.935,7.524,20.598,11.977C706.351,666.104,711.848,656.609,706.003,652.703z M648.28,691.148
			c-10.572,13.87-24.945,28.236-43.776,27.602c-40.483-1.363-31.155-65.332-24.995-90.391c13.818-0.296,27.609,0.64,41.172,2.842
			c-10.781,14.654-17.676,32.051-21.483,49.776c-1.479,6.882,9.09,9.823,10.574,2.915c3.888-18.101,10.969-36.084,22.966-50.382
			c12.701,2.815,25.138,6.798,37.139,12.007C664.721,661.915,658.844,677.289,648.28,691.148z"/>
		<path d="M699.383,422.096c-16.714-13.16-40.294,1.72-50.361,16.177c-4.042,5.804,5.46,11.292,9.469,5.535
			c6.668-9.575,23.881-21.839,35.104-12.305c11.42,9.701,2.376,25.817-5.691,33.952c-4.975,5.017,2.776,12.775,7.754,7.754
			C709.083,459.673,717.127,436.068,699.383,422.096z"/>
		<path d="M875.144,308.043c-18.648-8.196-37.544-15.757-56.669-22.682c8.704-16.228,17.988-32.147,27.877-47.706
			c3.796-5.974-5.69-11.481-9.469-5.535c-10.27,16.161-19.852,32.702-28.814,49.567c-16.625-5.79-33.412-11.122-50.377-15.921
			c-6.803-1.924-9.706,8.653-2.916,10.574c16.211,4.586,32.273,9.646,48.184,15.132c-8.758,17.088-16.888,34.502-24.327,52.256
			c-2.724,6.5,7.883,9.338,10.575,2.915c7.34-17.518,15.422-34.695,24.134-51.545c19,6.817,37.767,14.282,56.267,22.413
			C876.009,320.325,881.597,310.879,875.144,308.043z"/>
		<path d="M516.533,520.869c-18.082-7.949-36.532-14.737-55.311-20.37c5.651-16.354,11.672-32.582,18.082-48.671
			c2.612-6.556-7.99-9.403-10.575-2.915c-6.395,16.053-12.405,32.245-18.045,48.562c-21.362-5.876-43.133-10.279-65.267-13.176
			c-6.977-0.913-6.91,10.062,0,10.966c20.874,2.732,41.521,6.914,61.793,12.467c-7.572,22.612-14.444,45.458-20.561,68.53
			c-1.81,6.828,8.765,9.741,10.575,2.915c6.108-23.039,12.968-45.852,20.527-68.433c18.118,5.43,35.906,11.97,53.247,19.594
			C517.399,533.152,522.986,523.706,516.533,520.869z"/>
		<path d="M985.948,563.179c-6.969,2.915-13.13,6.984-18.247,12.584c-4.2,4.596,2.635,11.468,6.852,6.852
			c3.917-4.287,8.586-7.84,13.97-10.092c2.403-1.005,4.154-3.212,3.384-5.96C991.271,564.291,988.385,562.159,985.948,563.179z"/>
		<path d="M986.439,543.667c-7.262,0-14.524,0-21.785,0c-6.235,0-6.245,9.69,0,9.69c7.262,0,14.524,0,21.785,0
			C992.675,553.358,992.685,543.667,986.439,543.667z"/>
		<path d="M966.224,524.484c6.157,4.344,12.314,8.688,18.472,13.032c5.106,3.602,9.952-4.796,4.891-8.367
			c-6.157-4.344-12.314-8.688-18.472-13.032C966.009,512.514,961.162,520.913,966.224,524.484z"/>
		<path d="M338.911,933.581c0.333-6.232-9.359-6.214-9.69,0c-0.381,7.14-0.242,14.252,0.416,21.372c0.57,6.158,10.265,6.217,9.69,0
			C338.669,947.832,338.53,940.721,338.911,933.581z"/>
		<path d="M311.86,928.744c-3.751,5.992-6.719,12.393-8.971,19.092c-1.992,5.924,7.364,8.466,9.344,2.576
			c1.995-5.933,4.674-11.472,7.994-16.777C323.545,928.334,315.164,923.464,311.86,928.744z"/>
		<path d="M290.307,926.841c-4.779,4.609-9.048,9.66-12.907,15.061c-1.522,2.13-0.374,5.393,1.738,6.629
			c2.435,1.424,5.103,0.397,6.629-1.738c3.377-4.727,7.212-9.068,11.392-13.1C301.656,929.355,294.799,922.508,290.307,926.841z"/>
	</g>
	<path fill="#F998AC" d="M648.28,691.148c-10.572,13.87-24.945,28.236-43.776,27.602c-40.483-1.363-31.155-65.332-24.995-90.391
		c13.818-0.296,27.609,0.64,41.172,2.842c-10.781,14.654-17.676,32.051-21.483,49.776c-1.479,6.882,9.09,9.823,10.574,2.915
		c3.888-18.101,10.969-36.084,22.966-50.382c12.701,2.815,25.138,6.798,37.139,12.007
		C664.721,661.915,658.844,677.289,648.28,691.148z"/>
	<path fill="#FFFFFF" d="M109.573,841.777c-1.608-3.843-6.025-11.193-0.969-13.375c2.989-1.29,10.853,1.578,14.072,2.237
		c9.6,1.965,19.089,4.479,28.401,7.531c17.824,5.841,35.854,13.494,51.634,23.751c11.045,7.18,12.595,16.992,13.189,29.491
		c0.512,10.759-0.213,21.45-1.977,32.067c-5.827-2.212-11.654-4.424-17.481-6.636c-0.009-0.027-0.009-0.051-0.019-0.077
		c-5.447-15.364-9.387-31.106-11.554-47.271c-0.817-6.09-10.518-6.171-9.69,0c1.964,14.65,5.09,28.897,9.573,42.911
		c-3.488-1.324-6.976-2.648-10.465-3.973c-4.936-13.915-9.873-27.83-14.809-41.746c-2.071-5.836-11.437-3.322-9.344,2.576
		c4.1,11.556,8.199,23.113,12.299,34.669c-0.292-0.111-0.585-0.222-0.877-0.333c-5.424-2.059-14.936-6.54-24.079-8.601
		c-0.052-0.709-0.275-1.451-0.763-2.205C126.221,876.588,117.027,859.594,109.573,841.777z"/>
	<path fill="#FFFFFF" d="M160.475,986.945c-16.193,3.89-36.399-4.544-51.465-10.208c-8-3.007-15.825-6.453-23.465-10.28
		c-4.006-2.007-7.958-4.125-11.851-6.343c-2.18-1.242-11.087-5.009-11.673-7.561c-1.72-7.505,21.208-12.872,25.569-14.478
		c9.641-3.549,19.282-7.098,28.923-10.648c2.021-0.744,3.015-2.368,3.229-4.074c7.556,7.706,20.578,12.604,30.415,16.351
		c-10.856,4.562-21.031,10.357-30.451,17.566c-4.886,3.739-0.064,12.16,4.891,8.367c10.683-8.176,22.302-14.684,34.955-19.282
		c1.115-0.405,1.918-1.079,2.456-1.885c3.312,1.36,6.633,2.693,9.965,3.997c-8.602,5.247-16.518,11.484-23.649,18.642
		c-4.407,4.423,2.443,11.278,6.852,6.852c7.79-7.819,16.478-14.366,26.126-19.723c0.77-0.427,1.314-0.968,1.699-1.561
		c6.873,2.55,13.784,4.996,20.737,7.321C191.834,971.222,176.656,983.058,160.475,986.945z"/>
	<path fill="#A26398" d="M234.695,959.466c-18.905-5.439-37.582-11.615-55.945-18.678c-10.332-3.974-20.562-8.208-30.671-12.717
		c-6.555-2.924-23.824-8.182-24.218-16.938c-0.34-7.574,7.564-8.053,13.338-6.315c4.323,1.302,8.516,3.088,12.735,4.689
		c10.252,3.892,20.504,7.784,30.757,11.676c19.94,7.57,39.881,15.14,59.821,22.71C237.952,948.698,235.968,953.887,234.695,959.466z
		"/>
	<path fill="#6FA4DF" d="M491.84,986.032c3.395-4.057,7.148-0.758,11.437,1.521c2.87,1.525,5.666,3.219,8.438,4.911
		c5.555,3.39,10.975,7.01,16.227,10.852c12.079,8.835,67.439,52.167,49,68.477c-9.332,8.254-29.344,7.222-40.905,7.379
		c-14.665,0.199-29.322-1.29-43.634-4.505c-6.795-1.527-13.504-3.428-20.093-5.682c-7.455-2.551-25.812-7.459-16.002-18.052
		c3.64-3.93,15.741-6.127,20.781-7.551c8.511-2.405,17.161-4.024,25.949-5.001c4.643-0.516,5.801-6.198,3.4-8.628
		c0.268-1.05,0.101-2.238-0.757-3.445c-4.396-6.191-8.136-12.654-10.818-19.79C493.063,1001.723,488.257,990.314,491.84,986.032z"/>
	<path fill="#A26398" d="M491.281,1024.862c0.72,0.25,1.387,0.326,1.998,0.271c0.98,1.563,1.957,3.053,2.92,4.454
		c-6.573,0.969-15.741,2.613-24.678,5.123c-26.149-7.753-52.435-15.011-78.857-21.772c-1.004-0.257-1.9-0.192-2.689,0.066
		c-1.241-3.077-0.315-8.102,0.493-10.082c2.392-5.862,8.078-9.232,14.32-7.622c0.674,0.174,1.297,0.194,1.878,0.123
		C434.871,1005.235,463.076,1015.049,491.281,1024.862z"/>
	<g>
		<path d="M368.495,890.162c3.439,2.983,6.016,6.377,7.65,10.663c1.33,3.487,3.464,10.789,0.678,14.056
			c-4.256,4.99,2.958,12.271,7.245,7.245c9.737-11.416,1.573-30.62-8.328-39.208C370.78,878.615,363.503,885.832,368.495,890.162
			L368.495,890.162z"/>
		<path d="M381.216,904.68c2.923,3.895,3.616,9.745,0.271,13.699c-4.234,5.005,2.979,12.287,7.245,7.245
			c6.11-7.222,7.165-18.34,1.331-26.114C386.152,894.298,377.253,899.4,381.216,904.68L381.216,904.68z"/>
		<path d="M387.476,915.302c0.819,3.539,0.625,7.332-0.881,10.68c-1.134,2.521-0.727,5.509,1.838,7.009
			c2.191,1.282,5.868,0.698,7.009-1.838c2.692-5.984,3.4-12.155,1.914-18.575C395.869,906.157,385.989,908.875,387.476,915.302
			L387.476,915.302z"/>
	</g>
</g>
</svg>
