<?xml version="1.0" encoding="utf-8"?>
<!-- Generator: Adobe Illustrator 23.1.0, SVG Export Plug-In . SVG Version: 6.00 Build 0)  -->
<svg version="1.1" id="Capa_1" xmlns="http://www.w3.org/2000/svg" xmlns:xlink="http://www.w3.org/1999/xlink" x="0px" y="0px"
	 viewBox="0 0 1200 1200" enable-background="new 0 0 1200 1200" xml:space="preserve">
<g>
	<g>
		<g>
			<path fill="#0D0000" d="M406.886,1127.635c0,8.568,24.398,16.395,64.359,22.212h357.623
				c39.961-5.817,64.359-13.645,64.359-22.212c0-18.108-108.859-32.789-243.171-32.789
				C515.746,1094.846,406.886,1109.527,406.886,1127.635z"/>
		</g>
	</g>
	<g>
		<g>
			<g>
				<path fill="#0D0000" d="M325.647,1148.093l66.225-1.413l52.848-1.124l149.057-3.172c0,0,1.355-3.748,1.24-4.007
					c2.854-8.563,4.411-17.674,4.411-27.217c0-30.821-16.203-57.893-40.565-73.145c-1.096-3.546-2.162-7.093-3.2-10.639
					c-19.749-66.398-34.28-134.267-44.832-195.302c-21.22-122.446-26.611-217.358-26.611-217.358l-60.69,52.328
					c0,0-5.622,34.165,5.91,152.373c3.431,35.203,9.168,68.128,15.54,97.017c2.998,13.464,6.112,26.063,9.168,37.596
					c0,0.029,0.029,0.058,0.029,0.086c12.426,46.591,24.276,75.768,24.276,75.768h-37.481
					C316.998,1029.885,325.647,1148.093,325.647,1148.093z"/>
			</g>
		</g>
		<g>
			<g>
				<path fill="#0D0000" d="M478.452,1029.885h-13.464l0.202,0.23c23.497,3.027,35.549,8.102,36.299,8.39
					c-17.183-17.212-33.848-51.118-47.312-84.389C466.603,1000.708,478.452,1029.885,478.452,1029.885z"/>
			</g>
		</g>
		<g>
			<g>
				<path fill="#0D0000" d="M491.426,1031.327c0,0,11.532,5.766,25.948,23.065"/>
			</g>
		</g>
	</g>
	<g>
		<g>
			<g>
				<path fill="#FF9453" d="M729.163,1111.167c0,9.532-1.55,18.645-4.412,27.205c0.131,0.263-1.234,4.018-1.234,4.018
					l-149.052,3.178l-119.089,2.521c0,0-8.64-118.196,115.334-118.196h37.473c0,0-11.843-29.175-24.264-75.786
					c0-0.026-0.026-0.053-0.026-0.079c-9.664-36.213-19.669-82.955-24.71-134.608c-1.156-11.791-2.232-22.662-3.256-32.667
					c-9.375-90.466-14.049-111.5-14.049-111.5l72.083-60.529c0,0,2.285,40.178,9.716,101.967
					c9.979,83.06,29.28,205.169,64.915,321.317C712.961,1053.264,729.163,1080.338,729.163,1111.167z"/>
			</g>
			<g>
				<path fill="#0D0000" d="M455.376,1150c-1.001,0-1.834-0.773-1.909-1.775c-0.037-0.516-3.403-52.192,29.318-87.39
					c20.266-21.802,49.846-32.856,87.924-32.856h34.671c-3.157-8.2-13.086-35.03-23.296-73.329
					c-0.015-0.041-0.026-0.086-0.037-0.131h-0.004c-12.134-45.46-20.464-90.853-24.764-134.916
					c-1.154-11.786-2.23-22.657-3.254-32.658c-9.242-89.161-13.968-111.071-14.017-111.28c-0.153-0.695,0.093-1.42,0.639-1.879
					l72.085-60.53c0.553-0.467,1.33-0.579,1.987-0.291c0.665,0.288,1.109,0.926,1.151,1.647c0.022,0.4,2.365,40.835,9.706,101.851
					c9.859,82.044,29.068,204.151,64.636,320.302c25.601,16.31,40.865,44.071,40.865,74.401c0,9.395-1.483,18.653-4.412,27.514
					c-0.093,0.702-0.459,1.913-1.352,4.363c-0.269,0.743-0.968,1.24-1.756,1.259L455.417,1150
					C455.402,1150,455.387,1150,455.376,1150z M570.709,1031.805c-36.958,0-65.588,10.636-85.1,31.608
					c-28.179,30.293-28.653,73.407-28.403,82.724l264.946-5.63c0.321-0.923,0.601-1.793,0.687-2.163
					c0.004-0.194,0.034-0.392,0.097-0.579c2.865-8.562,4.315-17.509,4.315-26.599c0-29.243-14.831-55.988-39.677-71.539
					c-0.389-0.243-0.676-0.62-0.811-1.061c-35.785-116.626-55.091-239.285-64.983-321.647c-6.071-50.447-8.73-86.875-9.489-98.298
					l-68.312,57.362c1.057,5.409,5.619,31.152,13.848,110.57c1.024,10.012,2.099,20.883,3.261,32.677
					c4.277,43.843,12.563,89.008,24.637,134.251c0.015,0.041,0.026,0.086,0.037,0.131h0.004
					c12.242,45.942,24.069,75.271,24.185,75.559c0.239,0.59,0.172,1.263-0.183,1.789c-0.355,0.527-0.953,0.844-1.588,0.844H570.709z
					"/>
			</g>
		</g>
		<g>
			<g>
				<path fill="#0D0000" d="M608.193,1029.885h-13.464l0.202,0.23c23.497,3.027,35.549,8.102,36.299,8.39
					c-17.183-17.212-33.848-51.118-47.312-84.389C596.343,1000.708,608.193,1029.885,608.193,1029.885z"/>
			</g>
		</g>
		<g>
			<g>
				<path fill="#FF9453" d="M621.167,1031.327c0,0,11.532,5.766,25.948,23.065"/>
			</g>
			<g>
				<path fill="#0D0000" d="M647.116,1056.304c-0.545,0-1.091-0.235-1.468-0.687c-13.938-16.725-25.227-22.523-25.339-22.579
					c-0.941-0.474-1.322-1.625-0.848-2.566s1.606-1.33,2.563-0.855c0.486,0.243,12.055,6.145,26.561,23.55
					c0.676,0.811,0.568,2.017-0.243,2.693C647.983,1056.158,647.549,1056.304,647.116,1056.304z"/>
			</g>
		</g>
	</g>
	<g>
		<g>
			<path fill="#FF9453" d="M385.706,892.988c2.253,5.193,4.431,10.628,4.287,16.287s-3.207,11.626-8.565,13.451
				c-4.844,1.65-10.371-0.509-13.925-4.19c-3.554-3.682-5.47-8.628-6.893-13.544c-2.188-7.559-12.738-62.955-6.138-65.355
				C362.116,836.856,382.669,885.987,385.706,892.988z"/>
		</g>
		<g>
			<path fill="#0D0000" d="M378.016,925.183c-4.173,0-8.596-1.909-11.887-5.316c-4.057-4.203-6.063-9.874-7.359-14.345
				c-0.183-0.628-14.483-64.214-4.954-67.684c4.401-1.618,11.783,3.426,32.983,52.857l0.661,1.532
				c2.428,5.6,4.595,11.118,4.446,17.098c-0.146,5.76-3.295,12.978-9.862,15.212C380.762,924.974,379.402,925.183,378.016,925.183z
				 M355.191,841.428c-0.034,0-0.056,0.004-0.075,0.007c-3.9,3.788,4.154,52.05,7.329,63.026c1.169,4.046,2.962,9.149,6.433,12.746
				c2.813,2.914,7.584,5.185,11.932,3.706c4.834-1.644,7.158-7.21,7.27-11.685c0.131-5.2-1.879-10.288-4.132-15.477l0,0l-0.665-1.55
				C362.415,843.546,356.121,841.428,355.191,841.428z"/>
		</g>
	</g>
	<g>
		<g>
			<path fill="#0D0000" d="M623.677,716.69l-67.75,70.062c-9.375-90.466-14.049-111.5-14.049-111.5l72.083-60.529
				C613.96,614.722,616.245,654.9,623.677,716.69z"/>
		</g>
	</g>
	<g>
		<g>
			<path fill="#FF9453" d="M289.031,608.056c5.045,19.086,10.927,37.971,17.731,56.567c18.913,51.694,43.996,101.486,75.451,146.693
				c2.566,3.719,38.259,44.371,37.135,47.024c4.411-10.264,9.457-20.787,15.079-31.513
				c39.326-75.076,106.272-159.869,178.234-239.731c67.004-74.384,138.361-144.444,195.85-198.416l114.95-103.706
				c0.288-0.26,0.432-0.375,0.432-0.375s-30.273-61.987-203.26-160.013C543.236,24.051,353.037,56.832,353.037,56.832
				c-56.279,9.687-74.99,215.023-80.554,259.164c-1.24,9.918-2.335,19.865-3.229,29.84
				C261.267,433.541,266.601,522.888,289.031,608.056z"/>
		</g>
		<g>
			<path fill="#0D0000" d="M419.348,860.252c-0.25,0-0.504-0.049-0.751-0.153c-0.751-0.321-1.192-1.065-1.162-1.834
				c-1.33-3.624-19.093-24.675-27.693-34.866c-5.301-6.28-8.338-9.888-9.1-10.998c-30.577-43.943-56.04-93.446-75.675-147.121
				c-6.657-18.186-12.638-37.275-17.786-56.735c0,0,0,0,0-0.004c-21.581-81.947-28.253-170.395-19.833-262.876
				c0.855-9.552,1.913-19.336,3.235-29.908c0.467-3.691,1.024-8.51,1.685-14.244c7.513-64.942,27.465-237.445,80.442-246.564
				c1.916-0.332,192.914-31.744,368.867,67.974c171.534,97.2,202.787,158.283,204.035,160.835c0.389,0.796,0.176,1.756-0.504,2.32
				l-0.37,0.321l-114.945,103.7C736.247,459.15,670.39,525.867,614.081,588.377c-83.352,92.504-143.228,173.032-177.959,239.341
				c-5.626,10.722-10.677,21.279-15.018,31.376C420.794,859.819,420.088,860.252,419.348,860.252z M417.484,858.411h0.037H417.484z
				 M417.589,857.593c-0.004,0.004-0.004,0.007-0.004,0.011C417.585,857.6,417.585,857.596,417.589,857.593z M290.88,607.567
				c5.118,19.347,11.065,38.325,17.681,56.398c19.523,53.369,44.833,102.576,75.223,146.258c0.702,1.016,4.494,5.51,8.884,10.71
				c16.247,19.254,23.49,28.309,26.557,32.908c3.993-9.044,8.529-18.41,13.508-27.902c34.881-66.59,94.94-147.382,178.509-240.126
				c56.376-62.585,122.308-129.38,195.962-198.528l114.273-103.099c-5.432-9.257-44.87-69.018-201.782-157.94
				C544.906,27.2,355.25,58.387,353.36,58.718c-50.152,8.633-70.579,185.209-77.289,243.232c-0.669,5.753-1.225,10.587-1.692,14.285
				c-1.315,10.524-2.368,20.263-3.22,29.774c-8.383,92.041-1.748,180.044,19.721,261.561V607.567z"/>
		</g>
	</g>
	<g>
		<g>
			<path d="M451.117,109.22l-3.018-1.972c17.92-27.387,43.581-46.725,66.971-50.47l0.568,3.56
				C493.222,63.929,468.499,82.659,451.117,109.22z"/>
		</g>
	</g>
	<g>
		<g>
			<path d="M398.439,161.412l-3.571-0.486c2.712-20.08,13.635-42.412,29.964-61.27l2.727,2.361
				C411.675,120.36,401.062,142.008,398.439,161.412z"/>
		</g>
	</g>
	<g>
		<g>
			<path d="M369.532,155.236l-3.444-1.068c3.803-12.268,9.62-24.316,17.282-35.807l3.004,2.002
				C378.898,131.563,373.234,143.297,369.532,155.236z"/>
		</g>
	</g>
	<g>
		<g>
			<path d="M336.418,103.089l-3.549-0.657c2.906-15.627,10.587-31.954,22.22-47.21l2.869,2.185
				C346.83,72.006,339.179,88.232,336.418,103.089z"/>
		</g>
	</g>
	<g>
		<g>
			<path fill="#0D0000" d="M627.354,157.149l-3.728-1.696c0.598-1.315,15.081-32.531,52.595-58.502l2.331,3.37
				C642.021,125.612,627.496,156.839,627.354,157.149z"/>
		</g>
	</g>
	<g>
		<g>
			<path fill="#FF9453" d="M420.098,856.667l9.341,3.114c123.974-210.468,440.8-465.076,440.8-465.076l-0.288-0.404
				c-22.921,12.83-46.361,14.329-59.969,1.672c-1.557-1.442-2.941-3.056-4.152-4.786
				C678.281,511.125,484.622,708.533,420.098,856.667z"/>
		</g>
		<g>
			<path fill="#0D0000" d="M429.438,861.694c-0.202,0-0.407-0.03-0.605-0.097l-9.339-3.116c-0.508-0.172-0.923-0.545-1.143-1.039
				c-0.217-0.489-0.22-1.05-0.004-1.539c62.794-144.166,244.661-333.045,386.171-466.108c0.407-0.381,0.96-0.579,1.505-0.508
				c0.553,0.056,1.053,0.347,1.371,0.803c1.173,1.67,2.481,3.179,3.889,4.479c12.574,11.704,34.705,10.953,57.732-1.939
				c0.848-0.471,1.916-0.235,2.484,0.549l0.291,0.403c0.598,0.826,0.441,1.972-0.351,2.611
				c-3.168,2.544-317.979,256.802-440.354,464.558C430.735,861.347,430.1,861.694,429.438,861.694z M422.692,855.516l5.888,1.961
				C539.06,670.981,802.713,447.943,858.563,401.795c-19.975,7.707-38.385,6.272-49.883-4.419c-1.087-1.009-2.126-2.126-3.097-3.329
				C690.178,502.682,489.102,705.242,422.692,855.516z"/>
		</g>
	</g>
	<g>
		<g>
			
				<ellipse transform="matrix(0.6803 -0.7329 0.7329 0.6803 28.8474 741.2899)" fill="#FF9453" cx="864.18" cy="337.577" rx="79.681" ry="48.354"/>
		</g>
		<g>
			<g>
				<path d="M834.235,406.259c-10.165,0-18.88-3.071-25.369-9.097c-20.195-18.746-11.812-60.728,18.686-93.584
					c14.678-15.817,32.239-27.222,49.454-32.12c17.502-4.98,32.587-2.656,42.483,6.53c9.9,9.186,13.333,24.058,9.672,41.881
					c-3.605,17.528-13.673,35.893-28.354,51.703c-14.678,15.817-32.243,27.222-49.454,32.12
					C845.323,405.408,839.578,406.259,834.235,406.259z M894.112,272.143c-5.039,0-10.482,0.807-16.217,2.439
					c-16.65,4.737-33.685,15.817-47.967,31.201c-29.281,31.548-37.738,71.472-18.854,89.004c9.037,8.383,23.023,10.434,39.39,5.787
					c16.65-4.741,33.685-15.821,47.967-31.205c14.278-15.384,24.066-33.196,27.551-50.152c3.426-16.669,0.336-30.465-8.697-38.852
					C911.416,274.918,903.455,272.143,894.112,272.143z"/>
			</g>
		</g>
	</g>
	<g>
		<g>
			<path fill="#FF9453" d="M296.816,159.183c0,0,30.821-2.97,79.199,2.076c60.43,6.314,148.25,25.083,237.684,77.758
				c8.707,5.132,17.443,10.581,26.179,16.376c165.606,110.02,164.367,137.323,164.367,137.323"/>
		</g>
		<g>
			<path fill="#0D0000" d="M804.245,394.63c-0.026,0-0.056,0-0.086-0.004c-1.057-0.045-1.872-0.941-1.823-1.995
				c-0.063-1.05-3.366-29.251-163.513-135.648c-8.51-5.641-17.289-11.132-26.094-16.318
				c-89.994-53.003-178.509-71.401-236.913-77.505c-47.59-4.961-78.51-2.107-78.817-2.073c-1.046,0.06-1.984-0.669-2.088-1.722
				c-0.101-1.05,0.672-1.987,1.722-2.088c0.314-0.026,31.563-2.929,79.579,2.081c58.786,6.142,147.872,24.66,238.46,78.013
				c8.861,5.219,17.7,10.748,26.266,16.426C805.552,363.16,806.21,391.645,806.154,392.803
				C806.109,393.831,805.261,394.63,804.245,394.63z"/>
		</g>
	</g>
	<g>
		<g>
			<path fill="#0D0000" d="M794.013,270.364l-3.004-2.787c24.036-25.915,54.818-41.941,80.483-41.941c0.198,0,0.388,0,0.583,0.004
				l-0.037,4.094c-0.183,0-0.37,0-0.553,0C846.926,229.735,817.301,245.257,794.013,270.364z"/>
		</g>
	</g>
	<g>
		<g>
			<path fill="#0D0000" d="M747.884,218.471l-3.004-2.787c18.406-19.855,40.38-33.861,61.879-39.427l1.024,3.967
				C787.337,185.518,765.505,199.46,747.884,218.471z"/>
		</g>
	</g>
	<g>
		<g>
			<path fill="#0D0000" d="M728.036,316.691l-3.908-1.218c6.571-21.055,22.362-43.024,43.32-60.276l2.608,3.16
				C749.696,275.12,734.379,296.38,728.036,316.691z"/>
		</g>
	</g>
	<g>
		<g>
			<g>
				<path fill="#FFFFFF" d="M386.906,313.376c-1.483,2.414-2.795,4.868-3.912,7.376c-11.686,25.712-5.722,55.91,14.209,75.258
					c3.433,3.38,7.331,6.426,11.615,9.058c28.945,17.779,66.166,10.783,86.881-15.088c1.732-2.131,3.328-4.41,4.811-6.824
					c19.262-31.36,9.447-72.43-21.912-91.692c-9.775-6.004-20.47-9.183-31.182-9.733
					C423.754,280.399,400.164,291.792,386.906,313.376z"/>
			</g>
			<g>
				<path fill="#0D0000" d="M443.642,416.439c-12.227,0-24.566-3.276-35.624-10.068c-4.356-2.679-8.353-5.794-11.887-9.268
					c-20.547-19.953-26.389-50.892-14.525-76.982c1.106-2.488,2.454-5.032,3.997-7.542c13.131-21.383,36.849-33.816,61.897-32.37
					c11.196,0.572,22.228,4.016,31.896,9.952c15.515,9.53,26.393,24.536,30.626,42.259c4.236,17.719,1.319,36.024-8.207,51.538
					c-1.554,2.525-3.209,4.875-4.931,6.986C483.565,407.578,463.751,416.436,443.642,416.439z M443.645,283.156
					c-22.553,0-43.54,11.652-55.435,31.022l0,0c-1.476,2.398-2.761,4.819-3.818,7.195c-11.334,24.932-5.757,54.482,13.875,73.545
					c3.373,3.317,7.191,6.295,11.349,8.846c27.932,17.162,64.423,10.83,84.891-14.741c1.64-2.017,3.22-4.255,4.7-6.665
					c18.798-30.607,9.194-70.796-21.41-89.59c-9.235-5.675-19.766-8.962-30.461-9.507
					C446.103,283.189,444.871,283.156,443.645,283.156z"/>
			</g>
		</g>
		<g>
			<g>
				<path fill="#0D0000" d="M386.906,313.376c-1.483,2.414-2.795,4.868-3.912,7.376c-11.686,25.712-5.722,55.91,14.209,75.258
					c14.773-5.105,28.207-14.293,38.507-27.134c2.196-2.726,4.246-5.639,6.136-8.716c15.09-24.567,16.199-53.81,5.57-78.43
					C423.754,280.399,400.164,291.792,386.906,313.376z"/>
			</g>
		</g>
		<g>
			<g>
				<path fill="#FF9453" d="M386.906,313.376c-1.483,2.414-2.795,4.868-3.912,7.376l112.705,69.228
					c1.732-2.131,3.328-4.41,4.811-6.824c19.262-31.36,9.447-72.43-21.912-91.692S406.168,282.017,386.906,313.376z"/>
			</g>
			<g>
				<path fill="#0D0000" d="M495.699,391.892c-0.344,0-0.691-0.093-1.001-0.284l-112.703-69.227
					c-0.818-0.501-1.136-1.532-0.747-2.406c1.121-2.514,2.477-5.073,4.031-7.599l0,0c9.582-15.604,24.675-26.542,42.494-30.801
					c17.819-4.255,36.225-1.322,51.826,8.26c15.604,9.582,26.542,24.675,30.801,42.494c4.259,17.819,1.326,36.225-8.26,51.83
					c-1.558,2.537-3.228,4.901-4.957,7.027C496.809,391.649,496.256,391.892,495.699,391.892z M385.446,320.012l109.805,67.445
					c1.255-1.644,2.473-3.418,3.631-5.301c18.686-30.424,9.138-70.378-21.286-89.064c-14.73-9.044-32.101-11.812-48.934-7.796
					c-16.826,4.023-31.078,14.349-40.126,29.083l0,0C387.385,316.254,386.347,318.145,385.446,320.012z M386.907,313.378h0.037
					H386.907z"/>
			</g>
		</g>
	</g>
	<g>
		<g>
			<g>
				<path fill="#FFFFFF" d="M485.298,373.488c-1.552,2.527-2.926,5.096-4.095,7.722c-12.234,26.918-5.99,58.532,14.875,78.788
					c3.594,3.538,7.675,6.728,12.16,9.483c30.303,18.613,69.269,11.288,90.956-15.796c1.814-2.23,3.484-4.617,5.037-7.144
					c20.166-32.83,9.891-75.827-22.94-95.993c-10.233-6.286-21.43-9.614-32.645-10.189
					C523.874,338.964,499.178,350.891,485.298,373.488z"/>
			</g>
			<g>
				<path fill="#0D0000" d="M544.697,481.31c-12.791,0-25.694-3.426-37.26-10.527c-4.558-2.802-8.742-6.063-12.433-9.694
					c-21.488-20.864-27.596-53.219-15.189-80.509c1.162-2.615,2.57-5.275,4.184-7.89c13.729-22.355,38.497-35.374,64.733-33.857
					c11.715,0.605,23.255,4.206,33.356,10.411c16.228,9.967,27.603,25.665,32.03,44.198c4.431,18.533,1.382,37.675-8.585,53.899
					c-1.61,2.622-3.344,5.081-5.155,7.307C586.451,472.046,565.726,481.31,544.697,481.31z M544.705,341.773
					c-23.636,0-45.636,12.22-58.102,32.516h-0.004c-1.539,2.503-2.884,5.043-3.997,7.542c-11.88,26.132-6.033,57.097,14.54,77.072
					c3.534,3.478,7.531,6.594,11.895,9.272c29.273,17.976,67.516,11.345,88.967-15.447c1.73-2.129,3.385-4.479,4.924-6.986
					c9.541-15.529,12.459-33.853,8.222-51.591c-4.24-17.741-15.13-32.762-30.659-42.3c-9.672-5.944-20.707-9.388-31.922-9.967
					C547.275,341.81,545.986,341.773,544.705,341.773z"/>
			</g>
		</g>
		<g>
			<g>
				<path fill="#0D0000" d="M485.298,373.488c-1.552,2.527-2.926,5.096-4.095,7.722c-12.234,26.918-5.99,58.532,14.875,78.788
					c15.466-5.345,29.53-14.964,40.313-28.407c2.299-2.854,4.445-5.903,6.424-9.124c15.798-25.719,16.959-56.333,5.831-82.108
					C523.874,338.964,499.178,350.891,485.298,373.488z"/>
			</g>
		</g>
		<g>
			<g>
				<path fill="#FF9453" d="M485.298,373.488c-1.552,2.527-2.926,5.096-4.095,7.722l117.991,72.474
					c1.814-2.23,3.484-4.617,5.037-7.144c20.166-32.83,9.891-75.827-22.94-95.993C548.46,330.383,505.463,340.658,485.298,373.488z"
					/>
			</g>
			<g>
				<path fill="#0D0000" d="M599.194,455.597c-0.344,0-0.691-0.093-1.001-0.284l-117.99-72.473
					c-0.818-0.501-1.136-1.532-0.747-2.406c1.177-2.641,2.593-5.316,4.214-7.946l0,0c10.019-16.314,25.799-27.753,44.429-32.206
					c18.641-4.442,37.88-1.382,54.191,8.637c16.314,10.019,27.753,25.799,32.206,44.433c4.449,18.63,1.386,37.877-8.637,54.191
					c-1.618,2.634-3.358,5.107-5.181,7.348C600.304,455.351,599.751,455.597,599.194,455.597z M483.655,380.472l115.091,70.691
					c1.341-1.752,2.634-3.635,3.855-5.622c9.485-15.444,12.388-33.663,8.174-51.299c-4.218-17.64-15.044-32.579-30.487-42.064
					c-15.44-9.481-33.655-12.391-51.299-8.174c-17.636,4.218-32.576,15.044-42.061,30.487l0,0
					C485.706,376.474,484.611,378.48,483.655,380.472z M485.299,373.489h0.037H485.299z"/>
			</g>
		</g>
	</g>
	<g>
		<g>
			<g>
				
					<ellipse transform="matrix(0.2397 -0.9709 0.9709 0.2397 -155.7931 713.3583)" fill="#0D0000" cx="377.543" cy="456.144" rx="51.896" ry="34.597"/>
			</g>
		</g>
		<g>
			<g>
				<path fill="#FF9453" d="M380.426,430.196c0,0,0,25.948-14.416,43.247"/>
			</g>
			<g>
				<path fill="#0D0000" d="M366.009,475.356c-0.433,0-0.867-0.146-1.225-0.445c-0.811-0.676-0.919-1.883-0.243-2.693
					c13.789-16.546,13.972-41.769,13.972-42.02c0-1.057,0.855-1.913,1.913-1.913l0,0c1.057,0,1.913,0.855,1.913,1.913
					c0,1.087-0.168,26.841-14.861,44.47C367.1,475.12,366.555,475.356,366.009,475.356z"/>
			</g>
		</g>
		<g>
			<g>
				<path fill="#FF9453" d="M472.686,444.612c0,0-38.225,4.743-73.892-35.109"/>
			</g>
			<g>
				<path fill="#0D0000" d="M468.424,446.725c-11.304,0-41.874-3.343-71.057-35.949c-0.702-0.785-0.635-1.995,0.153-2.701
					c0.777-0.699,1.984-0.643,2.701,0.153c34.514,38.564,71.861,34.526,72.234,34.485c1.031-0.157,2.002,0.616,2.129,1.666
					c0.127,1.046-0.616,1.999-1.662,2.129C472.623,446.546,471.036,446.725,468.424,446.725z"/>
			</g>
		</g>
		<g>
			<g>
				<path fill="#FF9453" d="M449.781,538.867c0,0-21.609-31.886-75.087-32.473"/>
			</g>
			<g>
				<path fill="#0D0000" d="M449.779,540.78c-0.609,0-1.21-0.295-1.58-0.837c-0.213-0.31-21.772-31.066-73.527-31.634
					c-1.053-0.011-1.901-0.878-1.89-1.935c0.011-1.046,0.867-1.89,1.913-1.89c0.007,0,0.015,0,0.022,0
					c53.858,0.59,75.742,31.974,76.646,33.312c0.59,0.874,0.362,2.058-0.508,2.652C450.527,540.671,450.149,540.78,449.779,540.78z"
					/>
			</g>
		</g>
	</g>
	<g>
		<g>
			<path fill="#0D0000" d="M659.242,263.203l-4.072-0.456c2.212-19.908,12.754-30.155,17.819-35.082
				c1.039-1.009,2.215-2.156,2.421-2.57c-0.004,0.004-0.071,0.149-0.071,0.4h4.094c0,1.618-1.274,2.858-3.586,5.107
				C670.76,235.547,661.293,244.752,659.242,263.203z"/>
		</g>
	</g>
	<g>
		<g>
			<path fill="#FF9453" d="M369.632,268.849c-6.716,2.36-11.739,7.955-15.995,13.661c-6.43,8.62-11.834,18.006-16.059,27.896
				c-0.791,1.851-1.569,3.764-2.941,5.237c-1.372,1.473-3.505,2.427-5.424,1.82c-1.85-0.585-3.04-2.479-3.362-4.392
				s0.062-3.867,0.446-5.769c1.889-9.371,3.777-18.742,5.666-28.112c0.333-1.654,0.017-4.121-1.667-4.011
				c-0.924,0.061-1.518,0.976-1.96,1.79c-0.88,1.618-1.76,3.236-2.639,4.853c-0.753,1.385-2.372,2.983-3.603,1.997
				c-0.347-0.278-0.534-0.706-0.687-1.123c-2.332-6.372,0.579-13.307,2.767-19.729c2.823-8.284,4.48-16.964,4.907-25.705"/>
		</g>
		<g>
			<path fill="#0D0000" d="M330.43,319.557c-0.613,0-1.218-0.09-1.797-0.273c-2.354-0.74-4.188-3.056-4.67-5.891
				c-0.385-2.294,0.064-4.513,0.459-6.47l5.663-28.111c0.086-0.43,0.097-0.841,0.067-1.177c-0.041,0.075-0.09,0.157-0.142,0.25
				l-2.634,4.849c-0.732,1.345-2.107,2.899-3.773,3.235c-0.971,0.191-1.931-0.041-2.708-0.658c-0.71-0.568-1.05-1.307-1.289-1.958
				c-2.339-6.396,0.022-13.165,2.107-19.134l0.646-1.868c2.772-8.125,4.389-16.598,4.812-25.183
				c0.052-1.053,0.912-1.913,2.002-1.816c1.057,0.049,1.868,0.949,1.816,2.002c-0.437,8.943-2.122,17.767-5.006,26.229l-0.658,1.898
				c-1.958,5.607-3.982,11.401-2.148,16.501c0.254-0.224,0.579-0.598,0.837-1.076l2.637-4.849c0.396-0.728,1.446-2.649,3.512-2.791
				c1.05-0.049,2.014,0.329,2.701,1.117c1.207,1.379,1.278,3.654,0.971,5.181l-5.663,28.111c-0.347,1.715-0.706,3.485-0.437,5.077
				c0.198,1.173,0.912,2.525,2.051,2.884c1.173,0.385,2.626-0.407,3.448-1.296c1.083-1.166,1.763-2.761,2.481-4.446
				c4.389-10.27,9.87-19.788,16.389-28.53c4.195-5.622,9.485-11.719,16.893-14.323c0.997-0.351,2.088,0.176,2.439,1.169
				c0.351,0.997-0.172,2.088-1.169,2.439c-6.444,2.264-11.248,7.841-15.1,13c-6.336,8.499-11.663,17.756-15.832,27.506
				c-0.878,2.062-1.76,4.132-3.299,5.787C334.476,318.623,332.414,319.557,330.43,319.557z"/>
		</g>
	</g>
	<g>
		<g>
			<path fill="#FF9453" d="M805.572,391.897c-6.184,7.076-12.368,14.152-18.552,21.228c-6.094,6.972-12.201,13.959-18.975,20.272
				c-8.432,7.857-18.012,14.808-24.197,24.533c-2.648,4.163-4.699,8.861-8.445,12.073c-0.721,0.619-1.529,1.187-2.459,1.38
				c-2.84,0.586-5.127-2.498-5.687-5.343c-0.915-4.648,0.547-9.422,2.336-13.808c5.843-14.321,15.229-26.853,23.634-39.838
				c2.838-4.385,5.659-9.108,5.826-14.328c-3.338,0.519-6.49,2.172-8.813,4.624c-0.824,0.869-1.664,1.902-2.851,2.057
				c-1.456,0.19-2.762-1.127-3.098-2.557s0.043-2.919,0.42-4.338c2.157-8.122,4.313-16.244,6.47-24.367
				c0.471-1.773,0.945-3.615,0.629-5.423c-0.316-1.807-1.66-3.573-3.486-3.755c-2.441-0.243-4.297,2.245-6.69,2.785
				c-2.588,0.584-5.41-1.71-5.368-4.362"/>
		</g>
		<g>
			<path fill="#0D0000" d="M732.242,473.368c-1.08,0-2.144-0.332-3.123-0.982c-1.819-1.21-3.254-3.5-3.739-5.977
				c-1.042-5.294,0.65-10.505,2.443-14.898c4.67-11.45,11.626-21.858,18.35-31.918c1.831-2.742,3.661-5.48,5.447-8.237
				c2.294-3.545,4.404-7.046,5.196-10.751c-1.958,0.717-3.747,1.879-5.189,3.4c-1.083,1.166-2.238,2.41-3.99,2.641
				c-2.54,0.321-4.685-1.778-5.208-4.02c-0.452-1.913,0.037-3.769,0.43-5.26l6.47-24.368c0.415-1.565,0.844-3.179,0.598-4.606
				c-0.198-1.124-1.001-2.103-1.789-2.178c-0.747-0.131-1.629,0.474-2.641,1.113c-0.986,0.624-2.107,1.33-3.444,1.633
				c-1.786,0.407-3.732-0.078-5.294-1.345c-1.535-1.248-2.436-3.082-2.406-4.913c0.015-1.057,1.065-1.827,1.943-1.883
				c1.057,0.015,1.898,0.885,1.883,1.943c-0.011,0.665,0.362,1.367,0.994,1.883c0.631,0.508,1.393,0.725,2.04,0.583
				c0.695-0.157,1.446-0.631,2.241-1.136c1.337-0.841,2.989-1.909,5.062-1.685c2.54,0.247,4.673,2.439,5.178,5.323
				c0.392,2.26-0.194,4.472-0.665,6.246l-6.47,24.368c-0.314,1.188-0.639,2.421-0.407,3.407c0.157,0.657,0.657,1.154,0.99,1.098
				c0.381-0.049,0.945-0.657,1.446-1.195c0.004-0.004,0.258-0.276,0.261-0.28c2.626-2.768,6.145-4.614,9.911-5.2
				c0.59-0.086,1.136,0.082,1.562,0.459c0.426,0.377,0.665,0.923,0.646,1.491c-0.183,5.667-3.13,10.669-6.134,15.309
				c-1.797,2.776-3.639,5.529-5.48,8.286c-6.616,9.903-13.464,20.143-17.988,31.234c-1.58,3.874-3.082,8.413-2.234,12.716
				c0.291,1.468,1.136,2.884,2.107,3.53c0.448,0.295,0.878,0.396,1.319,0.31c0.575-0.12,1.188-0.601,1.599-0.956
				c2.522-2.163,4.233-5.114,6.041-8.241c0.669-1.151,1.334-2.297,2.04-3.411c4.782-7.524,11.543-13.437,18.077-19.161
				c2.167-1.894,4.333-3.792,6.429-5.746c6.709-6.254,12.877-13.307,18.836-20.128l18.552-21.23c0.702-0.799,1.913-0.87,2.701-0.183
				c0.796,0.695,0.878,1.905,0.183,2.701l-18.552,21.23c-6.026,6.892-12.257,14.02-19.112,20.412
				c-2.122,1.976-4.318,3.9-6.515,5.824c-6.336,5.544-12.881,11.274-17.371,18.335c-0.68,1.065-1.315,2.17-1.954,3.272
				c-1.894,3.265-3.848,6.642-6.863,9.227c-0.792,0.684-1.89,1.505-3.317,1.801C732.967,473.331,732.601,473.368,732.242,473.368z"
				/>
		</g>
	</g>
	<g>
		<g>
			<path fill="#FF9453" d="M723.688,396.993c-5.298,3.627-10.815,6.934-16.511,9.898c-0.885,0.461-1.859,0.926-2.839,0.742
				c-0.757-0.143-1.398-0.664-1.855-1.284c-1.341-1.822-1.22-4.3-0.995-6.551c0.468-4.682,1.13-9.345,1.983-13.972"/>
		</g>
		<g>
			<path fill="#0D0000" d="M704.8,409.588c-0.265,0-0.538-0.022-0.814-0.075c-1.162-0.217-2.241-0.938-3.045-2.032
				c-1.745-2.372-1.614-5.309-1.352-7.875c0.471-4.718,1.143-9.474,2.006-14.129c0.187-1.042,1.199-1.73,2.227-1.532
				c1.039,0.191,1.726,1.188,1.532,2.227c-0.841,4.55-1.498,9.201-1.961,13.818c-0.187,1.857-0.31,3.945,0.631,5.226
				c0.262,0.351,0.523,0.512,0.669,0.538c0.389,0.06,1.18-0.336,1.595-0.557c5.622-2.925,11.11-6.213,16.321-9.78
				c0.867-0.598,2.062-0.374,2.656,0.497c0.598,0.87,0.377,2.062-0.497,2.656c-5.338,3.657-10.961,7.027-16.71,10.016
				C707.116,409.084,706.029,409.588,704.8,409.588z"/>
		</g>
	</g>
	<g>
		<g>
			<path fill="#FF9453" d="M405.672,653.562c-0.964,2.628-4.954,2.892-7.063,1.051c-2.109-1.841-2.721-4.848-2.924-7.64
				c-1.014-13.894,4.949-27.793,2.761-41.55c-0.189-1.189-0.943-2.708-2.103-2.386c-0.471,0.131-0.798,0.55-1.073,0.955
				c-5.71,8.391-4.248,20.529-11.027,28.082c-0.473,0.527-1.007,1.04-1.679,1.263c-2.523,0.837-4.252-2.615-4.377-5.27
				c-0.304-6.483,1.645-12.833,2.549-19.259s0.563-13.565-3.59-18.552c-3.029-3.639-7.944-5.987-9.267-10.533
				c-0.956-3.284,0.267-6.979-1.016-10.149"/>
		</g>
		<g>
			<path fill="#0D0000" d="M401.954,657.712c-1.689,0-3.377-0.587-4.606-1.659c-2.798-2.443-3.377-6.272-3.571-8.943
				c-0.486-6.638,0.568-13.269,1.588-19.684c1.195-7.509,2.32-14.603,1.192-21.705c-0.015-0.093-0.034-0.187-0.056-0.273
				c-2.2,3.654-3.183,7.83-4.221,12.238c-1.304,5.529-2.649,11.248-6.612,15.664c-0.616,0.684-1.393,1.431-2.495,1.801
				c-1.3,0.433-2.649,0.235-3.792-0.553c-1.999-1.375-3-4.229-3.101-6.444c-0.22-4.651,0.657-9.205,1.509-13.609
				c0.385-1.999,0.77-3.997,1.053-6.003c1.061-7.528-0.007-13.269-3.164-17.061c-0.975-1.173-2.189-2.215-3.474-3.321
				c-2.529-2.174-5.148-4.427-6.16-7.901c-0.523-1.804-0.493-3.594-0.467-5.323c0.03-1.703,0.056-3.31-0.486-4.644
				c-0.396-0.979,0.078-2.096,1.057-2.492c0.975-0.392,2.092,0.075,2.492,1.057c0.829,2.055,0.796,4.132,0.762,6.142
				c-0.026,1.513-0.049,2.94,0.318,4.192c0.691,2.383,2.776,4.173,4.98,6.071c1.345,1.158,2.738,2.357,3.915,3.769
				c3.881,4.659,5.23,11.401,4.016,20.042c-0.291,2.073-0.687,4.135-1.087,6.198c-0.844,4.375-1.644,8.506-1.446,12.705
				c0.067,1.386,0.728,2.977,1.449,3.471c0.176,0.127,0.262,0.12,0.418,0.075c0.291-0.097,0.702-0.557,0.859-0.728
				c3.306-3.683,4.487-8.686,5.731-13.983c1.124-4.774,2.29-9.709,5.137-13.893c0.276-0.411,0.938-1.39,2.141-1.722
				c0.844-0.239,1.718-0.105,2.466,0.377c1.52,0.975,1.943,2.962,2.04,3.549c1.222,7.703-0.007,15.432-1.192,22.908
				c-0.986,6.198-2.006,12.608-1.55,18.806c0.228,3.172,0.949,5.185,2.271,6.336c0.702,0.616,1.89,0.87,2.862,0.624
				c0.415-0.105,0.949-0.347,1.147-0.889c0.366-0.994,1.468-1.498,2.454-1.139c0.994,0.366,1.502,1.464,1.139,2.454
				c-0.594,1.618-1.976,2.813-3.792,3.28C403.116,657.641,402.534,657.712,401.954,657.712z"/>
		</g>
	</g>
	<g>
		<g>
			<path fill="#FF9453" d="M457.292,458.795c-10.611,1.761-21.417-2.564-30.194-8.783"/>
		</g>
		<g>
			<path fill="#0D0000" d="M452.525,461.093c-8.495,0-17.734-3.287-26.531-9.519c-0.863-0.613-1.065-1.804-0.456-2.667
				c0.616-0.863,1.812-1.057,2.667-0.456c9.758,6.915,19.994,9.907,28.773,8.458c1.05-0.191,2.032,0.534,2.2,1.573
				c0.172,1.042-0.53,2.029-1.573,2.2C455.951,460.958,454.255,461.093,452.525,461.093z"/>
		</g>
	</g>
	<g>
		<g>
			<path fill="#FF9453" d="M442.377,506.193c-9.601-8.193-22.126-12.885-34.746-13.016"/>
		</g>
		<g>
			<path fill="#0D0000" d="M442.375,508.107c-0.441,0-0.882-0.149-1.24-0.459c-9.205-7.853-21.424-12.433-33.525-12.56
				c-1.057-0.011-1.905-0.878-1.894-1.931c0.011-1.05,0.867-1.894,1.913-1.894c0.007,0,0.015,0,0.019,0
				c12.985,0.138,26.094,5.051,35.968,13.479c0.803,0.684,0.9,1.89,0.213,2.693C443.451,507.879,442.913,508.107,442.375,508.107z"
				/>
		</g>
	</g>
	<g>
		<g>
			<path fill="#FF9453" d="M445.575,498.508c-0.925-0.408-1.779-0.977-2.511-1.674"/>
		</g>
		<g>
			<path fill="#0D0000" d="M445.577,500.419c-0.258,0-0.519-0.052-0.77-0.161c-1.132-0.497-2.159-1.184-3.06-2.04
				c-0.77-0.725-0.799-1.935-0.071-2.701c0.728-0.773,1.943-0.792,2.701-0.071c0.583,0.549,1.244,0.99,1.969,1.307
				c0.968,0.426,1.405,1.554,0.983,2.522C447.011,499.993,446.313,500.419,445.577,500.419z"/>
		</g>
	</g>
	<g>
		<g>
			<path fill="#FF9453" d="M453.371,482.916c-7.358-3.814-15.45-6.204-23.7-6.999"/>
		</g>
		<g>
			<path fill="#0D0000" d="M453.369,484.829c-0.299,0-0.598-0.067-0.882-0.213c-7.09-3.68-15.048-6.029-23.001-6.795
				c-1.053-0.105-1.823-1.039-1.722-2.088c0.105-1.053,1.065-1.778,2.088-1.722c8.439,0.814,16.874,3.306,24.398,7.206
				c0.938,0.489,1.304,1.644,0.818,2.581C454.726,484.452,454.061,484.829,453.369,484.829z"/>
		</g>
	</g>
	<g>
		<g>
			<path fill="#0D0000" d="M376.015,161.259c-0.058,47.6,45.034,93.932,108.607,108.031c51.838,11.504,101.601-1.615,129.077-30.273
				C524.265,186.342,436.445,167.573,376.015,161.259z"/>
		</g>
	</g>
	<g>
		<g>
			<path fill="#0D0000" d="M289.031,608.056c21.969-25.314,36.616-70.982,36.616-123.08c0-66.542-23.901-122.561-56.394-139.139
				C261.267,433.541,266.601,522.888,289.031,608.056z"/>
		</g>
	</g>
	<g>
		<g>
			<path fill="#0D0000" d="M400.608,725.716c0,38.518,12.714,73.808,33.819,101.111c39.326-75.076,106.272-159.869,178.234-239.731
				c-20.24-11.821-43.362-18.51-67.897-18.51C465.161,568.586,400.608,638.934,400.608,725.716z"/>
		</g>
	</g>
	<g>
		<g>
			<path fill="#FF9453" d="M291.05,617.599c20.495,35.21,24.311,74.362,24.806,115.099c0.126,10.34-0.356,21.064,3.686,30.582
				c1.48,3.485,5.217,7.214,8.472,5.28c0.965-5.161,1.93-10.322,2.895-15.484c0.36-1.927,0.957-4.157,2.776-4.889
				c3.344-1.346,5.583,3.425,6.341,6.95c1.315,6.121,3.744,12.001,7.131,17.267c0.998,1.552,2.169,3.124,3.875,3.827
				c3.421,1.408,7.371-1.537,8.43-5.081c1.059-3.544,0.084-7.34-0.891-10.909"/>
		</g>
		<g>
			<path fill="#0D0000" d="M352.856,778.503c-0.878,0-1.741-0.168-2.555-0.504c-2.178-0.897-3.571-2.72-4.756-4.558
				c-3.534-5.495-6.018-11.517-7.393-17.898c-0.564-2.63-1.778-4.965-2.888-5.551c-0.247-0.135-0.497-0.183-0.867-0.03
				c-0.923,0.374-1.345,2.047-1.61,3.467l-2.895,15.485c-0.101,0.542-0.43,1.012-0.904,1.293c-1.449,0.863-3.082,1.031-4.741,0.486
				c-3.119-1.02-5.436-4.229-6.467-6.665c-3.717-8.745-3.762-18.35-3.81-27.641l-0.026-3.665
				c-0.467-38.19-3.762-78.451-24.548-114.16c-0.534-0.915-0.224-2.085,0.687-2.615c0.908-0.542,2.081-0.228,2.615,0.687
				c21.234,36.476,24.6,77.33,25.071,116.043l0.026,3.691c0.045,8.91,0.09,18.126,3.504,26.165c0.908,2.133,2.645,4.035,4.139,4.524
				c0.318,0.108,0.605,0.142,0.889,0.108l2.701-14.439c0.284-1.528,0.949-5.111,3.941-6.313c1.379-0.557,2.794-0.489,4.091,0.198
				c3.231,1.718,4.517,6.653,4.834,8.125c1.274,5.932,3.586,11.528,6.87,16.635c0.844,1.311,1.789,2.596,2.992,3.093
				c1.042,0.426,2.066,0.135,2.738-0.187c1.442-0.687,2.671-2.129,3.131-3.676c0.867-2.899,0.138-6.044-0.904-9.855
				c-0.276-1.02,0.321-2.07,1.341-2.35c1.035-0.276,2.073,0.325,2.35,1.341c0.949,3.467,2.126,7.782,0.882,11.958
				c-0.773,2.574-2.746,4.886-5.152,6.033C355.067,778.245,353.947,778.503,352.856,778.503z"/>
		</g>
	</g>
	<g>
		<g>
			<g>
				<path fill="#FF9453" d="M769.005,822.338c12.003,27.232,7.823,55.438-9.334,63c-17.158,7.563-40.797-8.383-52.8-35.614
					s-7.823-55.438,9.334-63l-81.264-224.076L751.78,444.814l100.909,256.598c0,0,57.662-2.883,77.844,74.961
					c17.395,67.097-31.714,80.727-49.013,63.429c0,0-12.835,26.785-25.158,29.25c-12.323,2.465-29.622-3.302-35.388-6.185
					c0,0-14.416,20.182-31.714,23.065c0,0-13.486,0.651-18.275-5.441"/>
			</g>
			<g>
				<path fill="#0D0000" d="M750.514,889.141c-6.463,0.004-13.393-2.354-20.248-6.978c-10.266-6.926-19.198-18.171-25.145-31.668
					c-12.029-27.297-8.047-55.76,8.701-64.737l-80.677-222.456c-0.254-0.699-0.082-1.476,0.437-2.002L750.42,443.471
					c0.456-0.456,1.121-0.672,1.745-0.527c0.635,0.127,1.158,0.572,1.393,1.173l100.435,255.386
					c9.089,0.22,59.813,4.729,78.391,76.392c11.984,46.226-7.457,63.078-16.374,68.177c-11.267,6.448-25.078,5.839-33.906-1.184
					c-3.485,6.687-14.338,25.833-25.369,28.037c-11.898,2.387-28.04-2.51-35.164-5.667c-3.575,4.61-16.512,19.979-31.997,22.56
					c-0.807,0.041-14.752,0.646-20.095-6.149c-0.235-0.299-0.366-0.646-0.4-0.997c-2.432,2.791-5.331,4.957-8.641,6.418
					C757.324,888.461,753.984,889.141,750.514,889.141z M637.153,563.134l80.849,222.934c0.344,0.949-0.105,1.999-1.024,2.402
					c-16.165,7.128-19.911,34.26-8.353,60.485c5.66,12.843,14.102,23.509,23.782,30.035c9.403,6.343,18.798,7.979,26.494,4.595
					c7.673-3.381,12.817-11.428,14.48-22.654c1.711-11.547-0.463-24.977-6.123-37.821c-0.43-0.968,0.011-2.096,0.975-2.525
					c0.968-0.422,2.096,0.015,2.525,0.979c5.947,13.497,8.222,27.678,6.407,39.928c-1.009,6.814-3.213,12.601-6.44,17.102
					c0.631-0.082,1.326,0.157,1.767,0.714c3.422,4.356,13.18,4.864,16.676,4.714c16.079-2.697,30.11-22.071,30.248-22.269
					c0.549-0.766,1.576-1.012,2.413-0.598c6.403,3.202,23.005,8.252,34.16,6.018c9.339-1.868,20.352-20.987,23.804-28.197
					c0.269-0.56,0.792-0.956,1.405-1.061c0.598-0.108,1.233,0.093,1.674,0.534c7.322,7.322,20.748,8.312,31.242,2.301
					c8.151-4.662,25.892-20.225,14.566-63.896c-19.56-75.451-75.324-73.516-75.892-73.534c-0.93,0.097-1.576-0.445-1.875-1.21
					l-99.838-253.866L637.153,563.134z"/>
			</g>
		</g>
		<g>
			<g>
				<path fill="#FF9453" d="M841.156,738.892c0,0,66.312,72.078,28.831,118.208c0,0-20.182,28.831-49.013,5.766"/>
			</g>
			<g>
				<path fill="#0D0000" d="M843.28,873.724c-7.834,0.004-15.716-3.138-23.502-9.362c-0.826-0.661-0.956-1.864-0.299-2.69
					c0.665-0.826,1.868-0.945,2.69-0.299c8.301,6.638,16.617,9.414,24.719,8.271c13.109-1.868,21.451-13.527,21.533-13.643
					c36.102-44.44-28.018-115.106-28.672-115.812c-0.714-0.777-0.665-1.987,0.112-2.705c0.784-0.71,1.991-0.657,2.705,0.112
					c2.753,2.992,66.989,73.833,28.903,120.709c-0.291,0.426-9.242,12.997-24.006,15.119
					C846.074,873.626,844.677,873.724,843.28,873.724z"/>
			</g>
		</g>
		<g>
			<g>
				<path fill="#FF9453" d="M841.156,738.892c0,0,66.312,72.078,28.831,118.208c0,0-20.182,28.831-49.013,5.766"/>
			</g>
			<g>
				<path fill="#0D0000" d="M843.28,873.724c-7.834,0.004-15.716-3.138-23.502-9.362c-0.826-0.661-0.956-1.864-0.299-2.69
					c0.665-0.826,1.868-0.945,2.69-0.299c8.301,6.638,16.617,9.414,24.719,8.271c13.109-1.868,21.451-13.527,21.533-13.643
					c36.102-44.44-28.018-115.106-28.672-115.812c-0.714-0.777-0.665-1.987,0.112-2.705c0.784-0.71,1.991-0.657,2.705,0.112
					c2.753,2.992,66.989,73.833,28.903,120.709c-0.291,0.426-9.242,12.997-24.006,15.119
					C846.074,873.626,844.677,873.724,843.28,873.724z"/>
			</g>
		</g>
		<g>
			<g>
				<path fill="#0D0000" d="M788.499,888.14c-7.83,0.004-15.716-3.138-23.498-9.362c-0.826-0.661-0.956-1.864-0.299-2.69
					c0.665-0.826,1.864-0.949,2.69-0.299c8.305,6.642,16.635,9.414,24.716,8.271c13.112-1.868,21.454-13.527,21.537-13.643
					c36.083-44.418-28.022-115.106-28.676-115.812c-0.714-0.781-0.665-1.987,0.112-2.705c0.785-0.71,1.991-0.657,2.705,0.112
					c2.753,2.992,66.993,73.833,28.907,120.709c-0.291,0.426-9.246,13-24.01,15.119C791.293,888.043,789.896,888.14,788.499,888.14z
					"/>
			</g>
		</g>
		<g>
			<g>
				<path fill="#FF9453" d="M783.494,810.97c0,0-8.649,23.065-37.481,14.416"/>
			</g>
			<g>
				<path fill="#0D0000" d="M758.165,829.235c-3.758,0-7.976-0.598-12.702-2.017c-1.012-0.303-1.588-1.367-1.281-2.38
					c0.303-1.012,1.371-1.584,2.38-1.281c26.733,8.002,34.813-12.391,35.142-13.262c0.377-0.982,1.472-1.491,2.466-1.109
					c0.986,0.37,1.487,1.468,1.113,2.458C785.204,811.852,778.412,829.235,758.165,829.235z"/>
			</g>
		</g>
	</g>
</g>
</svg>
